{"glyphs":{"0":{"ha":868,"x_min":29,"x_max":832,"o":"m 832 519 q 815 327 832 422 q 755 157 799 232 q 636 36 711 82 q 446 -10 561 -10 q 276 32 353 -10 q 144 140 199 74 q 59 292 89 207 q 29 463 29 376 q 38 593 29 525 q 67 726 47 661 q 119 850 88 792 q 197 953 151 908 q 303 1024 243 997 q 439 1050 363 1050 q 569 1027 511 1050 q 670 965 626 1004 q 744 873 714 925 q 794 762 775 821 q 823 641 814 703 q 832 519 832 579 m 367 524 q 368 485 367 507 q 376 444 369 463 q 395 412 382 425 q 433 399 408 399 q 475 411 460 399 q 497 442 490 424 q 506 484 504 461 q 508 526 508 507 q 505 575 508 547 q 493 628 501 603 q 470 670 485 653 q 432 688 456 688 q 400 667 413 688 q 380 618 388 646 q 369 563 372 590 q 367 524 367 536 z "},"1":{"ha":1104,"x_min":15,"x_max":1103,"o":"m 796 915 q 788 767 796 843 q 770 617 779 692 q 753 471 761 542 q 744 336 744 400 q 751 293 744 313 q 783 274 758 274 q 828 277 801 274 q 883 284 854 281 q 940 291 913 288 q 989 294 968 294 q 1044 269 1022 294 q 1080 207 1067 243 q 1098 132 1093 171 q 1103 65 1103 93 q 1099 40 1103 53 q 1085 13 1096 26 q 1051 -12 1074 0 q 990 -35 1028 -25 q 901 -51 953 -46 q 791 -58 850 -56 q 669 -60 732 -60 q 543 -60 606 -60 q 431 -60 488 -60 q 323 -60 375 -61 q 225 -54 271 -58 q 144 -40 179 -50 q 78 -14 104 -29 q 39 19 53 1 q 20 56 25 36 q 15 99 15 76 q 22 165 15 131 q 44 226 28 199 q 86 272 60 254 q 154 289 113 289 q 257 285 203 289 q 346 282 311 282 q 401 312 382 282 q 428 381 419 342 q 438 457 436 419 q 439 508 439 494 q 439 550 439 522 q 436 605 439 578 q 426 652 433 632 q 404 672 419 672 q 368 653 390 672 q 322 610 346 633 q 273 568 297 588 q 229 549 249 549 q 167 573 199 549 q 111 632 136 597 q 70 706 86 667 q 54 774 54 744 q 72 842 54 810 q 120 901 90 874 q 188 950 150 928 q 265 990 225 972 q 342 1021 304 1008 q 408 1042 379 1033 q 522 1076 464 1057 q 633 1094 581 1094 q 723 1078 690 1094 q 772 1037 756 1063 q 792 979 788 1011 q 796 915 796 947 z "},"2":{"ha":1021,"x_min":3,"x_max":1011,"o":"m 414 1050 q 590 1032 508 1050 q 732 974 672 1014 q 826 869 792 933 q 860 714 860 806 q 838 577 860 632 q 785 486 817 522 q 715 427 753 450 q 644 388 676 404 q 591 356 613 371 q 569 318 569 340 q 583 285 569 294 q 619 275 597 275 q 682 283 651 275 q 744 300 713 290 q 806 317 775 310 q 869 325 838 325 q 931 302 904 325 q 975 247 957 279 q 1002 177 993 214 q 1011 111 1011 140 q 999 46 1011 75 q 953 1 986 17 q 797 -46 882 -33 q 633 -58 713 -58 q 538 -56 597 -58 q 413 -47 479 -54 q 280 -26 347 -40 q 158 15 213 -11 q 70 78 104 40 q 36 172 36 117 q 67 251 36 211 q 144 331 99 292 q 245 406 190 369 q 346 476 300 443 q 423 535 392 508 q 454 583 454 563 q 369 685 454 685 q 329 666 349 685 q 290 624 310 647 q 252 583 271 601 q 213 564 233 564 q 128 585 167 564 q 63 640 90 606 q 19 719 35 674 q 3 813 3 764 q 24 880 3 849 q 81 938 46 911 q 160 985 117 964 q 250 1020 204 1006 q 339 1042 296 1035 q 414 1050 382 1050 z "},"3":{"ha":817,"x_min":17,"x_max":822,"o":"m 411 1040 q 547 1019 482 1040 q 663 960 613 997 q 742 874 713 924 q 771 767 771 824 q 752 690 771 721 q 710 640 733 660 q 669 607 688 619 q 650 582 650 594 q 677 556 650 569 q 736 514 704 542 q 795 440 768 486 q 822 319 822 394 q 726 73 822 160 q 457 -14 629 -14 q 294 3 372 -14 q 155 53 215 19 q 58 135 94 86 q 21 251 21 185 q 33 308 21 281 q 67 356 46 335 q 116 391 88 378 q 175 404 144 404 q 231 383 206 404 q 282 336 257 361 q 335 290 307 311 q 397 268 363 268 q 436 274 415 268 q 474 290 457 279 q 503 317 492 301 q 515 353 515 332 q 495 390 515 378 q 444 409 475 403 q 377 419 413 415 q 310 432 342 424 q 259 457 279 440 q 239 506 239 474 q 256 564 239 540 q 300 604 274 588 q 356 633 326 621 q 413 656 386 646 q 456 676 439 667 q 474 700 474 686 q 458 726 474 715 q 428 738 442 738 q 377 720 408 738 q 310 683 346 703 q 240 645 275 663 q 176 628 204 628 q 117 647 146 628 q 67 693 89 665 q 31 753 44 721 q 17 814 17 786 q 38 881 17 850 q 92 938 58 913 q 169 982 126 963 q 256 1014 213 1001 q 341 1033 300 1026 q 411 1040 382 1040 z "},"4":{"ha":1044,"x_min":19,"x_max":1018,"o":"m 813 558 q 842 562 829 558 q 867 569 856 565 q 892 576 879 572 q 922 579 904 579 q 969 566 950 579 q 999 532 988 553 q 1014 486 1010 511 q 1018 438 1018 461 q 1014 383 1018 414 q 999 326 1010 353 q 969 280 988 299 q 921 261 950 261 q 895 263 906 261 q 875 268 885 265 q 855 273 865 271 q 829 275 844 275 q 816 273 822 275 q 810 263 810 271 q 819 230 810 249 q 838 190 828 211 q 858 144 849 168 q 867 93 867 119 q 840 36 867 60 q 775 -3 813 13 q 698 -26 738 -19 q 632 -33 658 -33 q 574 -28 604 -33 q 519 -12 544 -24 q 478 22 494 0 q 463 76 463 43 q 465 122 463 101 q 472 160 468 142 q 479 199 476 179 q 482 243 482 218 q 473 269 482 263 q 444 275 464 275 q 379 270 411 275 q 316 259 347 265 q 252 248 285 253 q 185 243 219 243 q 122 251 151 243 q 69 278 92 260 q 33 324 46 296 q 19 392 19 353 q 30 474 19 432 q 56 556 40 517 q 104 672 76 611 q 165 791 132 732 q 238 903 199 850 q 322 997 278 957 q 416 1062 367 1038 q 517 1086 465 1086 q 651 1063 599 1086 q 735 999 704 1040 q 776 898 765 957 q 788 765 788 839 q 785 685 788 725 q 783 606 783 646 q 786 572 783 586 q 813 558 789 558 m 357 569 q 372 548 358 554 q 404 542 385 542 q 444 549 424 542 q 474 568 464 556 q 491 606 485 582 q 497 654 497 631 q 488 695 496 678 q 463 713 481 713 q 420 699 440 713 q 385 663 400 685 q 363 617 371 642 q 357 569 356 592 z "},"5":{"ha":950,"x_min":21,"x_max":917,"o":"m 878 954 q 864 870 878 911 q 824 798 850 829 q 760 748 797 767 q 676 729 722 729 q 613 734 644 729 q 551 745 582 739 q 488 756 519 751 q 424 761 456 761 q 391 760 408 761 q 374 738 374 760 q 397 695 374 701 q 450 689 421 689 q 506 692 478 689 q 561 694 533 694 q 683 676 619 694 q 798 624 746 658 q 883 538 850 589 q 917 421 917 488 q 887 227 917 306 q 798 100 857 149 q 649 30 739 51 q 440 8 560 8 q 374 10 414 8 q 291 16 335 11 q 203 31 247 21 q 124 59 160 42 q 67 103 89 76 q 44 167 44 129 q 58 219 44 188 q 93 279 72 250 q 138 329 114 308 q 183 350 163 350 q 226 338 203 350 q 281 312 250 326 q 353 285 313 297 q 447 272 393 272 q 482 277 464 272 q 516 291 500 282 q 542 315 532 300 q 553 349 553 329 q 542 381 553 368 q 515 401 531 393 q 482 413 500 410 q 449 417 464 417 q 347 405 396 417 q 244 393 297 393 q 162 417 197 393 q 101 478 126 440 q 60 563 76 515 q 36 661 44 611 q 24 758 28 711 q 21 840 21 806 q 24 891 21 865 q 35 940 26 917 q 58 984 43 964 q 96 1017 72 1004 q 264 1081 175 1061 q 443 1101 353 1101 q 643 1083 542 1101 q 836 1029 744 1064 q 869 999 860 1019 q 878 954 878 978 z "},"6":{"ha":861,"x_min":15,"x_max":832,"o":"m 811 879 q 803 826 811 854 q 778 775 794 799 q 738 736 761 751 q 683 721 714 721 q 636 730 660 721 q 589 749 613 739 q 542 768 565 760 q 496 776 519 776 q 448 767 474 776 q 401 742 422 758 q 365 704 379 726 q 350 656 350 682 q 357 628 350 640 q 381 617 364 617 q 406 622 392 617 q 438 635 419 628 q 483 649 457 643 q 544 654 508 654 q 653 637 601 654 q 745 583 706 619 q 808 489 785 546 q 832 353 832 432 q 794 175 832 247 q 699 58 757 103 q 571 -5 642 14 q 433 -24 500 -24 q 256 14 333 -24 q 124 122 178 51 q 43 290 71 192 q 15 508 15 388 q 22 615 15 557 q 46 732 28 674 q 97 845 64 790 q 185 942 131 900 q 317 1010 239 985 q 503 1036 394 1036 q 582 1033 531 1036 q 685 1013 633 1029 q 774 966 736 997 q 811 879 811 935 m 363 314 q 382 267 363 279 q 428 254 401 254 q 490 274 467 254 q 514 329 514 294 q 493 374 514 364 q 449 385 472 385 q 387 367 411 385 q 363 314 363 350 z "},"7":{"ha":999,"x_min":19,"x_max":974,"o":"m 511 1090 q 707 1069 621 1090 q 852 999 793 1047 q 942 872 911 950 q 974 681 974 793 q 953 506 974 597 q 901 330 932 415 q 833 172 869 244 q 767 53 797 99 q 719 -8 742 15 q 675 -42 696 -31 q 635 -58 654 -54 q 599 -61 617 -61 q 508 -49 557 -61 q 417 -11 458 -36 q 347 52 375 14 q 319 142 319 90 q 357 264 319 203 q 440 387 394 325 q 522 510 485 449 q 560 633 560 571 q 556 672 560 653 q 541 705 551 690 q 514 729 531 719 q 474 739 497 739 q 404 724 442 739 q 326 690 367 708 q 245 656 286 671 q 167 640 204 640 q 98 659 126 640 q 52 706 69 678 q 27 769 35 735 q 19 838 19 804 q 24 889 19 863 q 42 940 29 915 q 78 988 56 965 q 138 1026 101 1010 q 214 1053 169 1042 q 309 1074 258 1065 q 412 1086 360 1082 q 511 1090 464 1090 z "},"8":{"ha":1031,"x_min":42,"x_max":1011,"o":"m 953 843 q 926 730 953 772 q 865 661 899 688 q 805 621 832 635 q 778 592 778 607 q 795 572 778 581 q 838 553 813 564 q 894 528 864 543 q 951 491 925 514 q 994 435 976 468 q 1011 353 1011 401 q 990 223 1011 279 q 933 125 968 167 q 851 56 897 83 q 754 10 804 28 q 653 -14 704 -7 q 560 -21 603 -21 q 384 -13 475 -21 q 217 24 293 -6 q 91 112 140 53 q 42 274 42 171 q 60 388 42 342 q 107 464 79 433 q 167 513 135 494 q 228 542 200 531 q 274 563 256 554 q 293 583 293 572 q 278 600 293 593 q 242 616 264 607 q 196 638 221 625 q 149 674 171 651 q 113 732 128 697 q 99 818 99 767 q 122 928 99 881 q 196 1008 146 975 q 325 1056 246 1040 q 515 1072 404 1072 q 844 1009 736 1072 q 953 843 953 946 m 524 840 q 472 828 499 840 q 444 790 444 817 q 472 752 444 764 q 524 740 499 740 q 576 752 549 740 q 603 790 603 764 q 576 828 603 817 q 524 840 549 840 m 551 393 q 516 389 535 393 q 483 376 497 385 q 458 356 468 368 q 449 326 449 343 q 458 297 449 310 q 483 276 468 285 q 516 264 497 268 q 551 260 535 260 q 587 264 568 260 q 621 276 606 268 q 646 297 636 285 q 656 326 656 310 q 646 356 656 343 q 621 376 636 368 q 587 389 606 385 q 551 393 568 393 z "},"9":{"ha":833,"x_min":38,"x_max":814,"o":"m 814 685 q 810 560 814 626 q 792 428 807 494 q 750 297 778 361 q 674 176 722 233 q 587 100 636 133 q 483 44 538 67 q 369 11 428 22 q 254 0 311 0 q 181 14 218 0 q 112 52 143 28 q 61 110 81 76 q 42 183 42 144 q 60 239 42 219 q 110 267 79 258 q 179 278 140 276 q 258 283 218 281 q 334 290 297 285 q 397 310 371 294 q 425 329 410 317 q 454 357 440 342 q 477 389 468 372 q 486 421 486 406 q 465 449 486 442 q 429 457 444 457 q 385 451 407 457 q 343 438 364 444 q 301 424 322 431 q 257 418 279 418 q 93 494 149 418 q 38 708 38 569 q 67 845 38 783 q 147 951 97 907 q 263 1020 197 996 q 399 1044 328 1044 q 563 1022 488 1044 q 694 956 639 1000 q 782 844 750 911 q 814 685 814 776 m 424 653 q 452 656 438 653 q 479 667 467 660 q 500 687 492 675 q 508 715 508 699 q 489 758 508 739 q 443 778 469 778 q 412 772 428 778 q 383 756 396 767 q 363 733 371 746 q 354 703 354 719 q 361 681 354 690 q 378 665 368 671 q 401 656 389 658 q 424 653 414 653 z "},"\u0000":{"ha":0,"x_min":0,"x_max":0,"o":""},"\r":{"ha":347,"x_min":0,"x_max":0,"o":""}," ":{"ha":556,"x_min":0,"x_max":0,"o":""}," ":{"ha":556,"x_min":0,"x_max":0,"o":""},"!":{"ha":496,"x_min":39,"x_max":431,"o":"m 281 258 q 233 265 257 258 q 197 292 208 271 q 175 339 185 314 q 157 388 165 364 q 73 646 107 514 q 39 914 39 778 q 42 1012 39 968 q 65 1088 46 1056 q 125 1137 85 1119 q 239 1154 165 1154 q 307 1145 272 1154 q 357 1106 342 1136 q 392 1016 378 1065 q 415 915 406 967 q 427 812 424 863 q 431 717 431 761 q 428 621 431 676 q 419 508 425 565 q 403 396 413 450 q 382 304 394 342 q 340 268 372 278 q 281 258 308 258 m 161 119 q 173 161 161 143 q 203 191 185 179 q 246 209 222 203 q 294 215 269 215 q 414 104 414 215 q 409 61 414 82 q 393 24 404 40 q 363 -3 382 7 q 315 -12 344 -12 q 261 -1 289 -12 q 211 28 233 10 q 175 70 189 46 q 161 119 161 94 z "},"\"":{"ha":710,"x_min":42,"x_max":654,"o":"m 515 725 q 465 731 490 725 q 426 754 439 738 q 394 818 408 778 q 372 903 381 858 q 358 992 363 949 q 354 1061 354 1035 q 360 1126 354 1099 q 384 1172 367 1154 q 433 1197 401 1189 q 515 1206 465 1206 q 587 1181 560 1206 q 629 1121 614 1157 q 649 1043 644 1085 q 654 967 654 1001 q 653 894 654 936 q 639 815 651 853 q 598 751 626 778 q 515 725 569 725 m 203 701 q 152 708 178 701 q 114 731 126 714 q 82 794 96 754 q 59 880 68 835 q 46 968 50 925 q 42 1038 42 1011 q 48 1103 42 1075 q 72 1148 54 1131 q 121 1174 89 1165 q 203 1182 153 1182 q 274 1158 247 1182 q 317 1097 301 1133 q 337 1019 332 1061 q 342 943 342 978 q 340 871 342 913 q 326 792 339 829 q 285 728 314 754 q 203 701 257 701 z "},"#":{"ha":1199,"x_min":63,"x_max":1174,"o":"m 517 1101 q 578 1072 561 1101 q 596 1007 596 1043 q 590 948 596 976 q 583 889 583 919 q 595 860 583 867 q 626 853 607 853 q 665 859 642 853 q 699 874 688 865 q 708 902 704 878 q 716 956 713 926 q 722 1013 719 986 q 728 1049 725 1040 q 747 1082 733 1068 q 779 1106 761 1096 q 817 1119 797 1115 q 853 1124 836 1124 q 886 1119 867 1124 q 923 1106 906 1115 q 953 1084 940 1097 q 965 1053 965 1071 q 951 963 965 1007 q 938 874 938 919 q 951 860 938 863 q 972 857 964 857 q 1028 860 1006 857 q 1085 864 1051 864 q 1127 851 1110 864 q 1155 820 1144 839 q 1169 778 1165 801 q 1174 735 1174 756 q 1169 682 1174 707 q 1152 638 1164 657 q 1119 607 1140 618 q 1067 596 1099 596 q 1026 600 1044 596 q 991 608 1008 604 q 956 617 974 613 q 915 621 938 621 q 892 603 900 621 q 879 560 883 585 q 874 512 875 536 q 874 476 874 488 q 878 457 874 464 q 896 450 882 450 q 958 455 932 450 q 1019 460 983 460 q 1122 420 1086 460 q 1157 315 1157 381 q 1144 250 1157 275 q 1109 211 1131 225 q 1058 192 1088 197 q 996 188 1029 188 q 932 190 964 188 q 868 193 900 193 q 842 189 851 193 q 832 165 832 185 q 836 128 832 146 q 840 92 840 111 q 822 46 840 67 q 776 10 803 25 q 719 -12 749 -4 q 667 -21 689 -21 q 609 4 628 -21 q 590 65 590 29 q 601 124 590 96 q 611 183 611 153 q 599 195 611 193 q 581 197 588 197 q 558 196 572 197 q 530 191 544 194 q 503 183 515 188 q 483 174 490 179 q 471 149 474 167 q 465 108 468 131 q 456 63 463 86 q 434 19 450 39 q 390 -14 418 -1 q 313 -26 361 -26 q 251 -11 281 -26 q 222 40 222 4 q 228 78 222 60 q 240 114 233 96 q 253 150 247 132 q 258 188 258 168 q 251 203 258 199 q 234 210 244 208 q 212 210 224 211 q 192 210 200 210 q 149 211 175 210 q 108 224 122 213 q 75 278 88 243 q 63 342 63 314 q 88 422 63 386 q 163 457 114 457 q 226 448 194 457 q 290 439 258 439 q 315 454 306 439 q 331 490 325 469 q 338 531 336 510 q 339 563 339 551 q 330 603 339 594 q 289 611 321 611 q 236 608 263 611 q 183 606 210 606 q 131 618 153 606 q 95 651 108 631 q 76 699 82 672 q 69 754 69 725 q 96 846 69 814 q 175 878 122 878 q 242 871 210 878 q 310 864 275 864 q 334 872 326 864 q 345 891 342 879 q 348 917 349 903 q 347 942 347 931 q 392 1062 347 1022 q 517 1101 438 1101 m 586 419 q 628 434 610 419 q 657 469 646 449 q 674 514 668 490 q 679 556 679 538 q 666 617 679 604 q 622 629 653 629 q 558 597 586 629 q 531 508 531 564 q 540 436 531 453 q 586 419 550 419 z "},"$":{"ha":1015,"x_min":22,"x_max":960,"o":"m 950 763 q 937 687 950 724 q 902 623 924 650 q 851 579 881 596 q 790 563 822 563 q 743 581 763 563 q 706 627 724 600 q 668 685 689 654 q 618 742 647 717 q 616 663 617 699 q 615 604 615 628 l 615 582 q 738 512 676 549 q 848 433 799 475 q 928 344 897 392 q 960 243 960 297 q 929 143 960 190 q 847 60 899 96 q 730 4 796 25 q 594 -17 664 -17 l 575 -17 q 554 -71 567 -51 q 528 -100 542 -90 q 500 -112 514 -110 q 475 -114 486 -114 q 443 -110 460 -114 q 421 -90 426 -106 q 418 -56 418 -79 q 419 1 418 -32 q 276 40 347 15 q 149 99 206 65 q 58 177 93 133 q 22 274 22 221 q 32 333 22 301 q 60 391 42 364 q 105 436 79 418 q 163 454 131 454 q 207 442 188 454 q 243 411 226 431 q 277 367 260 392 q 316 317 294 343 q 367 268 338 292 q 435 226 396 244 q 438 288 436 256 q 440 354 439 319 q 308 432 375 390 q 188 519 242 474 q 99 611 133 564 q 65 704 65 658 q 102 830 65 771 q 199 934 139 889 q 333 1007 258 979 q 485 1039 408 1035 q 490 1074 488 1057 q 501 1103 493 1090 q 522 1124 508 1117 q 558 1132 536 1132 q 592 1127 574 1132 q 615 1106 610 1122 q 619 1077 618 1097 q 621 1028 619 1057 q 742 990 683 1015 q 847 928 801 964 q 922 851 893 893 q 950 763 950 808 m 454 672 q 457 736 456 704 q 461 800 458 768 q 436 799 451 800 q 407 794 421 799 q 383 783 393 790 q 374 760 374 775 q 396 717 374 739 q 454 672 418 696 m 596 190 q 613 189 604 189 q 629 189 621 189 q 674 194 663 189 q 686 217 686 199 q 664 235 686 222 q 601 268 642 249 q 599 228 600 247 q 596 190 599 208 z "},"%":{"ha":881,"x_min":35,"x_max":838,"o":"m 728 1101 q 760 1097 743 1101 q 792 1084 778 1093 q 815 1062 806 1075 q 824 1031 824 1049 q 797 933 824 1000 q 727 781 769 867 q 633 601 685 696 q 533 420 582 507 q 444 262 485 333 q 383 153 404 190 q 352 99 368 125 q 318 46 336 74 q 260 1 296 13 q 186 -11 224 -11 q 149 -8 169 -11 q 112 4 129 -4 q 83 27 94 13 q 71 64 71 42 q 90 128 71 82 q 139 239 108 174 q 210 382 169 304 q 294 541 250 460 q 381 701 338 622 q 463 847 425 781 q 529 963 500 914 q 572 1035 558 1013 q 641 1086 596 1071 q 728 1101 686 1101 m 360 867 q 353 790 360 828 q 328 722 346 751 q 281 673 311 692 q 203 654 250 654 q 135 671 167 654 q 82 714 104 688 q 47 774 60 740 q 35 840 35 807 q 42 921 35 879 q 67 998 49 963 q 119 1056 86 1033 q 203 1079 151 1079 q 285 1059 254 1079 q 333 1008 317 1039 q 355 939 350 976 q 360 867 360 901 m 172 871 q 175 837 172 856 q 197 818 178 818 q 224 834 218 818 q 229 867 229 850 q 228 886 229 875 q 225 908 228 897 q 217 927 222 919 q 203 935 211 935 q 185 928 192 935 q 176 910 179 921 q 173 889 174 900 q 172 871 172 878 m 838 208 q 831 131 838 169 q 806 63 824 93 q 759 15 789 33 q 682 -4 729 -4 q 614 12 644 -4 q 562 54 583 28 q 528 114 540 81 q 515 182 515 147 q 524 262 515 219 q 551 340 532 304 q 602 398 571 375 q 679 421 633 421 q 753 401 724 421 q 802 350 783 381 q 829 282 821 319 q 838 208 838 244 m 651 207 q 654 176 651 193 q 678 158 657 158 q 704 178 700 158 q 708 213 708 197 q 708 232 708 221 q 704 252 707 243 q 694 268 701 261 q 676 275 688 275 q 666 267 671 275 q 658 249 661 260 q 653 226 654 238 q 651 207 651 215 z "},"&":{"ha":1054,"x_min":32,"x_max":1024,"o":"m 660 39 q 601 8 635 25 q 531 -23 568 -8 q 454 -47 493 -37 q 378 -56 415 -56 q 250 -39 313 -56 q 139 12 188 -22 q 61 99 90 46 q 32 226 32 153 q 54 353 32 301 q 103 439 76 404 q 151 496 129 474 q 174 533 174 518 q 168 584 174 558 q 156 637 163 610 q 143 692 149 664 q 138 749 138 719 q 163 880 138 818 q 232 989 188 942 q 336 1063 276 1036 q 467 1090 396 1090 q 603 1066 542 1090 q 709 998 665 1042 q 776 892 753 954 q 800 756 800 831 q 783 672 800 710 q 739 603 765 635 q 681 547 713 572 q 624 502 650 522 q 580 466 597 482 q 563 438 563 450 q 569 417 563 428 q 585 398 575 407 q 606 383 594 389 q 628 378 618 378 q 663 397 647 378 q 692 442 678 415 q 722 502 707 469 q 755 563 738 535 q 793 610 772 592 q 840 631 814 629 q 902 621 869 632 q 962 590 935 610 q 1006 543 989 569 q 1024 488 1024 517 q 999 422 1024 456 q 943 354 974 389 q 888 285 913 319 q 863 215 863 250 q 882 176 863 192 q 924 147 901 161 q 967 114 947 132 q 986 67 986 96 q 974 12 986 38 q 942 -33 963 -14 q 896 -62 922 -51 q 840 -72 869 -72 q 797 -53 817 -72 q 758 -13 776 -35 q 721 27 739 8 q 682 46 703 46 q 660 39 674 46 m 429 749 q 438 719 429 738 q 458 700 446 700 q 499 724 483 704 q 522 768 514 744 q 516 806 531 792 q 479 821 501 821 q 456 813 465 821 q 440 792 446 804 q 431 769 433 781 q 429 749 429 757 m 324 226 q 341 199 324 207 q 375 190 358 190 q 401 195 386 190 q 417 214 417 200 q 403 261 417 236 q 364 286 389 286 q 330 267 336 286 q 324 226 324 249 z "},"'":{"ha":385,"x_min":42,"x_max":342,"o":"m 203 701 q 153 708 178 701 q 114 732 128 714 q 82 794 96 754 q 59 880 68 835 q 46 968 50 925 q 42 1038 42 1011 q 48 1103 42 1075 q 72 1148 54 1131 q 121 1174 89 1165 q 203 1182 153 1182 q 274 1158 247 1182 q 317 1097 301 1133 q 337 1019 332 1061 q 342 943 342 978 q 340 871 342 913 q 326 792 339 829 q 285 728 314 754 q 203 701 257 701 z "},"(":{"ha":589,"x_min":13,"x_max":558,"o":"m 546 988 q 517 953 536 968 q 474 917 497 938 q 428 867 451 896 q 385 790 404 838 q 353 672 365 742 q 340 500 340 601 q 351 353 340 411 q 377 259 361 296 q 411 202 393 222 q 446 169 429 182 q 475 145 463 156 q 490 117 488 135 q 488 63 494 88 q 465 19 481 38 q 426 -11 450 0 q 374 -22 403 -22 q 220 12 288 -22 q 107 111 153 46 q 37 270 61 176 q 13 482 13 364 q 47 713 13 601 q 141 911 81 825 q 283 1050 201 997 q 457 1103 364 1103 q 501 1094 479 1103 q 537 1070 522 1086 q 555 1033 551 1054 q 546 988 558 1013 z "},")":{"ha":593,"x_min":47,"x_max":567,"o":"m 60 68 q 105 134 75 97 q 165 228 135 171 q 217 371 194 286 q 239 581 239 456 q 228 727 239 669 q 202 822 218 785 q 168 878 186 858 q 133 912 150 899 q 104 935 117 925 q 89 964 92 946 q 92 1018 85 993 q 114 1062 99 1043 q 153 1092 129 1081 q 206 1103 176 1103 q 359 1069 292 1103 q 472 969 426 1035 q 542 811 518 904 q 567 599 567 718 q 537 369 567 481 q 452 170 507 258 q 320 24 397 82 q 149 -47 243 -35 q 105 -42 126 -50 q 69 -17 83 -33 q 51 21 54 -1 q 60 68 47 43 z "},"*":{"ha":975,"x_min":11,"x_max":971,"o":"m 11 851 q 132 922 11 922 q 188 919 158 922 q 245 913 218 917 q 293 907 272 910 q 319 904 314 904 q 342 906 333 904 q 350 917 350 907 q 323 956 350 935 q 263 1001 296 976 q 203 1053 231 1025 q 176 1110 176 1081 q 190 1144 176 1129 q 222 1168 203 1158 q 265 1183 242 1178 q 308 1188 288 1188 q 373 1172 349 1188 q 413 1135 397 1157 q 435 1085 428 1113 q 450 1036 443 1058 q 465 999 457 1014 q 488 983 474 983 q 524 1016 508 983 q 559 1088 540 1049 q 605 1159 578 1126 q 675 1192 632 1192 q 745 1164 715 1192 q 775 1100 775 1136 q 758 1047 775 1072 q 719 997 740 1021 q 680 951 697 972 q 663 914 663 931 q 669 902 663 904 q 686 900 676 900 q 721 906 704 900 q 756 917 738 911 q 794 928 774 924 q 840 933 815 933 q 889 928 865 933 q 931 911 913 922 q 960 885 949 900 q 971 850 971 869 q 936 785 971 814 q 844 756 901 756 q 793 763 815 756 q 751 781 771 771 q 710 798 731 790 q 663 806 689 806 q 643 803 650 806 q 636 793 636 801 q 658 757 636 779 q 706 708 679 735 q 753 653 732 682 q 775 594 775 624 q 764 555 775 574 q 736 521 753 536 q 699 497 719 506 q 658 488 678 488 q 631 491 647 488 q 600 504 615 494 q 565 558 575 522 q 549 631 556 594 q 533 694 543 667 q 499 721 524 721 q 467 705 479 721 q 447 665 456 689 q 428 612 438 640 q 406 559 419 583 q 370 519 392 535 q 315 503 349 503 q 272 510 293 503 q 233 531 250 518 q 207 560 217 543 q 197 594 197 576 q 217 646 197 619 q 259 697 236 672 q 301 743 282 722 q 319 779 319 764 q 311 791 319 789 q 286 793 303 793 q 242 790 260 793 q 208 782 224 786 q 176 774 193 778 q 132 771 158 771 q 41 793 71 771 q 11 851 11 815 z "},"+":{"ha":929,"x_min":10,"x_max":919,"o":"m 597 889 q 619 834 619 868 q 612 766 618 800 q 601 702 606 732 q 610 660 596 672 q 635 651 618 651 q 669 656 650 651 q 708 667 688 661 q 751 678 729 674 q 793 683 774 683 q 822 680 808 683 q 847 665 836 676 q 891 603 874 640 q 914 525 908 565 q 912 447 919 485 q 881 382 904 408 q 851 363 868 368 q 813 358 833 358 q 756 365 786 358 q 699 378 726 371 q 647 392 671 386 q 608 399 624 399 q 592 394 596 399 q 588 370 585 388 q 599 329 592 353 q 617 278 607 306 q 633 225 628 251 q 638 175 639 199 q 624 136 638 151 q 558 92 599 107 q 472 76 517 76 q 408 86 439 76 q 356 115 378 96 q 326 180 329 138 q 329 266 324 222 q 340 347 335 310 q 333 394 344 383 q 307 401 326 401 q 235 392 279 401 q 151 382 192 382 q 114 386 132 382 q 82 401 96 390 q 42 453 60 421 q 17 519 25 485 q 14 586 10 554 q 40 638 18 618 q 73 655 54 650 q 114 660 92 660 q 167 655 139 660 q 221 644 194 650 q 271 634 247 639 q 311 629 294 629 q 340 638 332 629 q 343 685 354 651 q 317 760 332 719 q 297 839 303 800 q 314 901 290 878 q 369 934 336 924 q 438 944 401 944 q 525 930 482 944 q 597 889 568 915 z "},",":{"ha":582,"x_min":81,"x_max":474,"o":"m 274 358 q 353 339 317 358 q 416 289 389 319 q 458 221 443 258 q 474 146 474 183 q 423 -28 474 46 q 292 -156 372 -101 q 224 -178 260 -178 q 176 -164 196 -178 q 154 -122 157 -150 q 168 -69 151 -96 q 202 -23 185 -43 q 229 10 219 -3 q 222 22 239 22 q 115 56 150 22 q 81 151 81 89 q 94 228 81 190 q 133 294 108 265 q 194 341 158 324 q 274 358 229 358 z "},"-":{"ha":646,"x_min":51,"x_max":586,"o":"m 51 557 q 58 607 51 581 q 88 644 65 633 q 163 675 121 661 q 251 699 206 689 q 340 713 296 708 q 422 718 385 718 q 500 713 468 718 q 551 690 532 707 q 578 643 569 674 q 586 563 586 613 q 585 540 586 553 q 581 513 583 526 q 572 490 578 500 q 556 474 565 479 q 498 450 529 460 q 433 434 467 440 q 367 425 400 428 q 304 422 333 422 q 204 428 256 422 q 107 447 153 433 q 80 464 90 451 q 63 492 69 476 q 54 526 57 508 q 51 557 51 543 z "},".":{"ha":558,"x_min":81,"x_max":474,"o":"m 274 358 q 353 339 317 358 q 416 289 389 319 q 458 221 443 258 q 474 146 474 183 q 451 60 474 99 q 394 -5 428 22 q 319 -47 360 -32 q 243 -62 279 -62 q 174 -45 204 -62 q 122 -1 143 -28 q 91 61 101 26 q 81 129 81 96 q 94 209 81 168 q 133 283 108 250 q 194 338 158 317 q 274 358 229 358 z "},"/":{"ha":794,"x_min":31,"x_max":789,"o":"m 608 1103 q 656 1098 625 1103 q 716 1082 686 1093 q 767 1053 746 1071 q 789 1013 789 1036 q 715 767 763 903 q 610 494 668 632 q 488 228 551 356 q 364 6 424 100 q 338 -37 350 -17 q 312 -73 326 -57 q 277 -98 297 -89 q 228 -107 257 -107 q 174 -100 207 -107 q 108 -79 140 -93 q 53 -45 76 -65 q 31 1 31 -25 q 33 15 31 7 q 85 161 51 71 q 162 356 119 251 q 253 573 204 461 q 350 784 301 685 q 444 960 399 883 q 525 1075 489 1038 q 563 1098 542 1093 q 608 1103 585 1103 z "},":":{"ha":549,"x_min":63,"x_max":488,"o":"m 488 833 q 472 754 488 793 q 428 685 456 715 q 364 638 400 656 q 288 619 328 619 q 209 637 249 619 q 137 683 169 654 q 83 750 104 713 q 63 829 63 788 q 83 903 63 869 q 135 959 103 936 q 207 994 167 982 q 288 1007 247 1007 q 361 996 325 1007 q 425 963 397 985 q 470 908 453 940 q 488 833 488 875 m 274 358 q 351 340 314 358 q 415 292 388 322 q 458 225 442 263 q 474 150 474 188 q 453 67 474 106 q 399 -1 432 28 q 326 -46 367 -29 q 247 -62 286 -62 q 176 -46 207 -62 q 124 -2 144 -29 q 92 60 103 25 q 81 129 81 94 q 94 210 81 169 q 133 284 108 251 q 194 338 158 317 q 274 358 231 358 z "},";":{"ha":569,"x_min":63,"x_max":488,"o":"m 488 833 q 472 754 488 793 q 428 685 456 715 q 364 638 400 656 q 288 619 328 619 q 209 637 249 619 q 137 683 169 654 q 83 750 104 713 q 63 829 63 788 q 83 903 63 869 q 135 959 103 936 q 207 994 167 982 q 288 1007 247 1007 q 361 996 325 1007 q 425 963 397 985 q 470 908 453 940 q 488 833 488 875 m 285 358 q 364 339 328 358 q 427 289 400 319 q 469 221 454 258 q 485 146 485 183 q 431 -29 485 40 q 292 -156 378 -99 q 224 -178 260 -178 q 176 -164 196 -178 q 154 -122 157 -150 q 168 -69 151 -96 q 202 -23 185 -43 q 229 10 219 -3 q 222 22 239 22 q 160 35 186 22 q 115 69 133 47 q 89 120 97 92 q 81 179 81 149 q 96 251 81 218 q 138 308 111 283 q 203 345 165 332 q 285 358 240 358 z "},"<":{"ha":982,"x_min":89,"x_max":826,"o":"m 89 461 q 99 511 89 488 q 124 554 108 535 q 163 592 132 564 q 239 656 194 619 q 335 732 283 692 q 432 808 386 772 q 513 868 478 843 q 561 900 549 893 q 633 919 596 919 q 694 903 664 919 q 748 860 724 886 q 787 801 772 833 q 801 739 801 769 q 776 667 801 697 q 714 614 751 636 q 632 576 676 592 q 550 547 588 560 q 488 519 513 533 q 463 489 463 506 q 483 467 463 478 q 537 449 504 457 q 608 432 569 440 q 683 415 647 424 q 747 399 719 407 q 783 381 774 390 q 815 333 803 360 q 826 278 826 307 q 813 215 826 247 q 776 155 799 182 q 726 110 754 128 q 667 93 697 93 q 611 104 640 93 q 496 160 550 126 q 386 224 442 193 q 327 253 363 236 q 255 287 292 269 q 186 322 218 304 q 136 354 154 339 q 101 403 114 374 q 89 461 89 432 z "},"=":{"ha":711,"x_min":78,"x_max":624,"o":"m 78 663 q 85 713 78 686 q 114 750 92 739 q 190 777 147 767 q 278 793 232 788 q 368 800 324 799 q 450 801 413 801 q 528 796 496 801 q 578 774 560 790 q 606 726 597 757 q 614 646 614 696 q 613 623 614 636 q 608 597 611 610 q 599 573 606 583 q 583 557 593 563 q 526 535 557 543 q 461 522 494 526 q 394 517 428 518 q 332 515 361 515 q 248 519 293 515 q 165 538 203 524 q 103 582 128 553 q 78 663 78 611 m 82 343 q 85 375 82 358 q 94 408 88 392 q 110 436 100 424 q 138 453 121 449 q 249 474 192 468 q 364 479 307 479 q 422 478 392 479 q 483 474 453 478 q 540 463 513 471 q 593 443 568 456 q 609 427 603 438 q 618 403 615 417 q 622 377 621 390 q 624 354 624 364 q 615 274 624 304 q 588 226 607 243 q 538 204 569 210 q 460 199 506 199 q 377 201 422 199 q 285 210 332 204 q 194 228 238 217 q 118 256 151 239 q 89 293 96 267 q 82 343 82 319 z "},">":{"ha":914,"x_min":89,"x_max":826,"o":"m 826 461 q 814 403 826 432 q 779 354 801 374 q 729 322 761 339 q 660 287 697 304 q 588 253 624 269 q 529 224 553 236 q 419 160 474 193 q 304 104 365 126 q 249 93 275 93 q 190 110 218 93 q 139 155 161 128 q 103 215 117 182 q 89 278 89 247 q 101 333 89 307 q 132 381 113 360 q 169 399 142 390 q 232 415 196 407 q 307 432 268 424 q 378 449 346 440 q 432 467 411 457 q 453 489 453 478 q 428 519 453 506 q 365 547 403 533 q 283 576 328 560 q 201 614 239 592 q 139 667 164 636 q 114 739 114 697 q 129 801 114 769 q 168 860 144 833 q 222 903 192 886 q 282 919 251 919 q 354 900 319 919 q 402 868 367 893 q 483 808 438 843 q 581 732 529 772 q 676 656 632 692 q 753 592 721 619 q 792 554 785 564 q 817 511 807 535 q 826 461 826 488 z "},"?":{"ha":738,"x_min":35,"x_max":679,"o":"m 410 800 q 392 874 410 846 q 346 901 375 901 q 307 883 321 901 q 279 844 293 865 q 246 804 265 822 q 190 786 226 786 q 133 799 161 786 q 83 835 106 813 q 48 887 61 857 q 35 949 35 917 q 72 1044 35 1004 q 162 1110 110 1085 q 271 1148 214 1136 q 367 1160 328 1160 q 509 1136 450 1160 q 606 1071 568 1113 q 661 973 643 1029 q 679 851 679 917 q 664 735 679 781 q 625 659 649 689 q 575 610 601 629 q 525 573 549 590 q 486 536 501 556 q 471 486 471 517 q 476 455 471 468 q 486 431 481 442 q 497 408 492 419 q 501 381 501 396 q 481 331 501 351 q 433 300 461 311 q 374 284 404 289 q 321 279 343 279 q 259 289 288 279 q 208 319 231 299 q 174 370 186 339 q 161 444 161 401 q 180 534 161 500 q 226 591 199 568 q 285 631 253 614 q 345 668 318 647 q 391 719 372 689 q 410 800 410 750 m 467 96 q 426 17 467 44 q 331 -11 385 -11 q 245 20 276 -11 q 214 115 214 51 q 219 162 214 139 q 235 203 224 185 q 266 232 247 221 q 311 243 285 243 q 368 231 340 243 q 418 198 396 218 q 453 151 440 178 q 467 96 467 125 z "},"@":{"ha":1304,"x_min":39,"x_max":1260,"o":"m 875 119 q 928 97 911 119 q 946 51 946 75 q 925 1 946 24 q 870 -38 904 -21 q 793 -67 836 -56 q 706 -87 750 -79 q 622 -99 663 -96 q 554 -103 582 -103 q 333 -58 429 -103 q 172 64 238 -14 q 72 247 106 142 q 39 471 39 351 q 85 719 39 604 q 215 919 132 835 q 414 1051 299 1003 q 667 1100 529 1100 q 900 1059 792 1100 q 1088 944 1008 1018 q 1214 768 1168 871 q 1260 542 1260 665 q 1242 390 1260 467 q 1190 253 1225 314 q 1105 153 1156 192 q 989 114 1054 114 q 905 133 938 114 q 850 176 872 153 q 813 218 828 199 q 781 238 797 238 q 756 222 765 238 q 728 189 746 207 q 678 156 710 171 q 590 140 647 140 q 465 168 521 140 q 372 242 410 196 q 313 351 333 289 q 292 483 292 414 q 316 628 292 557 q 385 753 340 699 q 491 842 429 808 q 626 875 553 875 q 719 854 685 875 q 772 809 753 833 q 801 764 792 785 q 821 743 811 743 q 835 753 829 743 q 849 776 840 764 q 869 799 857 789 q 899 810 881 810 q 928 804 913 810 q 956 785 943 799 q 976 751 968 772 q 985 700 985 731 q 979 648 985 683 q 968 568 974 613 q 959 477 963 524 q 960 392 956 431 q 982 328 965 353 q 1031 303 999 303 q 1064 321 1047 303 q 1094 370 1081 339 q 1115 445 1107 401 q 1124 540 1124 489 q 1092 709 1124 629 q 1003 850 1061 789 q 860 947 944 911 q 672 983 776 983 q 465 936 556 983 q 311 814 374 889 q 216 647 249 739 q 183 464 183 554 q 216 295 183 372 q 304 162 249 218 q 433 74 360 106 q 588 42 507 42 q 683 54 642 42 q 759 81 725 67 q 821 108 793 96 q 875 119 849 119 m 558 503 q 562 472 558 488 q 574 442 565 456 q 595 421 582 429 q 629 413 608 413 q 666 419 647 413 q 700 440 685 426 q 725 473 715 454 q 735 515 735 492 q 710 575 735 551 q 646 599 686 599 q 581 572 603 599 q 558 503 558 544 z "},"A":{"ha":1142,"x_min":-19,"x_max":1156,"o":"m 1156 63 q 1133 12 1156 31 q 1081 -17 1111 -7 q 1018 -29 1050 -26 q 965 -32 986 -32 q 910 -30 942 -32 q 844 -23 878 -28 q 781 -11 811 -18 q 731 7 751 -4 q 700 36 707 19 q 693 81 693 53 q 699 145 693 114 q 704 207 704 176 q 607 310 704 310 q 567 306 589 310 q 524 295 544 301 q 484 281 503 289 q 451 263 465 272 q 416 225 428 246 q 400 181 404 204 q 397 135 396 158 q 397 89 397 111 q 364 -35 397 -1 q 257 -69 331 -69 q 174 -62 222 -69 q 83 -40 126 -56 q 10 -1 40 -25 q -19 57 -19 22 q 40 312 0 185 q 135 555 81 439 q 252 770 189 671 q 382 940 315 869 q 449 1005 418 981 q 505 1042 479 1029 q 554 1060 531 1056 q 600 1065 578 1065 q 742 1010 675 1065 q 865 866 808 954 q 970 669 922 778 q 1054 453 1018 560 q 1114 253 1090 346 q 1149 103 1138 160 q 1154 69 1154 81 q 1156 63 1156 64 m 453 558 q 465 524 453 538 q 493 501 476 510 q 529 488 510 492 q 563 485 549 485 q 597 488 576 485 q 635 500 617 492 q 665 522 653 508 q 678 557 678 536 q 667 597 678 575 q 640 637 657 618 q 602 668 624 656 q 560 681 581 681 q 519 668 539 681 q 485 638 500 656 q 462 598 471 619 q 453 558 453 576 z "},"B":{"ha":967,"x_min":19,"x_max":946,"o":"m 854 757 q 831 652 854 697 q 756 578 808 607 q 731 567 750 574 q 690 552 711 560 q 653 538 669 544 q 636 526 636 531 q 656 514 636 521 q 700 500 675 507 q 749 488 725 493 q 779 479 772 482 q 898 408 850 456 q 946 279 946 361 q 942 230 946 257 q 928 173 939 203 q 899 112 918 143 q 851 51 881 81 q 741 -11 814 13 q 587 -48 668 -35 q 426 -65 506 -61 q 297 -69 347 -69 q 233 -67 264 -69 q 175 -53 201 -64 q 126 -23 149 -43 q 88 31 104 -3 q 53 127 67 72 q 33 240 40 182 q 22 353 25 297 q 19 457 19 410 q 21 557 19 504 q 26 663 22 610 q 36 769 29 717 q 53 868 43 822 q 104 967 67 928 q 192 1028 142 1006 q 299 1058 242 1050 q 410 1067 357 1067 q 564 1053 485 1067 q 708 1003 643 1039 q 813 908 772 968 q 854 757 854 849 m 415 626 q 456 634 436 626 q 492 656 476 642 q 518 688 508 669 q 528 728 528 707 q 518 767 528 749 q 492 800 508 786 q 456 822 476 814 q 415 829 436 829 q 380 820 394 829 q 356 797 365 811 q 342 764 346 782 q 338 728 338 746 q 342 692 338 710 q 356 659 346 674 q 380 635 365 644 q 415 626 394 626 m 428 196 q 465 203 444 196 q 503 222 486 210 q 533 250 521 233 q 544 286 544 267 q 532 326 544 306 q 501 361 519 346 q 460 386 482 376 q 419 396 439 396 q 389 386 401 396 q 369 362 376 376 q 358 331 361 347 q 354 299 354 314 q 358 264 354 282 q 371 231 363 246 q 393 206 379 215 q 428 196 407 196 z "},"C":{"ha":974,"x_min":15,"x_max":965,"o":"m 683 1065 q 849 1006 794 1065 q 904 838 904 946 q 897 781 904 817 q 874 712 890 746 q 829 652 857 678 q 760 626 801 626 q 699 647 721 626 q 658 692 678 667 q 612 737 638 717 q 540 757 586 757 q 469 740 503 757 q 408 692 435 722 q 367 618 382 661 q 351 522 351 575 q 364 437 351 479 q 401 362 376 394 q 463 309 426 329 q 546 289 499 289 q 630 313 596 289 q 691 367 664 338 q 742 422 718 397 q 794 446 765 446 q 862 413 831 446 q 916 335 893 381 q 952 242 939 289 q 965 165 965 194 q 935 65 965 104 q 858 2 904 25 q 756 -30 811 -21 q 653 -39 701 -39 q 380 -12 499 -39 q 180 77 261 14 q 57 245 99 140 q 15 507 15 350 q 62 770 15 664 q 195 942 108 876 q 406 1037 282 1008 q 683 1065 529 1065 z "},"D":{"ha":975,"x_min":22,"x_max":958,"o":"m 958 415 q 926 250 958 324 q 840 120 894 176 q 712 24 785 64 q 558 -42 639 -17 q 392 -80 476 -68 q 228 -92 307 -92 q 131 -74 172 -92 q 72 3 89 -56 q 49 126 58 56 q 33 272 39 197 q 24 419 26 347 q 22 546 22 490 q 24 649 22 594 q 31 760 26 704 q 46 871 36 817 q 72 971 56 925 q 107 1025 85 1004 q 158 1058 129 1046 q 220 1073 188 1069 q 285 1076 253 1076 q 435 1063 360 1076 q 583 1033 510 1050 q 756 947 676 1011 q 875 794 835 882 q 936 609 914 707 q 958 415 958 511 m 369 524 q 370 478 369 510 q 376 415 371 447 q 392 360 381 383 q 425 336 404 336 q 465 345 443 336 q 509 367 488 354 q 549 396 531 381 q 578 425 567 411 q 594 456 589 439 q 599 492 599 472 q 584 556 599 522 q 545 619 569 590 q 490 666 521 647 q 426 685 458 685 q 394 665 406 685 q 376 619 382 646 q 370 565 371 592 q 369 524 369 539 z "},"E":{"ha":919,"x_min":42,"x_max":918,"o":"m 476 1101 q 549 1099 508 1101 q 632 1089 590 1096 q 713 1072 674 1082 q 781 1046 751 1061 q 814 1022 801 1035 q 833 995 826 1010 q 840 963 839 981 q 842 922 842 944 q 812 796 842 839 q 734 733 782 753 q 624 712 686 714 q 497 710 563 710 q 465 709 483 710 q 429 703 446 708 q 401 686 413 697 q 390 656 390 675 q 410 624 390 629 q 451 618 431 618 q 532 624 492 618 q 613 629 572 629 q 704 600 672 629 q 736 510 736 571 q 729 453 736 481 q 706 403 722 425 q 667 369 690 382 q 610 357 643 357 q 546 363 578 357 q 482 368 514 368 q 463 367 475 368 q 440 364 451 367 q 422 356 429 361 q 414 339 414 350 q 437 290 414 301 q 492 279 460 279 q 611 290 553 279 q 732 301 669 301 q 808 276 774 301 q 867 215 842 251 q 905 135 892 178 q 918 56 918 92 q 891 9 918 29 q 822 -26 864 -11 q 729 -51 781 -40 q 629 -67 678 -61 q 540 -76 581 -74 q 481 -79 500 -79 q 394 -76 442 -79 q 299 -65 347 -74 q 207 -41 251 -57 q 128 1 163 -25 q 74 66 94 28 q 53 157 53 104 q 49 413 53 286 q 46 668 46 539 q 44 743 46 690 q 47 855 42 796 q 68 965 51 914 q 121 1035 85 1017 q 203 1065 157 1053 q 298 1086 250 1078 q 392 1098 346 1094 q 476 1101 439 1101 z "},"F":{"ha":863,"x_min":32,"x_max":865,"o":"m 490 1089 q 569 1086 526 1089 q 653 1077 611 1083 q 737 1060 696 1071 q 810 1031 778 1049 q 853 980 842 1013 q 865 911 865 947 q 855 835 865 876 q 824 758 844 793 q 772 699 803 722 q 699 675 740 675 q 628 685 663 675 q 559 708 593 696 q 490 731 525 721 q 418 742 454 742 q 372 728 385 742 q 360 679 360 715 q 373 635 360 646 q 418 624 386 624 q 463 628 442 624 q 508 640 485 633 l 551 654 q 597 666 575 661 q 642 671 618 671 q 688 660 669 671 q 719 630 707 649 q 736 588 731 611 q 742 540 742 564 q 733 481 742 518 q 709 410 725 444 q 670 351 693 376 q 618 326 647 326 q 569 337 594 326 q 517 360 543 347 q 467 384 492 374 q 421 394 442 394 q 382 372 393 394 q 371 325 371 349 q 385 259 371 293 q 415 190 399 225 q 446 122 432 156 q 460 57 460 89 q 438 0 460 24 q 383 -38 415 -24 q 316 -60 351 -53 q 254 -67 281 -67 q 155 -51 206 -67 q 72 4 104 -36 q 49 66 57 24 q 37 156 40 108 q 33 249 33 204 q 32 318 32 293 q 38 536 32 428 q 43 754 43 644 q 48 822 43 778 q 63 913 53 867 q 91 997 74 958 q 133 1044 108 1035 q 209 1065 161 1057 q 309 1078 257 1074 q 410 1086 361 1083 q 490 1089 460 1089 z "},"G":{"ha":1031,"x_min":21,"x_max":1018,"o":"m 536 740 q 452 717 489 740 q 390 656 415 693 q 352 574 365 619 q 339 488 339 529 q 347 419 339 454 q 374 357 356 385 q 420 312 392 329 q 488 294 449 294 q 536 299 501 294 q 607 312 571 303 q 671 335 643 321 q 699 368 699 349 q 693 383 699 379 q 676 386 688 386 q 639 381 657 386 q 604 367 621 375 q 572 354 588 360 q 540 349 556 349 q 499 365 515 349 q 473 406 483 382 q 458 455 463 429 q 454 499 454 481 q 490 592 454 556 q 578 648 526 628 q 688 676 631 668 q 789 683 746 683 q 824 681 804 683 q 865 673 844 679 q 906 654 886 667 q 943 621 926 642 q 974 566 960 599 q 997 496 988 533 q 1013 418 1007 458 q 1018 340 1018 378 q 975 160 1018 233 q 862 40 932 86 q 703 -26 792 -6 q 521 -46 614 -46 q 285 -5 381 -46 q 131 111 189 36 q 47 290 72 186 q 21 519 21 394 q 58 728 21 631 q 165 897 96 825 q 329 1012 233 969 q 542 1054 425 1054 q 651 1044 597 1054 q 749 1015 706 1035 q 801 985 775 1003 q 846 947 826 968 q 878 900 865 925 q 890 847 890 875 q 869 780 890 808 q 817 733 849 751 q 750 704 786 714 q 685 694 714 694 q 653 701 668 694 q 622 717 639 708 q 584 733 604 726 q 536 740 564 740 z "},"H":{"ha":1032,"x_min":10,"x_max":1015,"o":"m 251 1081 q 318 1074 286 1081 q 374 1050 350 1067 q 412 1007 397 1033 q 426 940 426 981 q 423 890 426 915 q 413 842 419 865 l 403 792 q 392 743 396 768 q 389 693 389 718 q 408 612 389 644 q 481 579 426 579 q 588 614 546 579 q 629 715 629 649 q 624 770 629 743 q 613 824 619 797 q 602 877 607 850 q 597 931 597 904 q 612 997 597 969 q 651 1040 626 1024 q 708 1064 676 1057 q 774 1071 740 1071 q 814 1068 793 1071 q 854 1058 835 1065 q 889 1037 874 1050 q 911 1004 904 1024 q 990 701 964 860 q 1015 389 1015 542 q 1005 197 1015 294 q 967 7 994 99 q 949 -24 961 -12 q 920 -43 936 -36 q 886 -53 904 -50 q 851 -56 868 -56 q 783 -48 822 -56 q 707 -24 743 -40 q 646 19 671 -7 q 621 81 621 44 q 626 129 621 106 q 640 176 632 153 q 653 224 647 200 q 658 274 658 249 q 638 335 658 314 q 578 357 618 357 q 529 350 554 357 q 483 329 504 343 q 449 295 463 315 q 436 247 436 275 q 442 201 436 224 q 456 155 449 178 q 469 108 463 132 q 475 61 475 85 q 453 7 475 29 q 401 -28 432 -15 q 338 -48 371 -42 q 279 -54 304 -54 q 206 -42 243 -54 q 153 7 169 -29 q 92 166 118 82 q 47 336 65 250 q 19 509 29 422 q 10 679 10 596 q 17 825 10 751 q 42 969 24 899 q 73 1022 50 1001 q 126 1056 96 1043 q 190 1075 157 1069 q 251 1081 224 1081 z "},"I":{"ha":585,"x_min":49,"x_max":546,"o":"m 64 1006 q 83 1044 67 1028 q 122 1072 99 1061 q 175 1089 146 1083 q 233 1094 204 1094 q 327 1078 285 1094 q 379 1026 369 1061 q 416 884 397 964 q 452 715 435 804 q 485 534 469 626 q 514 355 501 442 q 535 192 526 268 q 544 60 543 115 q 524 3 546 28 q 465 -40 501 -22 q 383 -66 429 -57 q 292 -75 338 -75 q 171 -54 225 -75 q 103 11 117 -33 q 81 126 90 53 q 64 290 71 199 q 53 482 57 381 q 49 681 49 583 q 52 863 49 778 q 64 1006 56 947 z "},"J":{"ha":989,"x_min":6,"x_max":965,"o":"m 153 1060 q 258 1054 206 1060 q 364 1042 311 1049 q 470 1029 417 1035 q 578 1024 524 1024 q 692 1039 636 1024 q 806 1054 747 1054 q 923 1013 881 1054 q 965 896 965 971 q 960 842 965 871 q 942 786 954 813 q 908 742 929 760 q 857 725 888 725 q 797 734 826 725 q 738 743 768 743 q 705 731 715 743 q 694 697 694 718 q 711 615 694 661 q 748 514 728 568 q 785 401 768 460 q 801 282 801 342 q 774 152 801 207 q 700 58 746 97 q 594 -5 654 19 q 470 -42 535 -29 q 341 -60 406 -56 q 222 -65 276 -65 q 80 -11 126 -65 q 33 143 33 43 q 40 203 33 171 q 60 263 46 235 q 98 310 75 292 q 154 329 121 329 q 196 324 175 329 q 237 313 217 319 q 278 302 257 307 q 319 297 299 297 q 369 315 350 297 q 399 358 389 332 q 413 414 410 385 q 417 467 417 443 q 410 543 417 497 q 388 631 404 589 q 345 703 372 674 q 278 733 318 733 q 201 721 238 733 q 124 708 164 708 q 68 725 90 708 q 32 767 46 742 q 12 824 18 793 q 6 881 6 854 q 14 949 6 917 q 40 1006 22 981 q 85 1045 57 1031 q 153 1060 114 1060 z "},"K":{"ha":911,"x_min":13,"x_max":900,"o":"m 190 1089 q 246 1083 214 1089 q 308 1066 278 1078 q 360 1034 339 1054 q 381 985 381 1014 q 372 933 381 958 q 355 883 364 908 q 338 834 346 858 q 329 785 329 810 q 367 749 329 749 q 415 772 393 749 q 458 828 438 794 q 498 903 478 863 q 539 977 518 943 q 584 1034 560 1011 q 638 1057 608 1057 q 705 1038 671 1057 q 766 991 739 1019 q 810 927 793 963 q 828 858 828 892 q 805 793 828 826 q 749 728 782 760 q 675 667 715 697 q 601 612 635 638 q 545 565 568 586 q 522 526 522 543 q 550 494 522 511 q 620 458 578 478 q 711 415 663 439 q 802 363 760 392 q 872 299 844 335 q 900 218 900 263 q 881 143 900 182 q 830 72 861 104 q 760 19 799 40 q 685 -1 722 -1 q 614 24 643 -1 q 561 86 585 49 q 517 168 538 124 q 475 250 497 213 q 424 313 453 288 q 356 338 396 338 q 325 311 325 338 q 341 256 325 289 q 376 185 357 222 q 410 110 394 149 q 426 40 426 72 q 401 -15 426 8 q 340 -52 375 -37 q 266 -73 304 -67 q 203 -79 228 -79 q 159 -76 182 -79 q 115 -64 136 -72 q 78 -41 94 -56 q 56 -3 63 -26 q 33 99 42 42 q 20 216 25 156 q 14 335 15 276 q 13 439 13 393 q 15 581 13 503 q 25 738 18 658 q 44 892 32 817 q 75 1029 56 968 q 122 1077 86 1065 q 190 1089 157 1089 z "},"L":{"ha":946,"x_min":10,"x_max":936,"o":"m 468 904 q 458 789 468 846 q 435 676 447 732 q 412 566 422 621 q 401 457 401 511 q 415 381 401 413 q 474 349 428 349 q 543 363 506 349 q 620 394 581 376 q 700 425 660 411 q 776 439 740 439 q 849 418 819 439 q 899 365 879 397 q 927 294 918 332 q 936 222 936 256 q 933 188 936 206 q 922 153 931 171 q 895 118 913 136 q 850 83 878 100 q 747 34 811 58 q 610 -10 683 10 q 460 -43 536 -31 q 321 -56 385 -56 q 213 -44 268 -56 q 121 4 157 -32 q 78 67 96 28 q 49 156 61 107 q 28 257 36 204 q 17 360 21 310 q 11 456 13 411 q 10 532 10 501 q 13 649 10 582 q 22 783 15 715 q 37 912 28 851 q 60 1010 46 972 q 92 1064 72 1043 q 133 1095 111 1085 q 176 1109 154 1106 q 217 1113 199 1113 q 285 1106 247 1113 q 360 1085 324 1100 q 424 1045 396 1069 q 461 985 451 1021 q 468 904 468 954 z "},"M":{"ha":1453,"x_min":13,"x_max":1413,"o":"m 475 1067 q 588 1043 544 1067 q 659 983 632 1019 q 699 906 686 947 q 721 829 713 865 q 737 769 729 793 q 761 746 744 746 q 789 769 778 746 q 813 828 800 793 q 844 904 826 863 q 889 981 861 946 q 958 1039 917 1015 q 1058 1063 999 1063 q 1185 1017 1131 1063 q 1279 901 1240 972 q 1344 739 1318 829 q 1385 559 1369 649 q 1406 389 1400 469 q 1413 256 1413 308 q 1405 110 1413 164 q 1370 30 1397 57 q 1289 -5 1343 3 q 1140 -12 1235 -12 q 1056 26 1086 -12 q 1010 120 1025 64 q 992 243 996 176 q 985 366 988 310 q 976 460 982 422 q 951 499 969 499 q 919 475 933 499 q 891 417 904 451 q 863 341 878 382 q 829 265 849 300 q 785 207 810 231 q 724 183 760 183 q 648 209 678 183 q 598 274 618 235 q 566 357 578 313 q 544 440 554 401 q 525 505 535 479 q 500 531 515 531 q 476 500 485 531 q 460 422 467 469 q 450 317 454 375 q 440 203 446 258 q 425 101 433 147 q 403 32 417 56 q 374 0 390 13 q 338 -19 357 -12 q 296 -29 318 -26 q 253 -32 274 -32 q 181 -25 222 -32 q 103 -2 140 -18 q 39 40 65 14 q 13 106 13 67 q 19 181 13 142 q 32 257 26 221 q 53 390 42 319 q 78 533 64 460 q 115 677 93 606 q 166 813 136 749 q 236 932 196 878 q 331 1024 276 986 q 399 1057 363 1047 q 475 1067 435 1067 z "},"N":{"ha":1036,"x_min":22,"x_max":1006,"o":"m 22 256 q 28 438 22 343 q 48 623 35 532 q 83 797 61 714 q 139 943 106 879 q 179 1003 158 981 q 222 1040 200 1026 q 267 1058 244 1053 q 311 1063 289 1063 q 376 1056 340 1063 q 433 1031 411 1050 q 471 968 453 1013 q 506 867 489 924 q 538 749 522 810 q 567 638 553 689 q 594 555 581 588 q 618 522 607 522 q 635 531 629 522 q 643 551 640 539 q 646 574 646 563 q 646 593 646 586 q 632 758 646 676 q 618 924 618 840 q 622 981 618 949 q 646 1031 626 1013 q 715 1063 672 1054 q 792 1072 758 1072 q 844 1068 817 1072 q 897 1053 872 1064 q 941 1026 922 1043 q 968 981 960 1008 q 999 802 992 896 q 1006 621 1006 708 q 1001 484 1006 565 q 985 318 996 403 q 955 156 974 233 q 908 29 936 78 q 796 -32 872 -32 q 674 -3 728 -32 q 580 67 621 25 q 509 160 539 110 q 458 252 479 210 q 421 323 436 294 q 393 351 406 351 q 369 336 374 351 q 364 307 364 321 q 369 251 364 279 q 380 196 374 224 q 391 140 386 168 q 396 85 396 113 q 391 40 396 61 q 368 4 386 19 q 327 -22 351 -11 q 276 -41 303 -33 q 222 -52 249 -49 q 172 -56 194 -56 q 131 -53 153 -56 q 90 -42 108 -50 q 57 -19 71 -33 q 39 18 43 -6 q 25 137 28 76 q 22 256 22 197 z "},"O":{"ha":1156,"x_min":32,"x_max":1128,"o":"m 1128 465 q 1089 258 1128 347 q 981 109 1050 169 q 815 18 911 49 q 604 -12 719 -12 q 384 27 488 -12 q 202 138 281 67 q 78 310 124 210 q 32 529 32 410 q 78 765 32 665 q 203 930 124 864 q 391 1028 283 996 q 622 1060 499 1060 q 786 1024 707 1060 q 930 930 865 989 q 1041 796 994 871 q 1107 642 1088 721 q 1128 465 1128 557 m 435 536 q 449 488 435 508 q 483 453 463 467 q 530 433 504 440 q 579 426 556 426 q 674 458 640 426 q 708 551 708 489 q 696 606 708 582 q 663 646 683 629 q 617 671 643 663 q 561 679 590 679 q 509 667 532 679 q 469 635 486 654 q 444 590 453 615 q 435 536 435 564 z "},"P":{"ha":993,"x_min":19,"x_max":961,"o":"m 961 628 q 940 467 961 544 q 878 328 918 389 q 785 230 839 267 q 667 193 732 193 q 570 201 606 193 q 513 219 535 210 q 478 236 490 228 q 450 244 465 244 q 398 225 419 244 q 376 157 376 206 q 383 90 376 124 q 389 24 389 57 q 372 -24 389 -4 q 328 -55 354 -43 q 272 -72 303 -67 q 214 -76 242 -76 q 119 -63 161 -76 q 60 -6 78 -50 q 38 85 46 28 q 26 204 31 142 q 21 326 22 267 q 19 424 19 385 q 21 509 19 458 q 26 617 22 560 q 38 736 31 675 q 54 853 44 797 q 78 954 64 908 q 111 1028 93 1000 q 157 1070 129 1054 q 217 1094 185 1086 q 283 1106 250 1103 q 346 1108 317 1108 q 590 1088 478 1108 q 785 1015 703 1068 q 914 868 867 961 q 961 628 961 775 m 408 638 q 414 601 408 621 q 430 563 419 581 q 457 534 440 546 q 494 522 474 522 q 542 527 515 522 q 590 545 568 532 q 628 583 613 558 q 643 649 643 608 q 629 685 643 669 q 596 710 615 700 q 553 724 576 719 q 514 729 531 729 q 437 710 465 729 q 408 638 408 690 z "},"Q":{"ha":1189,"x_min":26,"x_max":1186,"o":"m 1100 617 q 1085 489 1100 539 q 1051 406 1069 439 q 1016 355 1032 374 q 1000 319 1000 336 q 1029 281 1000 303 q 1093 234 1058 260 q 1157 178 1128 208 q 1186 113 1186 147 q 1163 46 1186 78 q 1106 -10 1140 14 q 1031 -49 1072 -35 q 954 -62 990 -62 q 897 -44 919 -62 q 858 -3 875 -25 q 828 38 842 19 q 796 57 815 57 q 753 42 771 57 q 704 7 735 26 q 620 -28 674 -12 q 469 -43 567 -43 q 288 3 369 -43 q 148 125 206 50 q 58 296 90 200 q 26 492 26 392 q 74 735 26 629 q 203 912 121 840 q 398 1020 286 983 q 638 1057 510 1057 q 810 1023 726 1057 q 958 930 893 989 q 1061 790 1022 871 q 1100 617 1100 710 m 351 517 q 362 428 351 471 q 394 352 372 385 q 451 299 417 319 q 535 279 486 279 q 550 279 540 279 q 569 281 560 279 q 587 288 579 283 q 594 299 594 292 q 578 324 594 308 q 542 356 561 339 q 506 392 522 374 q 489 428 489 411 q 503 481 489 456 q 542 526 518 507 q 597 557 567 546 q 658 568 628 568 q 699 556 681 568 q 734 530 718 544 q 765 503 750 515 q 793 490 779 490 q 808 496 804 490 q 813 510 811 501 q 813 528 814 518 q 811 547 811 539 q 792 627 811 592 q 744 688 774 663 q 674 726 714 713 q 593 739 635 739 q 419 683 486 739 q 351 517 351 628 z "},"R":{"ha":1051,"x_min":14,"x_max":1029,"o":"m 935 657 q 909 536 935 585 q 853 456 883 488 q 797 403 822 424 q 771 367 771 383 q 790 342 771 356 q 838 311 810 328 q 900 276 867 294 q 962 235 933 257 q 1010 188 990 213 q 1029 138 1029 164 q 1003 71 1029 99 q 940 25 978 43 q 861 -1 903 7 q 788 -8 819 -8 q 699 12 736 -8 q 633 63 661 32 q 583 129 606 93 q 538 196 561 165 q 489 247 515 226 q 426 267 463 267 q 397 257 406 267 q 389 232 389 247 q 402 197 389 219 q 431 146 415 174 q 459 89 446 118 q 472 33 472 60 q 449 -12 472 7 q 393 -42 425 -31 q 328 -60 361 -54 q 274 -65 294 -65 q 197 -53 232 -65 q 140 -1 161 -42 q 86 147 110 57 q 47 336 63 238 q 22 530 31 435 q 14 692 14 625 q 22 835 14 765 q 57 960 29 904 q 139 1049 85 1015 q 286 1082 193 1082 q 431 1075 356 1082 q 577 1049 506 1068 q 714 1000 649 1031 q 828 922 779 969 q 906 810 876 875 q 935 657 935 744 m 379 660 q 381 618 379 642 q 390 573 383 594 q 411 536 397 551 q 449 521 425 521 q 489 532 467 521 q 531 560 511 543 q 563 598 550 578 q 576 636 576 618 q 563 676 576 656 q 528 712 549 696 q 485 738 508 728 q 444 749 463 749 q 394 720 408 749 q 379 660 379 692 z "},"S":{"ha":1063,"x_min":19,"x_max":1033,"o":"m 1033 767 q 1016 693 1033 731 q 972 626 999 656 q 910 577 944 596 q 839 558 875 558 q 773 581 797 558 q 729 632 749 604 q 690 683 710 660 q 638 706 669 706 q 590 692 614 706 q 567 657 567 679 q 597 612 567 633 q 672 567 626 590 q 770 515 718 543 q 868 449 822 486 q 944 363 914 411 q 974 253 974 315 q 938 125 974 186 q 841 17 903 64 q 697 -59 779 -31 q 522 -87 615 -87 q 366 -66 443 -87 q 223 -3 289 -44 q 106 100 157 39 q 29 240 56 161 q 19 290 19 269 q 33 352 19 319 q 67 413 46 385 q 117 458 89 440 q 176 476 146 476 q 251 451 213 476 q 325 394 289 425 q 394 336 361 363 q 451 310 426 310 q 517 350 517 310 q 484 388 517 369 q 403 428 451 407 q 297 476 354 450 q 192 538 240 503 q 110 619 143 574 q 78 725 78 665 q 115 851 78 789 q 214 963 151 914 q 358 1043 276 1013 q 528 1074 439 1074 q 637 1063 579 1074 q 751 1031 694 1051 q 858 983 807 1011 q 949 922 910 956 q 1010 848 988 888 q 1033 767 1033 808 z "},"T":{"ha":1221,"x_min":21,"x_max":1203,"o":"m 597 1111 q 864 1088 726 1111 q 1119 1013 1001 1065 q 1160 982 1144 1001 q 1186 939 1176 963 q 1199 889 1196 915 q 1203 838 1203 863 q 1196 769 1203 813 q 1173 683 1189 725 q 1133 609 1157 640 q 1075 578 1108 578 q 1011 594 1046 578 q 941 629 976 610 q 873 665 906 649 q 814 681 840 681 q 784 669 796 681 q 767 640 772 657 q 759 605 761 624 q 757 572 757 586 q 778 451 757 510 q 826 334 800 392 q 873 218 851 276 q 894 97 894 160 q 870 3 894 42 q 806 -60 846 -36 q 719 -95 767 -85 q 622 -106 671 -106 q 522 -94 572 -106 q 432 -58 472 -83 q 367 7 392 -33 q 342 106 342 47 q 360 222 342 165 q 401 336 379 279 q 442 451 424 393 q 461 568 461 508 q 458 610 461 589 q 447 649 456 632 q 424 678 439 667 q 382 689 408 689 q 326 683 354 689 q 272 668 299 676 q 217 653 244 660 q 160 647 189 647 q 94 673 121 647 q 51 736 68 699 q 28 815 35 774 q 21 888 21 857 q 24 930 21 908 q 35 972 26 951 q 57 1007 43 992 q 93 1031 71 1022 q 342 1092 210 1074 q 597 1111 474 1111 z "},"U":{"ha":1139,"x_min":28,"x_max":1111,"o":"m 301 1122 q 410 1108 361 1122 q 495 1065 460 1094 q 550 988 531 1035 q 569 878 569 942 q 558 771 569 824 q 531 665 546 718 q 504 559 517 613 q 492 450 492 506 q 493 410 492 432 q 501 370 494 389 q 522 339 507 351 q 563 326 536 326 q 616 343 593 326 q 655 386 639 360 q 679 446 671 413 q 688 513 688 479 q 676 601 688 557 q 650 688 664 644 q 624 774 636 732 q 613 854 613 815 q 638 946 613 910 q 699 1003 663 982 q 780 1032 736 1024 q 861 1040 824 1040 q 999 1008 949 1040 q 1074 922 1049 975 q 1105 800 1099 868 q 1111 663 1111 732 q 1099 476 1111 568 q 1069 321 1086 383 q 989 144 1042 215 q 866 31 936 74 q 713 -29 796 -11 q 539 -47 629 -47 q 391 -33 465 -47 q 253 20 317 -19 q 140 132 189 60 q 67 319 92 204 q 53 397 60 351 q 40 498 46 442 q 31 618 35 554 q 28 750 28 682 q 35 888 28 821 q 71 1006 43 954 q 153 1090 99 1058 q 301 1122 207 1122 z "},"V":{"ha":1168,"x_min":22,"x_max":1143,"o":"m 190 1118 q 249 1113 218 1118 q 308 1096 281 1108 q 359 1064 336 1083 q 393 1015 382 1044 q 411 950 404 985 q 425 883 418 915 q 445 771 436 829 q 465 653 454 713 q 489 535 475 593 q 524 428 503 478 q 533 408 526 421 q 550 394 539 394 q 565 403 558 394 q 577 424 572 413 q 585 448 582 436 q 590 464 589 460 q 627 595 608 526 q 665 733 646 664 q 703 869 683 801 q 740 1000 722 938 q 772 1057 750 1032 q 822 1099 793 1082 q 882 1126 850 1117 q 944 1136 914 1136 q 1002 1130 968 1136 q 1067 1110 1036 1124 q 1121 1076 1099 1097 q 1143 1025 1143 1054 q 1128 878 1143 963 q 1088 697 1114 793 q 1024 502 1061 601 q 944 310 988 403 q 852 138 901 217 q 751 4 803 58 q 654 -56 711 -39 q 539 -74 597 -74 q 464 -67 503 -74 q 389 -47 425 -61 q 322 -12 353 -33 q 268 40 290 10 q 161 225 207 125 q 84 432 115 325 q 38 649 53 539 q 22 863 22 758 q 29 963 22 917 q 54 1044 36 1010 q 106 1098 72 1078 q 190 1118 139 1118 z "},"W":{"ha":1340,"x_min":19,"x_max":1319,"o":"m 1319 974 q 1317 858 1319 926 q 1306 711 1314 790 q 1285 547 1299 632 q 1251 381 1272 463 q 1199 225 1229 299 q 1126 97 1168 151 q 1029 9 1083 42 q 906 -24 975 -24 q 832 -13 865 -24 q 775 17 799 -3 q 728 78 746 39 q 698 156 711 118 q 674 223 685 194 q 647 251 663 251 q 618 221 632 251 q 587 149 604 190 q 548 66 569 108 q 494 0 526 24 q 444 -24 476 -14 q 371 -33 411 -33 q 308 -26 340 -33 q 247 -3 276 -19 q 190 38 217 13 q 144 103 164 64 q 81 288 107 181 q 40 517 54 396 q 22 764 25 638 q 28 1004 19 890 q 44 1043 29 1026 q 82 1072 58 1060 q 135 1089 106 1083 q 194 1094 164 1094 q 292 1079 246 1094 q 358 1033 339 1064 q 397 947 382 997 q 419 840 411 896 q 433 730 428 785 q 442 632 438 675 q 451 562 446 589 q 468 535 457 535 q 491 554 479 535 q 517 603 503 574 q 547 667 531 633 q 583 731 564 701 q 628 781 603 761 q 682 800 653 800 q 733 778 713 800 q 769 723 754 756 q 797 651 785 690 q 819 580 808 613 q 842 525 831 547 q 871 503 854 503 q 891 535 888 503 q 894 619 894 568 q 892 734 893 671 q 896 858 890 797 q 919 969 901 918 q 972 1049 936 1021 q 1032 1076 996 1068 q 1108 1085 1068 1085 q 1184 1077 1146 1085 q 1252 1055 1222 1069 q 1301 1020 1282 1040 q 1319 974 1319 1000 z "},"X":{"ha":1063,"x_min":14,"x_max":1047,"o":"m 239 1040 q 290 1023 264 1040 q 340 979 315 1006 q 388 922 365 953 q 431 865 411 892 q 468 822 451 839 q 496 804 485 804 q 524 823 507 804 q 560 869 540 842 q 603 928 581 896 q 651 988 626 961 q 700 1034 675 1015 q 750 1053 725 1053 q 838 1037 796 1053 q 912 992 879 1021 q 964 923 944 963 q 983 838 983 883 q 965 789 983 815 q 917 735 946 763 q 856 683 889 708 q 794 635 822 657 q 747 598 765 614 q 728 575 728 582 q 751 556 728 568 q 810 526 775 543 q 888 485 846 508 q 965 434 929 463 q 1024 372 1000 406 q 1047 297 1047 338 q 1024 199 1047 250 q 967 106 1001 149 q 890 37 932 64 q 811 10 849 10 q 743 33 772 10 q 690 92 714 57 q 647 168 667 126 q 611 244 628 210 q 578 303 594 279 q 542 326 561 326 q 504 303 522 326 q 467 246 486 281 q 426 172 447 211 q 379 97 404 132 q 324 40 354 63 q 256 17 293 17 q 169 37 213 17 q 92 89 126 57 q 35 163 57 121 q 14 249 14 206 q 35 321 14 288 q 90 383 57 354 q 160 437 122 413 q 231 481 199 461 q 285 515 264 500 q 307 539 307 529 q 287 565 307 549 q 237 601 267 581 q 172 646 207 621 q 106 698 136 671 q 56 755 76 725 q 36 815 36 785 q 53 891 36 851 q 100 964 71 931 q 165 1019 129 997 q 239 1040 201 1040 z "},"Y":{"ha":847,"x_min":4,"x_max":847,"o":"m 421 758 q 441 779 432 758 q 461 832 450 800 q 486 900 472 864 q 520 968 500 936 q 569 1021 540 1000 q 636 1042 597 1042 q 709 1030 672 1042 q 777 996 746 1018 q 828 940 808 974 q 847 863 847 907 q 829 775 847 819 q 783 686 811 731 q 724 600 756 642 q 664 522 692 558 q 618 454 636 485 q 600 403 600 424 q 619 323 600 354 q 660 264 638 292 q 702 206 683 236 q 721 129 721 176 q 699 51 721 85 q 644 -4 678 18 q 571 -37 611 -26 q 492 -49 531 -49 q 413 -40 457 -49 q 329 -10 368 -31 q 264 44 290 11 q 238 128 238 78 q 249 188 238 161 q 274 242 261 215 q 299 297 288 268 q 311 363 311 326 q 288 423 311 388 q 231 501 265 458 q 158 592 197 544 q 84 688 118 640 q 27 783 50 736 q 4 872 4 831 q 24 947 4 913 q 72 1007 43 981 q 137 1048 101 1033 q 203 1063 172 1063 q 272 1040 243 1063 q 321 984 300 1018 q 356 910 342 950 q 381 837 371 871 q 401 781 392 803 q 421 758 410 758 z "},"Z":{"ha":1022,"x_min":17,"x_max":1013,"o":"m 564 -62 q 453 -58 513 -62 q 335 -43 393 -53 q 224 -19 276 -33 q 131 13 171 -6 q 46 78 69 40 q 22 175 22 117 q 51 299 22 249 q 122 388 79 350 q 215 456 165 426 q 308 516 265 486 q 380 581 351 546 q 408 664 408 615 q 400 699 408 689 q 372 708 392 708 q 317 697 347 708 q 253 670 286 685 q 189 644 221 656 q 129 632 157 632 q 72 653 94 632 q 38 703 50 674 q 21 765 25 732 q 17 822 17 797 q 55 967 17 914 q 153 1048 93 1021 q 288 1083 214 1075 q 433 1090 361 1090 q 539 1085 483 1090 q 649 1072 594 1081 q 752 1049 703 1063 q 840 1019 801 1036 q 937 948 908 990 q 965 836 965 906 q 942 722 965 769 q 883 638 919 674 q 802 572 847 601 q 712 514 757 543 q 626 451 667 485 q 558 369 585 417 q 553 357 556 363 q 550 346 550 351 q 564 336 550 336 q 627 351 588 336 q 710 385 667 367 q 797 419 754 404 q 872 435 840 435 q 941 407 914 435 q 984 341 968 379 q 1006 260 1000 303 q 1013 189 1013 218 q 1008 138 1013 165 q 990 83 1003 110 q 953 33 976 57 q 890 -10 929 8 q 823 -33 861 -22 q 741 -49 785 -43 q 652 -59 697 -56 q 564 -62 607 -62 z "},"[":{"ha":497,"x_min":24,"x_max":475,"o":"m 475 997 q 465 953 475 972 q 428 935 456 935 q 400 941 413 935 q 377 954 388 947 q 357 967 367 961 q 339 974 347 974 q 326 967 329 974 q 319 953 322 960 q 297 856 306 907 q 285 753 289 806 q 280 650 281 701 q 279 551 279 599 q 284 355 279 457 q 311 161 289 253 q 315 147 313 154 q 326 140 318 140 q 347 149 336 140 q 369 169 357 158 q 395 188 381 179 q 428 196 410 196 q 453 186 444 196 q 467 163 463 176 q 474 135 472 150 q 475 107 475 119 q 471 67 475 92 q 451 36 467 43 q 398 17 431 26 q 330 -1 365 7 q 260 -15 294 -10 q 203 -19 226 -19 q 144 -10 172 -19 q 104 32 115 0 q 42 293 60 157 q 24 561 24 429 q 40 820 24 688 q 97 1074 57 953 q 136 1115 108 1106 q 194 1124 164 1124 q 253 1119 222 1124 q 317 1109 285 1115 q 380 1094 349 1103 q 436 1078 411 1086 q 467 1044 460 1069 q 475 997 475 1018 z "},"\\":{"ha":789,"x_min":8,"x_max":771,"o":"m 193 1103 q 238 1098 217 1103 q 276 1075 260 1093 q 358 960 313 1038 q 451 784 403 883 q 549 573 500 685 q 640 356 597 461 q 716 161 682 251 q 768 15 750 71 q 771 1 771 7 q 748 -45 771 -25 q 693 -79 725 -65 q 628 -100 661 -93 q 574 -107 594 -107 q 524 -98 544 -107 q 490 -73 504 -89 q 463 -37 475 -57 q 438 6 451 -17 q 354 147 397 68 q 269 313 311 225 q 186 493 226 400 q 113 677 146 586 q 53 853 79 768 q 13 1013 26 939 q 29 1053 8 1036 q 81 1081 50 1069 q 144 1097 111 1092 q 193 1103 176 1103 z "},"]":{"ha":492,"x_min":14,"x_max":465,"o":"m 14 107 q 24 151 14 132 q 61 169 33 169 q 89 163 76 169 q 112 150 101 157 q 132 137 122 143 q 150 131 142 131 q 163 138 160 131 q 169 151 167 144 q 192 248 183 197 q 204 351 200 299 q 209 454 208 403 q 210 553 210 506 q 205 749 210 647 q 178 943 200 851 q 174 957 176 950 q 163 964 171 964 q 142 956 153 964 q 120 937 132 947 q 94 917 108 926 q 61 908 79 908 q 35 918 44 908 q 22 941 26 928 q 15 969 17 954 q 14 997 14 985 q 18 1037 14 1013 q 38 1068 22 1061 q 92 1088 58 1078 q 160 1106 125 1097 q 229 1119 196 1114 q 286 1124 263 1124 q 345 1114 317 1124 q 385 1072 374 1104 q 447 811 429 947 q 465 543 465 675 q 449 284 465 417 q 392 31 432 151 q 353 -10 381 -1 q 294 -19 325 -19 q 236 -15 268 -19 q 172 -5 204 -11 q 109 10 140 1 q 53 26 78 18 q 22 60 29 35 q 14 107 14 86 z "},"^":{"ha":747,"x_min":50,"x_max":700,"o":"m 700 703 q 685 666 700 682 q 647 638 669 650 q 601 621 625 626 q 561 615 578 615 q 509 626 538 615 q 465 657 481 636 q 440 713 449 681 q 423 775 431 746 q 406 824 415 804 q 381 844 397 844 q 355 821 364 844 q 336 764 346 797 q 313 694 326 731 q 276 635 300 658 q 231 603 256 614 q 182 593 206 593 q 144 599 167 593 q 100 617 121 606 q 65 645 79 629 q 50 679 50 661 q 63 767 50 718 q 99 867 76 815 q 152 967 121 918 q 220 1055 183 1017 q 297 1117 257 1093 q 378 1140 338 1140 q 458 1117 418 1140 q 533 1058 497 1094 q 599 974 568 1021 q 653 879 631 928 q 688 784 675 831 q 700 703 700 738 z "},"_":{"ha":740,"x_min":40,"x_max":696,"o":"m 40 -83 q 49 -33 40 -60 q 85 4 57 -7 q 177 35 125 21 q 285 58 229 49 q 394 73 340 68 q 494 78 449 78 q 590 72 551 78 q 651 50 628 67 q 685 3 675 33 q 696 -78 696 -28 q 694 -101 696 -87 q 689 -127 693 -114 q 678 -151 685 -140 q 658 -167 671 -161 q 508 -206 592 -194 q 350 -218 424 -218 q 228 -212 292 -218 q 108 -193 165 -207 q 76 -176 89 -189 q 55 -148 63 -164 q 44 -115 47 -132 q 40 -83 40 -99 z "},"`":{"ha":539,"x_min":61,"x_max":497,"o":"m 482 861 q 411 839 451 839 q 332 855 374 839 q 253 894 290 871 q 185 940 215 917 q 139 979 154 964 q 98 1022 118 1000 q 69 1069 78 1044 q 69 1119 61 1093 q 111 1171 76 1144 q 197 1206 157 1206 q 272 1172 239 1206 q 319 1109 300 1144 q 368 1046 339 1074 q 399 1017 383 1031 q 431 989 415 1004 q 458 959 443 976 q 483 924 474 942 q 495 889 493 906 q 482 861 497 872 z "},"a":{"ha":1142,"x_min":-19,"x_max":1156,"o":"m 1156 63 q 1133 12 1156 31 q 1081 -17 1111 -7 q 1018 -29 1050 -26 q 965 -32 986 -32 q 910 -30 942 -32 q 844 -23 878 -28 q 781 -11 811 -18 q 731 7 751 -4 q 700 36 707 19 q 693 81 693 53 q 699 145 693 114 q 704 207 704 176 q 607 310 704 310 q 567 306 589 310 q 524 295 544 301 q 484 281 503 289 q 451 263 465 272 q 416 225 428 246 q 400 181 404 204 q 397 135 396 158 q 397 89 397 111 q 364 -35 397 -1 q 257 -69 331 -69 q 174 -62 222 -69 q 83 -40 126 -56 q 10 -1 40 -25 q -19 57 -19 22 q 40 312 0 185 q 135 555 81 439 q 252 770 189 671 q 382 940 315 869 q 449 1005 418 981 q 505 1042 479 1029 q 554 1060 531 1056 q 600 1065 578 1065 q 742 1010 675 1065 q 865 866 808 954 q 970 669 922 778 q 1054 453 1018 560 q 1114 253 1090 346 q 1149 103 1138 160 q 1154 69 1154 81 q 1156 63 1156 64 m 453 558 q 465 524 453 538 q 493 501 476 510 q 529 488 510 492 q 563 485 549 485 q 597 488 576 485 q 635 500 617 492 q 665 522 653 508 q 678 557 678 536 q 667 597 678 575 q 640 637 657 618 q 602 668 624 656 q 560 681 581 681 q 519 668 539 681 q 485 638 500 656 q 462 598 471 619 q 453 558 453 576 z "},"b":{"ha":967,"x_min":19,"x_max":946,"o":"m 854 757 q 831 652 854 697 q 756 578 808 607 q 731 567 750 574 q 690 552 711 560 q 653 538 669 544 q 636 526 636 531 q 656 514 636 521 q 700 500 675 507 q 749 488 725 493 q 779 479 772 482 q 898 408 850 456 q 946 279 946 361 q 942 230 946 257 q 928 173 939 203 q 899 112 918 143 q 851 51 881 81 q 741 -11 814 13 q 587 -48 668 -35 q 426 -65 506 -61 q 297 -69 347 -69 q 233 -67 264 -69 q 175 -53 201 -64 q 126 -23 149 -43 q 88 31 104 -3 q 53 127 67 72 q 33 240 40 182 q 22 353 25 297 q 19 457 19 410 q 21 557 19 504 q 26 663 22 610 q 36 769 29 717 q 53 868 43 822 q 104 967 67 928 q 192 1028 142 1006 q 299 1058 242 1050 q 410 1067 357 1067 q 564 1053 485 1067 q 708 1003 643 1039 q 813 908 772 968 q 854 757 854 849 m 415 626 q 456 634 436 626 q 492 656 476 642 q 518 688 508 669 q 528 728 528 707 q 518 767 528 749 q 492 800 508 786 q 456 822 476 814 q 415 829 436 829 q 380 820 394 829 q 356 797 365 811 q 342 764 346 782 q 338 728 338 746 q 342 692 338 710 q 356 659 346 674 q 380 635 365 644 q 415 626 394 626 m 428 196 q 465 203 444 196 q 503 222 486 210 q 533 250 521 233 q 544 286 544 267 q 532 326 544 306 q 501 361 519 346 q 460 386 482 376 q 419 396 439 396 q 389 386 401 396 q 369 362 376 376 q 358 331 361 347 q 354 299 354 314 q 358 264 354 282 q 371 231 363 246 q 393 206 379 215 q 428 196 407 196 z "},"c":{"ha":974,"x_min":15,"x_max":965,"o":"m 683 1065 q 849 1006 794 1065 q 904 838 904 946 q 897 781 904 817 q 874 712 890 746 q 829 652 857 678 q 760 626 801 626 q 699 647 721 626 q 658 692 678 667 q 612 737 638 717 q 540 757 586 757 q 469 740 503 757 q 408 692 435 722 q 367 618 382 661 q 351 522 351 575 q 364 437 351 479 q 401 362 376 394 q 463 309 426 329 q 546 289 499 289 q 630 313 596 289 q 691 367 664 338 q 742 422 718 397 q 794 446 765 446 q 862 413 831 446 q 916 335 893 381 q 952 242 939 289 q 965 165 965 194 q 935 65 965 104 q 858 2 904 25 q 756 -30 811 -21 q 653 -39 701 -39 q 380 -12 499 -39 q 180 77 261 14 q 57 245 99 140 q 15 507 15 350 q 62 770 15 664 q 195 942 108 876 q 406 1037 282 1008 q 683 1065 529 1065 z "},"d":{"ha":975,"x_min":22,"x_max":958,"o":"m 958 415 q 926 250 958 324 q 840 120 894 176 q 712 24 785 64 q 558 -42 639 -17 q 392 -80 476 -68 q 228 -92 307 -92 q 131 -74 172 -92 q 72 3 89 -56 q 49 126 58 56 q 33 272 39 197 q 24 419 26 347 q 22 546 22 490 q 24 649 22 594 q 31 760 26 704 q 46 871 36 817 q 72 971 56 925 q 107 1025 85 1004 q 158 1058 129 1046 q 220 1073 188 1069 q 285 1076 253 1076 q 435 1063 360 1076 q 583 1033 510 1050 q 756 947 676 1011 q 875 794 835 882 q 936 609 914 707 q 958 415 958 511 m 369 524 q 370 478 369 510 q 376 415 371 447 q 392 360 381 383 q 425 336 404 336 q 465 345 443 336 q 509 367 488 354 q 549 396 531 381 q 578 425 567 411 q 594 456 589 439 q 599 492 599 472 q 584 556 599 522 q 545 619 569 590 q 490 666 521 647 q 426 685 458 685 q 394 665 406 685 q 376 619 382 646 q 370 565 371 592 q 369 524 369 539 z "},"e":{"ha":919,"x_min":42,"x_max":918,"o":"m 476 1101 q 549 1099 508 1101 q 632 1089 590 1096 q 713 1072 674 1082 q 781 1046 751 1061 q 814 1022 801 1035 q 833 995 826 1010 q 840 963 839 981 q 842 922 842 944 q 812 796 842 839 q 734 733 782 753 q 624 712 686 714 q 497 710 563 710 q 465 709 483 710 q 429 703 446 708 q 401 686 413 697 q 390 656 390 675 q 410 624 390 629 q 451 618 431 618 q 532 624 492 618 q 613 629 572 629 q 704 600 672 629 q 736 510 736 571 q 729 453 736 481 q 706 403 722 425 q 667 369 690 382 q 610 357 643 357 q 546 363 578 357 q 482 368 514 368 q 463 367 475 368 q 440 364 451 367 q 422 356 429 361 q 414 339 414 350 q 437 290 414 301 q 492 279 460 279 q 611 290 553 279 q 732 301 669 301 q 808 276 774 301 q 867 215 842 251 q 905 135 892 178 q 918 56 918 92 q 891 9 918 29 q 822 -26 864 -11 q 729 -51 781 -40 q 629 -67 678 -61 q 540 -76 581 -74 q 481 -79 500 -79 q 394 -76 442 -79 q 299 -65 347 -74 q 207 -41 251 -57 q 128 1 163 -25 q 74 66 94 28 q 53 157 53 104 q 49 413 53 286 q 46 668 46 539 q 44 743 46 690 q 47 855 42 796 q 68 965 51 914 q 121 1035 85 1017 q 203 1065 157 1053 q 298 1086 250 1078 q 392 1098 346 1094 q 476 1101 439 1101 z "},"f":{"ha":863,"x_min":32,"x_max":865,"o":"m 490 1089 q 569 1086 526 1089 q 653 1077 611 1083 q 737 1060 696 1071 q 810 1031 778 1049 q 853 980 842 1013 q 865 911 865 947 q 855 835 865 876 q 824 758 844 793 q 772 699 803 722 q 699 675 740 675 q 628 685 663 675 q 559 708 593 696 q 490 731 525 721 q 418 742 454 742 q 372 728 385 742 q 360 679 360 715 q 373 635 360 646 q 418 624 386 624 q 463 628 442 624 q 508 640 485 633 l 551 654 q 597 666 575 661 q 642 671 618 671 q 688 660 669 671 q 719 630 707 649 q 736 588 731 611 q 742 540 742 564 q 733 481 742 518 q 709 410 725 444 q 670 351 693 376 q 618 326 647 326 q 569 337 594 326 q 517 360 543 347 q 467 384 492 374 q 421 394 442 394 q 382 372 393 394 q 371 325 371 349 q 385 259 371 293 q 415 190 399 225 q 446 122 432 156 q 460 57 460 89 q 438 0 460 24 q 383 -38 415 -24 q 316 -60 351 -53 q 254 -67 281 -67 q 155 -51 206 -67 q 72 4 104 -36 q 49 66 57 24 q 37 156 40 108 q 33 249 33 204 q 32 318 32 293 q 38 536 32 428 q 43 754 43 644 q 48 822 43 778 q 63 913 53 867 q 91 997 74 958 q 133 1044 108 1035 q 209 1065 161 1057 q 309 1078 257 1074 q 410 1086 361 1083 q 490 1089 460 1089 z "},"g":{"ha":1031,"x_min":21,"x_max":1018,"o":"m 536 740 q 452 717 489 740 q 390 656 415 693 q 352 574 365 619 q 339 488 339 529 q 347 419 339 454 q 374 357 356 385 q 420 312 392 329 q 488 294 449 294 q 536 299 501 294 q 607 312 571 303 q 671 335 643 321 q 699 368 699 349 q 693 383 699 379 q 676 386 688 386 q 639 381 657 386 q 604 367 621 375 q 572 354 588 360 q 540 349 556 349 q 499 365 515 349 q 473 406 483 382 q 458 455 463 429 q 454 499 454 481 q 490 592 454 556 q 578 648 526 628 q 688 676 631 668 q 789 683 746 683 q 824 681 804 683 q 865 673 844 679 q 906 654 886 667 q 943 621 926 642 q 974 566 960 599 q 997 496 988 533 q 1013 418 1007 458 q 1018 340 1018 378 q 975 160 1018 233 q 862 40 932 86 q 703 -26 792 -6 q 521 -46 614 -46 q 285 -5 381 -46 q 131 111 189 36 q 47 290 72 186 q 21 519 21 394 q 58 728 21 631 q 165 897 96 825 q 329 1012 233 969 q 542 1054 425 1054 q 651 1044 597 1054 q 749 1015 706 1035 q 801 985 775 1003 q 846 947 826 968 q 878 900 865 925 q 890 847 890 875 q 869 780 890 808 q 817 733 849 751 q 750 704 786 714 q 685 694 714 694 q 653 701 668 694 q 622 717 639 708 q 584 733 604 726 q 536 740 564 740 z "},"h":{"ha":1032,"x_min":10,"x_max":1015,"o":"m 251 1081 q 318 1074 286 1081 q 374 1050 350 1067 q 412 1007 397 1033 q 426 940 426 981 q 423 890 426 915 q 413 842 419 865 l 403 792 q 392 743 396 768 q 389 693 389 718 q 408 612 389 644 q 481 579 426 579 q 588 614 546 579 q 629 715 629 649 q 624 770 629 743 q 613 824 619 797 q 602 877 607 850 q 597 931 597 904 q 612 997 597 969 q 651 1040 626 1024 q 708 1064 676 1057 q 774 1071 740 1071 q 814 1068 793 1071 q 854 1058 835 1065 q 889 1037 874 1050 q 911 1004 904 1024 q 990 701 964 860 q 1015 389 1015 542 q 1005 197 1015 294 q 967 7 994 99 q 949 -24 961 -12 q 920 -43 936 -36 q 886 -53 904 -50 q 851 -56 868 -56 q 783 -48 822 -56 q 707 -24 743 -40 q 646 19 671 -7 q 621 81 621 44 q 626 129 621 106 q 640 176 632 153 q 653 224 647 200 q 658 274 658 249 q 638 335 658 314 q 578 357 618 357 q 529 350 554 357 q 483 329 504 343 q 449 295 463 315 q 436 247 436 275 q 442 201 436 224 q 456 155 449 178 q 469 108 463 132 q 475 61 475 85 q 453 7 475 29 q 401 -28 432 -15 q 338 -48 371 -42 q 279 -54 304 -54 q 206 -42 243 -54 q 153 7 169 -29 q 92 166 118 82 q 47 336 65 250 q 19 509 29 422 q 10 679 10 596 q 17 825 10 751 q 42 969 24 899 q 73 1022 50 1001 q 126 1056 96 1043 q 190 1075 157 1069 q 251 1081 224 1081 z "},"i":{"ha":585,"x_min":49,"x_max":546,"o":"m 64 1006 q 83 1044 67 1028 q 122 1072 99 1061 q 175 1089 146 1083 q 233 1094 204 1094 q 327 1078 285 1094 q 379 1026 369 1061 q 416 884 397 964 q 452 715 435 804 q 485 534 469 626 q 514 355 501 442 q 535 192 526 268 q 544 60 543 115 q 524 3 546 28 q 465 -40 501 -22 q 383 -66 429 -57 q 292 -75 338 -75 q 171 -54 225 -75 q 103 11 117 -33 q 81 126 90 53 q 64 290 71 199 q 53 482 57 381 q 49 681 49 583 q 52 863 49 778 q 64 1006 56 947 z "},"j":{"ha":989,"x_min":6,"x_max":965,"o":"m 153 1060 q 258 1054 206 1060 q 364 1042 311 1049 q 470 1029 417 1035 q 578 1024 524 1024 q 692 1039 636 1024 q 806 1054 747 1054 q 923 1013 881 1054 q 965 896 965 971 q 960 842 965 871 q 942 786 954 813 q 908 742 929 760 q 857 725 888 725 q 797 734 826 725 q 738 743 768 743 q 705 731 715 743 q 694 697 694 718 q 711 615 694 661 q 748 514 728 568 q 785 401 768 460 q 801 282 801 342 q 774 152 801 207 q 700 58 746 97 q 594 -5 654 19 q 470 -42 535 -29 q 341 -60 406 -56 q 222 -65 276 -65 q 80 -11 126 -65 q 33 143 33 43 q 40 203 33 171 q 60 263 46 235 q 98 310 75 292 q 154 329 121 329 q 196 324 175 329 q 237 313 217 319 q 278 302 257 307 q 319 297 299 297 q 369 315 350 297 q 399 358 389 332 q 413 414 410 385 q 417 467 417 443 q 410 543 417 497 q 388 631 404 589 q 345 703 372 674 q 278 733 318 733 q 201 721 238 733 q 124 708 164 708 q 68 725 90 708 q 32 767 46 742 q 12 824 18 793 q 6 881 6 854 q 14 949 6 917 q 40 1006 22 981 q 85 1045 57 1031 q 153 1060 114 1060 z "},"k":{"ha":911,"x_min":13,"x_max":900,"o":"m 190 1089 q 246 1083 214 1089 q 308 1066 278 1078 q 360 1034 339 1054 q 381 985 381 1014 q 372 933 381 958 q 355 883 364 908 q 338 834 346 858 q 329 785 329 810 q 367 749 329 749 q 415 772 393 749 q 458 828 438 794 q 498 903 478 863 q 539 977 518 943 q 584 1034 560 1011 q 638 1057 608 1057 q 705 1038 671 1057 q 766 991 739 1019 q 810 927 793 963 q 828 858 828 892 q 805 793 828 826 q 749 728 782 760 q 675 667 715 697 q 601 612 635 638 q 545 565 568 586 q 522 526 522 543 q 550 494 522 511 q 620 458 578 478 q 711 415 663 439 q 802 363 760 392 q 872 299 844 335 q 900 218 900 263 q 881 143 900 182 q 830 72 861 104 q 760 19 799 40 q 685 -1 722 -1 q 614 24 643 -1 q 561 86 585 49 q 517 168 538 124 q 475 250 497 213 q 424 313 453 288 q 356 338 396 338 q 325 311 325 338 q 341 256 325 289 q 376 185 357 222 q 410 110 394 149 q 426 40 426 72 q 401 -15 426 8 q 340 -52 375 -37 q 266 -73 304 -67 q 203 -79 228 -79 q 159 -76 182 -79 q 115 -64 136 -72 q 78 -41 94 -56 q 56 -3 63 -26 q 33 99 42 42 q 20 216 25 156 q 14 335 15 276 q 13 439 13 393 q 15 581 13 503 q 25 738 18 658 q 44 892 32 817 q 75 1029 56 968 q 122 1077 86 1065 q 190 1089 157 1089 z "},"l":{"ha":946,"x_min":10,"x_max":936,"o":"m 468 904 q 458 789 468 846 q 435 676 447 732 q 412 566 422 621 q 401 457 401 511 q 415 381 401 413 q 474 349 428 349 q 543 363 506 349 q 620 394 581 376 q 700 425 660 411 q 776 439 740 439 q 849 418 819 439 q 899 365 879 397 q 927 294 918 332 q 936 222 936 256 q 933 188 936 206 q 922 153 931 171 q 895 118 913 136 q 850 83 878 100 q 747 34 811 58 q 610 -10 683 10 q 460 -43 536 -31 q 321 -56 385 -56 q 213 -44 268 -56 q 121 4 157 -32 q 78 67 96 28 q 49 156 61 107 q 28 257 36 204 q 17 360 21 310 q 11 456 13 411 q 10 532 10 501 q 13 649 10 582 q 22 783 15 715 q 37 912 28 851 q 60 1010 46 972 q 92 1064 72 1043 q 133 1095 111 1085 q 176 1109 154 1106 q 217 1113 199 1113 q 285 1106 247 1113 q 360 1085 324 1100 q 424 1045 396 1069 q 461 985 451 1021 q 468 904 468 954 z "},"m":{"ha":1453,"x_min":13,"x_max":1413,"o":"m 475 1067 q 588 1043 544 1067 q 659 983 632 1019 q 699 906 686 947 q 721 829 713 865 q 737 769 729 793 q 761 746 744 746 q 789 769 778 746 q 813 828 800 793 q 844 904 826 863 q 889 981 861 946 q 958 1039 917 1015 q 1058 1063 999 1063 q 1185 1017 1131 1063 q 1279 901 1240 972 q 1344 739 1318 829 q 1385 559 1369 649 q 1406 389 1400 469 q 1413 256 1413 308 q 1405 110 1413 164 q 1370 30 1397 57 q 1289 -5 1343 3 q 1140 -12 1235 -12 q 1056 26 1086 -12 q 1010 120 1025 64 q 992 243 996 176 q 985 366 988 310 q 976 460 982 422 q 951 499 969 499 q 919 475 933 499 q 891 417 904 451 q 863 341 878 382 q 829 265 849 300 q 785 207 810 231 q 724 183 760 183 q 648 209 678 183 q 598 274 618 235 q 566 357 578 313 q 544 440 554 401 q 525 505 535 479 q 500 531 515 531 q 476 500 485 531 q 460 422 467 469 q 450 317 454 375 q 440 203 446 258 q 425 101 433 147 q 403 32 417 56 q 374 0 390 13 q 338 -19 357 -12 q 296 -29 318 -26 q 253 -32 274 -32 q 181 -25 222 -32 q 103 -2 140 -18 q 39 40 65 14 q 13 106 13 67 q 19 181 13 142 q 32 257 26 221 q 53 390 42 319 q 78 533 64 460 q 115 677 93 606 q 166 813 136 749 q 236 932 196 878 q 331 1024 276 986 q 399 1057 363 1047 q 475 1067 435 1067 z "},"n":{"ha":1036,"x_min":22,"x_max":1006,"o":"m 22 256 q 28 438 22 343 q 48 623 35 532 q 83 797 61 714 q 139 943 106 879 q 179 1003 158 981 q 222 1040 200 1026 q 267 1058 244 1053 q 311 1063 289 1063 q 376 1056 340 1063 q 433 1031 411 1050 q 471 968 453 1013 q 506 867 489 924 q 538 749 522 810 q 567 638 553 689 q 594 555 581 588 q 618 522 607 522 q 635 531 629 522 q 643 551 640 539 q 646 574 646 563 q 646 593 646 586 q 632 758 646 676 q 618 924 618 840 q 622 981 618 949 q 646 1031 626 1013 q 715 1063 672 1054 q 792 1072 758 1072 q 844 1068 817 1072 q 897 1053 872 1064 q 941 1026 922 1043 q 968 981 960 1008 q 999 802 992 896 q 1006 621 1006 708 q 1001 484 1006 565 q 985 318 996 403 q 955 156 974 233 q 908 29 936 78 q 796 -32 872 -32 q 674 -3 728 -32 q 580 67 621 25 q 509 160 539 110 q 458 252 479 210 q 421 323 436 294 q 393 351 406 351 q 369 336 374 351 q 364 307 364 321 q 369 251 364 279 q 380 196 374 224 q 391 140 386 168 q 396 85 396 113 q 391 40 396 61 q 368 4 386 19 q 327 -22 351 -11 q 276 -41 303 -33 q 222 -52 249 -49 q 172 -56 194 -56 q 131 -53 153 -56 q 90 -42 108 -50 q 57 -19 71 -33 q 39 18 43 -6 q 25 137 28 76 q 22 256 22 197 z "},"o":{"ha":1156,"x_min":32,"x_max":1128,"o":"m 1128 465 q 1089 258 1128 347 q 981 109 1050 169 q 815 18 911 49 q 604 -12 719 -12 q 384 27 488 -12 q 202 138 281 67 q 78 310 124 210 q 32 529 32 410 q 78 765 32 665 q 203 930 124 864 q 391 1028 283 996 q 622 1060 499 1060 q 786 1024 707 1060 q 930 930 865 989 q 1041 796 994 871 q 1107 642 1088 721 q 1128 465 1128 557 m 435 536 q 449 488 435 508 q 483 453 463 467 q 530 433 504 440 q 579 426 556 426 q 674 458 640 426 q 708 551 708 489 q 696 606 708 582 q 663 646 683 629 q 617 671 643 663 q 561 679 590 679 q 509 667 532 679 q 469 635 486 654 q 444 590 453 615 q 435 536 435 564 z "},"p":{"ha":993,"x_min":19,"x_max":961,"o":"m 961 628 q 940 467 961 544 q 878 328 918 389 q 785 230 839 267 q 667 193 732 193 q 570 201 606 193 q 513 219 535 210 q 478 236 490 228 q 450 244 465 244 q 398 225 419 244 q 376 157 376 206 q 383 90 376 124 q 389 24 389 57 q 372 -24 389 -4 q 328 -55 354 -43 q 272 -72 303 -67 q 214 -76 242 -76 q 119 -63 161 -76 q 60 -6 78 -50 q 38 85 46 28 q 26 204 31 142 q 21 326 22 267 q 19 424 19 385 q 21 509 19 458 q 26 617 22 560 q 38 736 31 675 q 54 853 44 797 q 78 954 64 908 q 111 1028 93 1000 q 157 1070 129 1054 q 217 1094 185 1086 q 283 1106 250 1103 q 346 1108 317 1108 q 590 1088 478 1108 q 785 1015 703 1068 q 914 868 867 961 q 961 628 961 775 m 408 638 q 414 601 408 621 q 430 563 419 581 q 457 534 440 546 q 494 522 474 522 q 542 527 515 522 q 590 545 568 532 q 628 583 613 558 q 643 649 643 608 q 629 685 643 669 q 596 710 615 700 q 553 724 576 719 q 514 729 531 729 q 437 710 465 729 q 408 638 408 690 z "},"q":{"ha":1189,"x_min":26,"x_max":1186,"o":"m 1100 617 q 1085 489 1100 539 q 1051 406 1069 439 q 1016 355 1032 374 q 1000 319 1000 336 q 1029 281 1000 303 q 1093 234 1058 260 q 1157 178 1128 208 q 1186 113 1186 147 q 1163 46 1186 78 q 1106 -10 1140 14 q 1031 -49 1072 -35 q 954 -62 990 -62 q 897 -44 919 -62 q 858 -3 875 -25 q 828 38 842 19 q 796 57 815 57 q 753 42 771 57 q 704 7 735 26 q 620 -28 674 -12 q 469 -43 567 -43 q 288 3 369 -43 q 148 125 206 50 q 58 296 90 200 q 26 492 26 392 q 74 735 26 629 q 203 912 121 840 q 398 1020 286 983 q 638 1057 510 1057 q 810 1023 726 1057 q 958 930 893 989 q 1061 790 1022 871 q 1100 617 1100 710 m 351 517 q 362 428 351 471 q 394 352 372 385 q 451 299 417 319 q 535 279 486 279 q 550 279 540 279 q 569 281 560 279 q 587 288 579 283 q 594 299 594 292 q 578 324 594 308 q 542 356 561 339 q 506 392 522 374 q 489 428 489 411 q 503 481 489 456 q 542 526 518 507 q 597 557 567 546 q 658 568 628 568 q 699 556 681 568 q 734 530 718 544 q 765 503 750 515 q 793 490 779 490 q 808 496 804 490 q 813 510 811 501 q 813 528 814 518 q 811 547 811 539 q 792 627 811 592 q 744 688 774 663 q 674 726 714 713 q 593 739 635 739 q 419 683 486 739 q 351 517 351 628 z "},"r":{"ha":1051,"x_min":14,"x_max":1029,"o":"m 935 657 q 909 536 935 585 q 853 456 883 488 q 797 403 822 424 q 771 367 771 383 q 790 342 771 356 q 838 311 810 328 q 900 276 867 294 q 962 235 933 257 q 1010 188 990 213 q 1029 138 1029 164 q 1003 71 1029 99 q 940 25 978 43 q 861 -1 903 7 q 788 -8 819 -8 q 699 12 736 -8 q 633 63 661 32 q 583 129 606 93 q 538 196 561 165 q 489 247 515 226 q 426 267 463 267 q 397 257 406 267 q 389 232 389 247 q 402 197 389 219 q 431 146 415 174 q 459 89 446 118 q 472 33 472 60 q 449 -12 472 7 q 393 -42 425 -31 q 328 -60 361 -54 q 274 -65 294 -65 q 197 -53 232 -65 q 140 -1 161 -42 q 86 147 110 57 q 47 336 63 238 q 22 530 31 435 q 14 692 14 625 q 22 835 14 765 q 57 960 29 904 q 139 1049 85 1015 q 286 1082 193 1082 q 431 1075 356 1082 q 577 1049 506 1068 q 714 1000 649 1031 q 828 922 779 969 q 906 810 876 875 q 935 657 935 744 m 379 660 q 381 618 379 642 q 390 573 383 594 q 411 536 397 551 q 449 521 425 521 q 489 532 467 521 q 531 560 511 543 q 563 598 550 578 q 576 636 576 618 q 563 676 576 656 q 528 712 549 696 q 485 738 508 728 q 444 749 463 749 q 394 720 408 749 q 379 660 379 692 z "},"s":{"ha":1063,"x_min":19,"x_max":1033,"o":"m 1033 767 q 1016 693 1033 731 q 972 626 999 656 q 910 577 944 596 q 839 558 875 558 q 773 581 797 558 q 729 632 749 604 q 690 683 710 660 q 638 706 669 706 q 590 692 614 706 q 567 657 567 679 q 597 612 567 633 q 672 567 626 590 q 770 515 718 543 q 868 449 822 486 q 944 363 914 411 q 974 253 974 315 q 938 125 974 186 q 841 17 903 64 q 697 -59 779 -31 q 522 -87 615 -87 q 366 -66 443 -87 q 223 -3 289 -44 q 106 100 157 39 q 29 240 56 161 q 19 290 19 269 q 33 352 19 319 q 67 413 46 385 q 117 458 89 440 q 176 476 146 476 q 251 451 213 476 q 325 394 289 425 q 394 336 361 363 q 451 310 426 310 q 517 350 517 310 q 484 388 517 369 q 403 428 451 407 q 297 476 354 450 q 192 538 240 503 q 110 619 143 574 q 78 725 78 665 q 115 851 78 789 q 214 963 151 914 q 358 1043 276 1013 q 528 1074 439 1074 q 637 1063 579 1074 q 751 1031 694 1051 q 858 983 807 1011 q 949 922 910 956 q 1010 848 988 888 q 1033 767 1033 808 z "},"t":{"ha":1221,"x_min":21,"x_max":1203,"o":"m 597 1111 q 864 1088 726 1111 q 1119 1013 1001 1065 q 1160 982 1144 1001 q 1186 939 1176 963 q 1199 889 1196 915 q 1203 838 1203 863 q 1196 769 1203 813 q 1173 683 1189 725 q 1133 609 1157 640 q 1075 578 1108 578 q 1011 594 1046 578 q 941 629 976 610 q 873 665 906 649 q 814 681 840 681 q 784 669 796 681 q 767 640 772 657 q 759 605 761 624 q 757 572 757 586 q 778 451 757 510 q 826 334 800 392 q 873 218 851 276 q 894 97 894 160 q 870 3 894 42 q 806 -60 846 -36 q 719 -95 767 -85 q 622 -106 671 -106 q 522 -94 572 -106 q 432 -58 472 -83 q 367 7 392 -33 q 342 106 342 47 q 360 222 342 165 q 401 336 379 279 q 442 451 424 393 q 461 568 461 508 q 458 610 461 589 q 447 649 456 632 q 424 678 439 667 q 382 689 408 689 q 326 683 354 689 q 272 668 299 676 q 217 653 244 660 q 160 647 189 647 q 94 673 121 647 q 51 736 68 699 q 28 815 35 774 q 21 888 21 857 q 24 930 21 908 q 35 972 26 951 q 57 1007 43 992 q 93 1031 71 1022 q 342 1092 210 1074 q 597 1111 474 1111 z "},"u":{"ha":1139,"x_min":28,"x_max":1111,"o":"m 301 1122 q 410 1108 361 1122 q 495 1065 460 1094 q 550 988 531 1035 q 569 878 569 942 q 558 771 569 824 q 531 665 546 718 q 504 559 517 613 q 492 450 492 506 q 493 410 492 432 q 501 370 494 389 q 522 339 507 351 q 563 326 536 326 q 616 343 593 326 q 655 386 639 360 q 679 446 671 413 q 688 513 688 479 q 676 601 688 557 q 650 688 664 644 q 624 774 636 732 q 613 854 613 815 q 638 946 613 910 q 699 1003 663 982 q 780 1032 736 1024 q 861 1040 824 1040 q 999 1008 949 1040 q 1074 922 1049 975 q 1105 800 1099 868 q 1111 663 1111 732 q 1099 476 1111 568 q 1069 321 1086 383 q 989 144 1042 215 q 866 31 936 74 q 713 -29 796 -11 q 539 -47 629 -47 q 391 -33 465 -47 q 253 20 317 -19 q 140 132 189 60 q 67 319 92 204 q 53 397 60 351 q 40 498 46 442 q 31 618 35 554 q 28 750 28 682 q 35 888 28 821 q 71 1006 43 954 q 153 1090 99 1058 q 301 1122 207 1122 z "},"v":{"ha":1168,"x_min":22,"x_max":1143,"o":"m 190 1118 q 249 1113 218 1118 q 308 1096 281 1108 q 359 1064 336 1083 q 393 1015 382 1044 q 411 950 404 985 q 425 883 418 915 q 445 771 436 829 q 465 653 454 713 q 489 535 475 593 q 524 428 503 478 q 533 408 526 421 q 550 394 539 394 q 565 403 558 394 q 577 424 572 413 q 585 448 582 436 q 590 464 589 460 q 627 595 608 526 q 665 733 646 664 q 703 869 683 801 q 740 1000 722 938 q 772 1057 750 1032 q 822 1099 793 1082 q 882 1126 850 1117 q 944 1136 914 1136 q 1002 1130 968 1136 q 1067 1110 1036 1124 q 1121 1076 1099 1097 q 1143 1025 1143 1054 q 1128 878 1143 963 q 1088 697 1114 793 q 1024 502 1061 601 q 944 310 988 403 q 852 138 901 217 q 751 4 803 58 q 654 -56 711 -39 q 539 -74 597 -74 q 464 -67 503 -74 q 389 -47 425 -61 q 322 -12 353 -33 q 268 40 290 10 q 161 225 207 125 q 84 432 115 325 q 38 649 53 539 q 22 863 22 758 q 29 963 22 917 q 54 1044 36 1010 q 106 1098 72 1078 q 190 1118 139 1118 z "},"w":{"ha":1340,"x_min":19,"x_max":1319,"o":"m 1319 974 q 1317 858 1319 926 q 1306 711 1314 790 q 1285 547 1299 632 q 1251 381 1272 463 q 1199 225 1229 299 q 1126 97 1168 151 q 1029 9 1083 42 q 906 -24 975 -24 q 832 -13 865 -24 q 775 17 799 -3 q 728 78 746 39 q 698 156 711 118 q 674 223 685 194 q 647 251 663 251 q 618 221 632 251 q 587 149 604 190 q 548 66 569 108 q 494 0 526 24 q 444 -24 476 -14 q 371 -33 411 -33 q 308 -26 340 -33 q 247 -3 276 -19 q 190 38 217 13 q 144 103 164 64 q 81 288 107 181 q 40 517 54 396 q 22 764 25 638 q 28 1004 19 890 q 44 1043 29 1026 q 82 1072 58 1060 q 135 1089 106 1083 q 194 1094 164 1094 q 292 1079 246 1094 q 358 1033 339 1064 q 397 947 382 997 q 419 840 411 896 q 433 730 428 785 q 442 632 438 675 q 451 562 446 589 q 468 535 457 535 q 491 554 479 535 q 517 603 503 574 q 547 667 531 633 q 583 731 564 701 q 628 781 603 761 q 682 800 653 800 q 733 778 713 800 q 769 723 754 756 q 797 651 785 690 q 819 580 808 613 q 842 525 831 547 q 871 503 854 503 q 891 535 888 503 q 894 619 894 568 q 892 734 893 671 q 896 858 890 797 q 919 969 901 918 q 972 1049 936 1021 q 1032 1076 996 1068 q 1108 1085 1068 1085 q 1184 1077 1146 1085 q 1252 1055 1222 1069 q 1301 1020 1282 1040 q 1319 974 1319 1000 z "},"x":{"ha":1063,"x_min":14,"x_max":1047,"o":"m 239 1040 q 290 1023 264 1040 q 340 979 315 1006 q 388 922 365 953 q 431 865 411 892 q 468 822 451 839 q 496 804 485 804 q 524 823 507 804 q 560 869 540 842 q 603 928 581 896 q 651 988 626 961 q 700 1034 675 1015 q 750 1053 725 1053 q 838 1037 796 1053 q 912 992 879 1021 q 964 923 944 963 q 983 838 983 883 q 965 789 983 815 q 917 735 946 763 q 856 683 889 708 q 794 635 822 657 q 747 598 765 614 q 728 575 728 582 q 751 556 728 568 q 810 526 775 543 q 888 485 846 508 q 965 434 929 463 q 1024 372 1000 406 q 1047 297 1047 338 q 1024 199 1047 250 q 967 106 1001 149 q 890 37 932 64 q 811 10 849 10 q 743 33 772 10 q 690 92 714 57 q 647 168 667 126 q 611 244 628 210 q 578 303 594 279 q 542 326 561 326 q 504 303 522 326 q 467 246 486 281 q 426 172 447 211 q 379 97 404 132 q 324 40 354 63 q 256 17 293 17 q 169 37 213 17 q 92 89 126 57 q 35 163 57 121 q 14 249 14 206 q 35 321 14 288 q 90 383 57 354 q 160 437 122 413 q 231 481 199 461 q 285 515 264 500 q 307 539 307 529 q 287 565 307 549 q 237 601 267 581 q 172 646 207 621 q 106 698 136 671 q 56 755 76 725 q 36 815 36 785 q 53 891 36 851 q 100 964 71 931 q 165 1019 129 997 q 239 1040 201 1040 z "},"y":{"ha":847,"x_min":4,"x_max":847,"o":"m 421 758 q 441 779 432 758 q 461 832 450 800 q 486 900 472 864 q 520 968 500 936 q 569 1021 540 1000 q 636 1042 597 1042 q 709 1030 672 1042 q 777 996 746 1018 q 828 940 808 974 q 847 863 847 907 q 829 775 847 819 q 783 686 811 731 q 724 600 756 642 q 664 522 692 558 q 618 454 636 485 q 600 403 600 424 q 619 323 600 354 q 660 264 638 292 q 702 206 683 236 q 721 129 721 176 q 699 51 721 85 q 644 -4 678 18 q 571 -37 611 -26 q 492 -49 531 -49 q 413 -40 457 -49 q 329 -10 368 -31 q 264 44 290 11 q 238 128 238 78 q 249 188 238 161 q 274 242 261 215 q 299 297 288 268 q 311 363 311 326 q 288 423 311 388 q 231 501 265 458 q 158 592 197 544 q 84 688 118 640 q 27 783 50 736 q 4 872 4 831 q 24 947 4 913 q 72 1007 43 981 q 137 1048 101 1033 q 203 1063 172 1063 q 272 1040 243 1063 q 321 984 300 1018 q 356 910 342 950 q 381 837 371 871 q 401 781 392 803 q 421 758 410 758 z "},"z":{"ha":1022,"x_min":17,"x_max":1013,"o":"m 564 -62 q 453 -58 513 -62 q 335 -43 393 -53 q 224 -19 276 -33 q 131 13 171 -6 q 46 78 69 40 q 22 175 22 117 q 51 299 22 249 q 122 388 79 350 q 215 456 165 426 q 308 516 265 486 q 380 581 351 546 q 408 664 408 615 q 400 699 408 689 q 372 708 392 708 q 317 697 347 708 q 253 670 286 685 q 189 644 221 656 q 129 632 157 632 q 72 653 94 632 q 38 703 50 674 q 21 765 25 732 q 17 822 17 797 q 55 967 17 914 q 153 1048 93 1021 q 288 1083 214 1075 q 433 1090 361 1090 q 539 1085 483 1090 q 649 1072 594 1081 q 752 1049 703 1063 q 840 1019 801 1036 q 937 948 908 990 q 965 836 965 906 q 942 722 965 769 q 883 638 919 674 q 802 572 847 601 q 712 514 757 543 q 626 451 667 485 q 558 369 585 417 q 553 357 556 363 q 550 346 550 351 q 564 336 550 336 q 627 351 588 336 q 710 385 667 367 q 797 419 754 404 q 872 435 840 435 q 941 407 914 435 q 984 341 968 379 q 1006 260 1000 303 q 1013 189 1013 218 q 1008 138 1013 165 q 990 83 1003 110 q 953 33 976 57 q 890 -10 929 8 q 823 -33 861 -22 q 741 -49 785 -43 q 652 -59 697 -56 q 564 -62 607 -62 z "},"{":{"ha":589,"x_min":6,"x_max":583,"o":"m 372 808 q 388 731 372 767 q 403 657 403 694 q 389 599 403 625 q 358 554 375 574 q 328 522 342 535 q 314 500 314 508 q 326 478 314 492 q 355 444 339 464 q 383 400 371 425 q 396 344 396 375 q 393 313 396 329 q 390 278 390 297 q 410 208 390 229 q 455 172 431 186 q 499 141 479 157 q 519 88 519 125 q 482 10 519 43 q 368 -22 444 -22 q 247 3 296 -22 q 167 65 197 29 q 126 136 138 100 q 117 193 114 172 q 110 306 126 261 q 71 383 94 351 q 26 436 47 414 q 6 479 6 458 q 25 522 6 504 q 67 560 44 540 q 110 606 90 579 q 129 672 129 632 q 126 697 129 682 q 118 731 122 713 q 110 768 114 749 q 107 806 107 788 q 136 955 107 897 q 211 1046 165 1013 q 313 1091 257 1079 q 424 1103 369 1103 q 583 1021 583 1103 q 567 962 583 982 q 528 931 551 942 q 478 913 506 919 q 427 897 450 907 q 388 866 404 886 q 372 808 372 846 z "},"|":{"ha":335,"x_min":72,"x_max":257,"o":"m 168 -46 q 132 -44 149 -46 q 106 -31 115 -42 q 97 16 101 -25 q 88 117 92 57 q 82 246 85 176 q 77 378 79 315 q 74 490 75 442 q 72 554 72 539 q 73 615 72 569 q 76 720 74 660 q 81 847 78 781 q 87 970 83 914 q 94 1065 90 1026 q 101 1108 97 1104 q 127 1122 111 1119 q 164 1125 143 1125 q 199 1122 183 1125 q 224 1108 215 1119 q 232 1062 228 1103 q 240 961 236 1021 q 247 832 244 901 q 252 699 250 763 q 256 588 254 636 q 257 524 257 540 q 256 464 257 510 q 253 358 256 418 q 249 232 251 299 q 242 109 246 165 q 235 13 239 53 q 228 -31 232 -26 q 203 -44 219 -42 q 168 -46 188 -46 z "},"}":{"ha":607,"x_min":6,"x_max":583,"o":"m 217 272 q 201 350 217 314 q 186 424 186 386 q 200 481 186 456 q 231 526 214 507 q 261 559 247 546 q 275 581 275 572 q 263 603 275 589 q 234 636 250 617 q 206 681 218 656 q 193 736 193 706 q 196 767 193 751 q 199 803 199 783 q 178 873 199 851 q 134 909 158 894 q 90 940 110 924 q 69 993 69 956 q 107 1070 69 1038 q 221 1103 144 1103 q 342 1077 293 1103 q 422 1016 392 1051 q 463 944 451 981 q 472 888 475 908 q 478 774 463 819 q 518 698 494 729 q 563 644 542 667 q 583 601 583 622 q 564 558 583 576 q 522 521 544 540 q 479 475 499 501 q 460 408 460 449 q 463 383 460 399 q 471 350 467 368 q 478 313 475 332 q 482 275 482 293 q 453 126 482 183 q 378 35 424 68 q 276 -10 332 1 q 165 -22 219 -22 q 6 60 6 -22 q 22 119 6 99 q 60 150 38 139 q 111 167 83 161 q 162 184 139 174 q 201 214 185 194 q 217 272 217 233 z "},"~":{"ha":888,"x_min":35,"x_max":849,"o":"m 319 368 q 281 353 297 368 q 251 321 265 339 q 220 288 236 303 q 182 274 204 274 q 125 285 151 274 q 78 317 99 297 q 47 364 58 338 q 35 421 35 390 q 58 522 35 476 q 118 598 81 567 q 204 647 156 629 q 304 664 253 664 q 385 648 346 664 q 459 613 425 632 q 520 576 493 593 q 564 560 547 560 q 596 574 581 560 q 627 607 611 589 q 661 640 643 625 q 701 656 679 656 q 758 644 732 656 q 805 612 785 632 q 837 565 825 592 q 849 508 849 539 q 825 412 849 457 q 763 333 801 367 q 676 279 725 299 q 576 260 628 260 q 482 276 519 260 q 417 314 444 293 q 367 351 389 335 q 319 368 344 368 z "},"¡":{"ha":471,"x_min":39,"x_max":429,"o":"m 307 664 q 295 622 307 640 q 265 592 283 604 q 222 574 246 581 q 174 568 199 568 q 54 679 54 568 q 59 722 54 701 q 75 760 64 743 q 105 786 86 776 q 153 796 124 796 q 208 785 181 796 q 257 756 235 774 q 293 713 279 738 q 307 664 307 689 m 188 525 q 235 519 211 525 q 272 492 260 513 q 293 444 283 469 q 311 396 303 419 q 395 138 361 269 q 429 -131 429 6 q 426 -228 429 -185 q 403 -304 422 -272 q 343 -353 383 -336 q 229 -371 303 -371 q 161 -362 196 -371 q 111 -322 126 -353 q 76 -233 90 -282 q 54 -131 63 -183 q 42 -28 46 -79 q 39 67 39 24 q 42 163 39 107 q 51 276 44 218 q 65 388 57 333 q 86 479 74 442 q 102 502 90 493 q 128 516 114 511 q 158 523 143 521 q 188 525 174 525 z "},"¢":{"ha":903,"x_min":47,"x_max":851,"o":"m 842 763 q 828 699 842 724 q 794 660 815 674 q 743 642 772 647 q 682 638 714 638 q 638 651 649 638 q 622 685 628 665 q 608 724 617 704 q 571 756 600 743 q 565 508 568 631 q 554 261 561 386 q 608 283 576 268 q 693 322 640 297 q 740 333 719 333 q 784 324 764 333 q 819 301 804 314 q 843 272 835 288 q 851 243 851 256 q 822 142 851 188 q 747 63 793 96 q 644 9 701 29 q 529 -15 586 -11 q 508 -71 521 -51 q 481 -101 494 -90 q 453 -113 467 -111 q 428 -115 439 -115 q 396 -111 413 -115 q 374 -92 379 -107 q 371 -58 371 -81 q 372 -4 371 -36 q 227 53 289 13 q 126 152 165 93 q 67 286 86 211 q 47 449 47 361 q 78 666 47 565 q 162 844 108 767 q 286 971 215 921 q 438 1035 357 1021 q 443 1070 440 1053 q 453 1101 446 1088 q 474 1122 460 1114 q 511 1131 488 1131 q 544 1126 526 1131 q 568 1104 563 1121 q 572 1078 571 1097 q 574 1033 572 1060 q 681 998 632 1024 q 766 937 731 972 q 822 857 801 901 q 842 763 842 813 m 389 271 q 399 501 394 378 q 411 751 404 625 q 364 706 383 735 q 332 639 344 676 q 314 556 319 601 q 308 463 308 511 q 328 349 308 400 q 389 271 347 297 z "},"£":{"ha":850,"x_min":15,"x_max":814,"o":"m 15 474 q 22 503 15 488 q 51 525 29 518 q 89 535 69 531 q 132 544 108 540 q 153 730 136 640 q 210 888 171 819 q 317 999 250 957 q 485 1040 383 1040 q 615 1018 557 1040 q 714 958 674 996 q 776 870 754 921 q 799 763 799 819 q 766 650 799 683 q 669 617 733 617 q 625 628 643 617 q 594 656 607 639 q 572 694 582 674 q 548 731 561 714 q 517 760 535 749 q 472 771 500 771 q 422 753 440 771 q 396 708 404 736 q 387 644 388 681 q 388 569 386 607 q 465 566 433 569 q 515 553 496 563 q 542 525 533 543 q 550 478 550 507 q 544 449 550 465 q 519 425 539 432 q 455 409 490 415 q 383 400 419 403 q 365 340 376 364 q 343 299 354 315 q 324 273 332 283 q 317 254 317 263 q 340 240 317 244 q 394 233 363 235 q 460 231 426 231 q 514 231 493 231 q 569 233 547 231 q 610 239 590 236 q 651 244 631 242 q 703 247 672 247 q 747 238 726 247 q 782 215 767 228 q 806 185 797 201 q 814 157 814 169 q 790 64 814 99 q 724 12 765 29 q 628 -11 682 -6 q 514 -17 574 -17 q 370 -17 450 -17 q 219 -8 290 -18 q 101 31 149 3 q 53 114 53 58 q 62 181 53 147 q 83 251 71 215 q 108 325 96 288 q 126 401 121 363 q 98 406 111 404 q 71 410 85 407 q 27 436 39 415 q 15 474 15 457 z "},"¤":{"ha":1013,"x_min":90,"x_max":950,"o":"m 161 303 q 156 313 161 306 q 144 329 151 321 q 132 346 138 338 q 124 358 126 354 q 97 431 104 392 q 90 508 90 469 q 102 596 90 558 q 128 659 114 633 q 153 701 142 685 q 165 722 165 717 q 157 753 165 736 q 140 788 149 771 q 122 824 131 806 q 114 856 114 842 q 127 890 114 871 q 160 925 140 908 q 200 953 179 942 q 235 965 221 965 q 269 953 254 965 q 299 924 285 940 q 328 892 314 907 q 357 869 342 876 q 378 874 361 868 q 418 888 394 879 q 469 903 442 896 q 521 910 496 910 q 565 905 543 910 q 607 894 588 900 q 641 883 626 888 q 664 878 656 878 q 683 894 669 878 q 713 930 696 910 q 749 966 731 950 q 786 982 768 982 q 821 970 800 982 q 860 942 842 958 q 893 906 879 925 q 907 872 907 888 q 900 839 907 856 q 885 806 893 822 q 869 773 876 789 q 863 742 863 757 q 876 717 863 733 q 906 674 890 701 q 936 607 922 647 q 950 510 950 567 q 937 413 950 453 q 907 345 924 372 q 877 303 890 318 q 864 281 864 288 q 868 254 864 267 q 879 229 872 242 l 892 203 q 903 178 899 190 q 907 151 907 165 q 893 119 907 138 q 860 83 879 100 q 821 55 842 67 q 786 43 800 43 q 751 59 768 43 q 720 94 735 75 q 692 128 706 113 q 663 140 678 143 q 593 120 626 135 q 522 106 560 106 q 476 111 496 106 q 437 124 456 117 q 398 139 418 132 q 351 149 378 146 q 323 135 336 149 q 297 104 310 121 q 268 74 283 88 q 235 60 253 60 q 200 72 221 60 q 160 100 179 83 q 127 136 140 117 q 114 169 114 156 q 122 204 114 188 q 138 236 129 221 q 153 268 146 251 q 161 303 161 285 m 328 508 q 341 424 328 464 q 378 356 354 385 q 438 309 403 326 q 518 292 474 292 q 599 309 563 292 q 660 356 635 326 q 700 426 686 386 q 714 511 714 465 q 700 594 714 556 q 661 662 686 633 q 601 707 636 690 q 521 724 565 724 q 441 707 476 724 q 381 661 406 690 q 342 593 356 632 q 328 508 328 554 z "},"¥":{"ha":856,"x_min":4,"x_max":847,"o":"m 456 692 q 476 717 467 692 q 497 782 485 743 q 523 867 508 821 q 558 951 538 913 q 608 1016 579 990 q 675 1042 636 1042 q 797 996 746 1042 q 847 863 847 950 q 828 774 847 819 q 782 684 810 729 q 722 597 754 639 q 661 518 689 556 q 733 492 713 511 q 753 428 753 472 q 747 399 753 415 q 718 375 742 382 q 663 363 693 368 q 601 356 633 358 q 603 339 603 347 q 606 324 604 331 q 671 317 639 321 q 731 306 703 313 q 760 281 754 299 q 765 251 765 264 q 737 182 765 201 q 636 160 708 163 q 638 140 638 150 q 638 119 638 131 q 603 -9 638 31 q 492 -49 569 -49 q 422 -42 457 -49 q 358 -16 386 -35 q 313 34 331 3 q 294 115 294 65 q 295 144 294 131 q 297 174 296 158 q 189 193 238 179 q 156 215 164 200 q 147 246 147 231 q 160 284 147 263 q 210 311 174 306 q 258 317 233 314 q 310 322 283 319 q 311 338 311 329 q 311 354 311 346 q 256 360 283 357 q 206 371 229 364 q 156 400 171 381 q 142 438 142 419 q 151 468 142 451 q 185 492 160 485 q 207 497 196 494 q 231 501 218 499 q 158 592 197 544 q 84 689 118 640 q 27 784 50 738 q 4 872 4 831 q 24 947 4 913 q 72 1007 43 981 q 137 1048 101 1033 q 203 1063 172 1063 q 274 1035 243 1063 q 330 966 306 1007 q 373 877 354 925 q 407 788 392 829 q 433 719 422 747 q 456 692 444 692 z "},"¦":{"ha":349,"x_min":68,"x_max":264,"o":"m 264 675 q 261 626 264 647 q 249 592 258 606 q 220 572 239 579 q 169 565 201 565 q 103 579 133 565 q 72 633 72 593 q 73 686 72 647 q 76 776 74 725 q 81 884 78 828 q 87 989 83 940 q 94 1071 90 1038 q 101 1108 97 1104 q 131 1123 113 1121 q 164 1125 149 1125 q 196 1123 179 1125 q 224 1108 213 1121 q 233 1074 228 1104 q 242 999 238 1043 q 250 902 246 954 q 257 803 254 850 q 262 722 260 757 q 264 675 264 686 m 168 -46 q 135 -44 151 -46 q 106 -31 118 -43 q 95 6 100 -25 q 86 83 90 38 q 78 180 82 128 q 73 280 75 232 q 69 364 71 328 q 68 413 68 400 q 68 453 68 433 q 73 488 68 472 q 92 512 78 503 q 133 521 106 521 q 167 517 147 521 q 205 505 186 513 q 238 485 224 497 q 257 457 253 474 q 258 440 258 453 q 258 424 258 426 q 257 374 258 411 q 254 287 256 336 q 249 184 253 238 q 243 84 246 131 q 236 6 240 38 q 228 -31 232 -25 q 200 -44 217 -43 q 168 -46 183 -46 z "},"§":{"ha":1017,"x_min":49,"x_max":954,"o":"m 944 942 q 931 869 944 904 q 897 809 918 835 q 846 767 875 783 q 785 751 817 751 q 745 768 758 751 q 724 810 732 785 q 707 864 715 835 q 680 918 699 893 q 628 960 661 943 q 536 976 594 976 q 469 965 488 976 q 451 939 451 954 q 489 881 451 911 q 582 815 526 850 q 703 742 638 781 q 824 658 768 703 q 917 562 879 614 q 954 449 954 510 q 923 384 954 415 q 854 326 892 353 q 785 277 817 299 q 754 240 754 256 q 782 208 754 226 q 842 165 810 190 q 903 104 875 140 q 931 15 931 68 q 895 -81 931 -36 q 803 -160 860 -126 q 676 -214 747 -194 q 536 -233 606 -233 q 371 -215 457 -233 q 213 -162 285 -197 q 95 -74 142 -126 q 49 44 49 -22 q 58 101 49 71 q 87 156 68 131 q 131 199 106 182 q 189 217 157 217 q 239 198 222 217 q 268 151 256 179 q 297 90 281 122 q 344 28 313 57 q 428 -19 375 0 q 571 -37 482 -37 q 631 -33 604 -37 q 657 -10 657 -28 q 615 28 657 3 q 510 88 574 53 q 374 165 447 122 q 238 254 301 207 q 133 353 175 301 q 92 456 92 404 q 118 556 92 514 q 176 628 144 599 q 235 674 208 657 q 261 699 261 690 q 242 730 261 708 q 202 778 224 751 q 162 834 181 806 q 143 886 143 863 q 183 1009 143 951 q 286 1110 222 1067 q 429 1179 350 1154 q 588 1204 508 1204 q 724 1183 660 1204 q 838 1126 789 1163 q 916 1043 888 1090 q 944 942 944 996 m 497 406 q 542 397 517 396 q 594 397 567 397 q 654 402 628 397 q 681 424 681 407 q 651 456 681 435 q 581 499 621 478 q 503 535 542 519 q 450 551 465 551 q 412 536 424 551 q 400 508 400 521 q 426 457 400 485 q 497 406 451 429 z "},"¨":{"ha":703,"x_min":58,"x_max":653,"o":"m 506 1158 q 564 1144 538 1158 q 610 1108 590 1131 q 642 1057 631 1085 q 653 1001 653 1029 q 636 939 653 967 q 594 891 619 911 q 540 860 569 871 q 483 849 510 849 q 432 861 454 849 q 394 894 410 874 q 372 939 379 914 q 364 989 364 964 q 374 1048 364 1018 q 402 1103 383 1078 q 447 1143 421 1128 q 506 1158 472 1158 m 200 1142 q 258 1128 232 1142 q 305 1091 285 1114 q 336 1040 325 1068 q 347 985 347 1013 q 331 922 347 950 q 289 874 314 894 q 234 843 264 854 q 178 832 204 832 q 126 844 149 832 q 89 877 104 857 q 66 922 74 897 q 58 972 58 947 q 68 1031 58 1001 q 97 1086 78 1061 q 141 1126 115 1111 q 200 1142 167 1142 z "},"©":{"ha":1189,"x_min":63,"x_max":1133,"o":"m 63 492 q 105 699 63 603 q 220 867 147 796 q 390 981 293 939 q 597 1022 488 1022 q 805 981 707 1022 q 976 867 903 939 q 1091 699 1049 796 q 1133 492 1133 603 q 1091 285 1133 382 q 976 117 1049 189 q 805 3 903 44 q 597 -37 707 -37 q 390 3 488 -37 q 219 116 292 44 q 105 284 147 188 q 63 492 63 381 m 597 118 q 743 147 675 118 q 863 228 811 176 q 944 347 914 279 q 974 492 974 415 q 944 638 974 569 q 863 756 914 706 q 744 836 813 807 q 597 865 675 865 q 452 836 521 865 q 333 756 383 807 q 252 638 282 706 q 222 492 222 569 q 252 346 222 414 q 333 227 282 278 q 452 147 383 176 q 597 118 521 118 m 742 464 q 784 446 765 464 q 817 401 803 428 q 838 348 831 375 q 846 301 846 321 q 828 243 846 267 q 784 206 811 219 q 725 186 757 192 q 664 181 693 181 q 513 194 581 181 q 399 244 446 208 q 327 339 353 279 q 301 489 301 399 q 330 640 301 579 q 409 736 358 700 q 529 788 460 772 q 681 803 599 803 q 779 769 746 803 q 813 671 813 735 q 807 629 813 651 q 790 588 801 607 q 763 558 779 569 q 722 546 746 546 q 687 557 700 546 q 663 581 674 568 q 638 606 651 594 q 603 617 625 617 q 561 606 579 617 q 531 578 543 594 q 513 540 519 561 q 507 497 507 518 q 513 453 507 475 q 532 415 519 432 q 563 388 544 399 q 606 378 582 378 q 648 391 631 378 q 680 421 665 404 q 709 451 694 438 q 742 464 724 464 z "},"ª":{"ha":547,"x_min":22,"x_max":528,"o":"m 285 1022 q 239 1013 258 1022 q 203 993 219 1004 q 171 973 188 982 q 131 964 154 964 q 60 992 90 964 q 31 1061 31 1021 q 58 1131 31 1101 q 126 1180 86 1160 q 210 1210 167 1200 q 286 1219 254 1219 q 353 1210 319 1219 q 415 1183 386 1200 q 465 1140 443 1165 q 497 1081 488 1114 q 506 1032 504 1057 q 507 982 507 1007 q 504 906 507 943 q 501 829 501 868 q 515 747 501 785 q 528 669 528 708 q 521 635 528 651 q 501 604 514 618 q 473 582 489 590 q 438 574 457 574 q 412 579 424 574 q 390 591 400 585 q 368 603 379 597 q 343 608 357 608 q 284 596 313 608 q 224 583 256 583 q 146 599 182 583 q 82 643 110 615 q 38 708 54 671 q 22 786 22 744 q 38 862 22 828 q 81 919 54 896 q 144 954 108 942 q 219 967 179 967 q 263 962 242 967 q 307 957 285 957 l 310 957 q 314 969 314 964 q 312 1006 314 989 q 285 1022 310 1022 m 314 781 q 306 799 314 792 q 287 810 299 806 q 263 815 275 814 q 243 817 251 817 q 225 815 235 817 q 206 810 215 814 q 190 799 196 806 q 183 782 183 793 q 190 764 183 771 q 208 753 197 757 q 229 747 218 749 q 249 744 240 744 q 268 746 257 744 q 290 751 279 747 q 307 763 300 756 q 314 781 314 769 m 129 414 q 81 435 101 414 q 60 483 60 456 q 81 535 60 511 q 129 560 101 560 l 458 560 q 507 535 486 560 q 528 483 528 511 q 507 435 528 456 q 458 414 486 414 l 129 414 z "},"«":{"ha":989,"x_min":71,"x_max":940,"o":"m 476 507 q 483 549 476 529 q 501 586 490 568 q 525 618 507 594 q 567 673 543 642 q 620 739 592 704 q 674 804 649 774 q 720 856 700 835 q 749 883 740 878 q 773 895 760 890 q 800 900 786 900 q 847 884 825 900 q 886 845 869 868 q 913 795 903 822 q 922 746 922 768 q 895 660 922 692 q 835 606 868 628 q 774 569 801 585 q 747 531 747 553 q 768 503 747 515 q 817 481 789 492 q 871 460 844 471 q 908 438 897 450 q 940 349 940 399 q 931 299 940 326 q 907 248 922 272 q 870 207 892 224 q 824 190 849 190 q 785 199 804 190 q 755 218 778 201 q 703 257 732 235 q 641 306 674 279 q 581 355 608 332 q 533 394 553 378 q 511 414 514 411 q 485 458 494 433 q 476 507 476 482 m 71 468 q 78 510 71 490 q 96 547 85 529 q 119 579 101 556 q 162 634 138 603 q 215 700 186 665 q 269 765 243 735 q 315 817 294 796 q 343 844 335 839 q 367 856 354 851 q 394 861 381 861 q 442 845 419 861 q 481 806 464 829 q 507 756 497 783 q 517 707 517 729 q 490 621 517 653 q 429 567 463 589 q 369 530 396 546 q 342 492 342 514 q 363 465 342 476 q 411 442 383 453 q 465 422 439 432 q 503 399 492 411 q 535 310 535 360 q 526 260 535 288 q 501 209 517 233 q 465 168 486 185 q 418 151 443 151 q 379 160 399 151 q 349 179 372 163 q 297 218 326 196 q 235 267 268 240 q 175 316 203 293 q 128 356 147 339 q 106 375 108 372 q 80 419 89 394 q 71 468 71 443 z "},"¬":{"ha":892,"x_min":72,"x_max":797,"o":"m 797 465 q 795 389 797 428 q 781 318 793 350 q 744 266 769 286 q 674 246 719 246 q 624 258 643 246 q 594 292 606 271 q 579 338 583 313 q 575 390 575 364 q 555 424 575 413 q 508 441 535 436 q 453 447 481 446 q 410 447 425 447 q 297 442 354 447 q 188 438 240 438 q 103 463 135 438 q 72 543 72 488 q 90 637 72 603 q 140 688 108 671 q 212 708 171 704 q 300 713 253 713 q 517 703 408 713 q 731 663 626 694 q 783 619 772 650 q 793 549 793 589 q 795 507 793 528 q 797 465 797 486 z "},"®":{"ha":897,"x_min":38,"x_max":861,"o":"m 38 828 q 72 983 38 911 q 163 1106 106 1054 q 294 1186 219 1157 q 449 1215 368 1215 q 605 1186 531 1215 q 736 1106 679 1157 q 827 983 793 1054 q 861 828 861 911 q 827 674 861 744 q 735 551 793 603 q 603 471 678 500 q 449 442 529 442 q 294 471 368 442 q 163 551 219 500 q 72 674 106 603 q 38 828 38 744 m 449 560 q 556 580 504 560 q 648 635 608 600 q 711 720 688 671 q 735 828 735 769 q 711 935 735 886 q 648 1021 688 985 q 557 1077 608 1057 q 449 1097 506 1097 q 341 1077 393 1097 q 250 1021 289 1057 q 188 935 211 985 q 164 828 164 886 q 188 721 164 769 q 251 636 211 672 q 342 580 290 600 q 449 560 393 560 m 579 775 q 598 760 579 768 q 636 739 617 751 q 665 708 656 726 q 656 660 675 689 q 618 629 640 636 q 576 622 596 622 q 523 639 543 622 q 488 675 503 656 q 461 711 474 694 q 431 728 449 728 q 425 722 425 728 q 430 703 425 713 q 441 684 435 693 q 453 666 447 675 q 458 646 458 657 q 448 625 458 633 q 423 611 438 617 q 394 603 408 606 q 369 601 379 601 q 334 606 349 601 q 307 629 319 610 q 283 685 293 650 q 267 759 274 719 q 258 836 261 799 q 254 899 254 874 q 258 959 254 931 q 275 1009 263 988 q 311 1043 288 1031 q 374 1056 335 1056 q 463 1049 415 1056 q 551 1023 510 1042 q 618 971 592 1004 q 644 885 644 938 q 635 847 644 864 q 613 817 625 831 q 590 792 600 803 q 579 775 579 782 m 439 840 q 466 853 450 840 q 482 878 482 867 q 465 901 482 889 q 438 913 449 913 q 424 903 426 913 q 421 886 421 894 q 424 859 421 878 q 439 840 428 840 z "},"¯":{"ha":610,"x_min":60,"x_max":539,"o":"m 539 990 q 529 939 539 965 q 490 904 519 913 q 402 889 450 893 q 313 885 354 885 q 258 887 289 885 q 197 894 228 889 q 136 906 165 899 q 88 925 107 914 q 64 957 68 936 q 60 994 60 978 q 69 1053 60 1032 q 97 1083 78 1074 q 146 1095 115 1093 q 218 1097 176 1097 q 288 1097 249 1097 q 367 1092 326 1096 q 444 1080 407 1088 q 507 1058 481 1072 q 533 1028 526 1047 q 539 990 539 1010 z "},"°":{"ha":533,"x_min":60,"x_max":457,"o":"m 457 938 q 449 843 457 890 q 419 759 440 796 q 360 699 397 722 q 265 676 322 676 q 183 697 221 676 q 117 749 144 717 q 75 823 90 782 q 60 906 60 864 q 68 1004 60 953 q 99 1099 76 1056 q 163 1169 122 1142 q 265 1197 203 1197 q 366 1173 328 1197 q 424 1110 404 1149 q 451 1026 444 1072 q 457 938 457 981 m 228 942 q 228 922 228 933 q 231 901 228 911 q 240 885 233 892 q 258 878 246 878 q 291 897 285 878 q 297 938 297 917 q 297 961 297 947 q 292 988 296 975 q 283 1011 289 1001 q 265 1021 276 1021 q 244 1012 251 1021 q 233 990 236 1003 q 228 965 229 978 q 228 942 228 951 z "},"±":{"ha":974,"x_min":31,"x_max":940,"o":"m 618 1113 q 640 1058 640 1092 q 633 990 639 1024 q 622 926 626 956 q 631 883 617 896 q 656 875 639 875 q 690 880 671 875 q 729 891 708 885 q 772 902 750 897 q 814 907 794 907 q 843 903 829 907 q 868 889 857 900 q 912 826 894 864 q 935 749 929 789 q 933 670 940 708 q 901 606 925 632 q 872 587 889 592 q 833 582 854 582 q 777 588 807 582 q 719 602 747 594 q 668 616 692 610 q 629 622 644 622 q 613 618 617 622 q 609 594 606 611 q 620 553 613 576 q 638 502 628 529 q 654 449 649 475 q 659 399 660 422 q 644 360 658 375 q 578 315 619 331 q 493 300 538 300 q 429 310 460 300 q 376 339 399 319 q 347 403 350 361 q 350 490 344 446 q 360 570 356 533 q 354 618 365 607 q 328 625 347 625 q 256 615 300 625 q 172 606 213 606 q 135 610 153 606 q 103 625 117 614 q 63 676 81 644 q 38 743 46 708 q 35 810 31 778 q 61 861 40 842 q 94 878 75 874 q 135 883 113 883 q 188 878 160 883 q 242 868 215 874 q 292 858 268 863 q 332 853 315 853 q 361 861 353 853 q 364 909 375 875 q 338 983 353 943 q 317 1063 324 1024 q 335 1125 311 1101 q 390 1158 357 1147 q 458 1168 422 1168 q 546 1153 503 1168 q 618 1113 589 1139 m 851 124 q 848 88 851 107 q 835 51 844 68 q 810 19 825 33 q 772 0 796 6 q 635 -22 707 -15 q 494 -28 564 -28 q 407 -25 453 -28 q 315 -15 361 -22 q 224 3 268 -8 q 142 29 179 14 q 119 47 128 35 q 106 73 111 58 q 100 102 101 88 q 99 128 99 117 q 112 212 99 183 q 153 252 125 240 q 228 265 182 264 q 339 265 274 265 q 453 265 392 265 q 576 261 514 265 q 696 247 638 257 q 800 219 754 238 q 841 176 831 206 q 851 124 851 147 z "},"²":{"ha":635,"x_min":14,"x_max":592,"o":"m 261 1281 q 369 1269 318 1281 q 458 1235 419 1258 q 519 1172 497 1211 q 542 1079 542 1133 q 513 960 542 1006 q 448 886 483 915 q 383 838 413 857 q 354 800 354 819 q 363 779 354 785 q 383 774 371 774 q 417 778 403 774 q 444 789 431 783 q 472 799 458 794 q 506 804 486 804 q 542 790 526 804 q 569 757 558 776 q 586 715 581 738 q 592 675 592 692 q 584 638 592 654 q 556 610 576 621 q 476 582 514 590 q 392 574 439 574 q 335 574 369 574 q 260 580 300 575 q 179 593 219 585 q 106 617 139 601 q 53 656 74 633 q 33 713 33 679 q 52 763 33 736 q 99 818 71 790 q 159 873 126 846 q 219 924 192 900 q 266 968 247 949 q 285 1000 285 988 q 233 1061 285 1061 q 209 1050 221 1061 q 186 1025 197 1039 q 164 1000 175 1011 q 140 989 153 989 q 90 1001 113 989 q 50 1034 67 1014 q 24 1081 33 1054 q 14 1138 14 1108 q 42 1196 14 1169 q 108 1241 69 1222 q 190 1270 147 1260 q 261 1281 232 1281 z "},"³":{"ha":565,"x_min":39,"x_max":550,"o":"m 275 1275 q 362 1261 318 1275 q 440 1224 406 1247 q 497 1168 475 1200 q 519 1099 519 1136 q 508 1049 519 1068 q 483 1016 497 1029 q 458 994 469 1003 q 447 976 447 985 q 463 956 447 969 q 499 921 479 943 q 534 865 518 899 q 550 782 550 831 q 531 690 550 731 q 478 622 511 650 q 399 580 444 594 q 303 565 354 565 q 206 576 253 565 q 122 608 158 586 q 63 662 85 629 q 42 738 42 694 q 69 806 42 775 q 133 836 96 836 q 167 822 151 836 q 198 792 182 808 q 230 763 214 776 q 267 749 246 749 q 313 763 289 749 q 338 803 338 776 q 312 839 338 828 q 255 860 286 850 q 198 884 224 869 q 172 929 172 899 q 194 981 172 963 q 242 1012 217 1000 q 290 1033 268 1024 q 313 1054 313 1042 q 303 1072 313 1065 q 286 1079 293 1079 q 255 1068 274 1079 q 215 1043 236 1057 q 173 1018 194 1029 q 135 1007 151 1007 q 99 1019 117 1007 q 69 1049 82 1031 q 47 1090 56 1068 q 39 1129 39 1111 q 66 1192 39 1165 q 131 1238 93 1219 q 208 1265 168 1256 q 275 1275 249 1275 z "},"´":{"ha":544,"x_min":63,"x_max":511,"o":"m 78 861 q 64 889 63 872 q 76 924 65 906 q 102 959 86 942 q 131 989 118 976 q 164 1017 147 1004 q 196 1046 181 1031 q 244 1109 225 1074 q 294 1172 264 1144 q 371 1206 331 1206 q 460 1171 413 1206 q 503 1119 496 1144 q 502 1069 511 1093 q 473 1022 493 1044 q 431 979 453 1000 q 383 940 414 964 q 313 894 351 917 q 232 855 275 871 q 150 839 189 839 q 78 861 108 839 z "},"¶":{"ha":874,"x_min":40,"x_max":806,"o":"m 506 -117 q 470 -115 486 -117 q 443 -101 454 -112 q 428 -51 433 -92 q 419 46 422 -10 q 413 164 415 101 q 409 280 411 226 q 404 370 407 333 q 396 411 401 407 q 362 421 390 415 q 294 439 333 426 q 210 473 254 451 q 128 530 165 494 q 65 617 90 565 q 40 739 40 668 q 70 932 40 849 q 156 1072 100 1015 q 290 1158 211 1129 q 468 1188 369 1188 q 567 1186 513 1188 q 669 1169 621 1185 q 752 1115 717 1153 q 793 1006 788 1078 q 798 925 796 971 q 801 830 800 879 q 803 731 803 781 q 805 640 804 682 q 806 568 806 599 q 806 526 806 538 q 805 462 806 513 q 803 344 804 411 q 801 202 803 276 q 797 63 799 128 q 791 -44 794 -1 q 783 -93 788 -87 q 759 -106 775 -104 q 724 -108 743 -108 q 688 -106 704 -108 q 661 -93 671 -104 q 653 -42 657 -87 q 646 72 649 4 q 641 219 643 140 q 638 370 639 299 q 637 495 638 442 q 636 564 636 549 q 636 613 636 576 q 636 697 636 650 q 637 794 636 744 q 638 883 638 844 q 628 894 638 890 q 607 899 618 899 q 590 896 597 899 q 582 886 582 893 q 577 772 578 831 q 578 663 576 714 q 581 575 579 613 q 582 524 582 538 q 582 459 582 510 q 581 340 582 408 q 580 197 581 272 q 577 56 579 121 q 572 -53 575 -8 q 565 -101 569 -97 q 541 -115 557 -112 q 506 -117 525 -117 z "},"·":{"ha":549,"x_min":81,"x_max":474,"o":"m 274 661 q 353 642 317 661 q 416 592 389 622 q 458 524 443 561 q 474 449 474 486 q 451 363 474 401 q 394 298 428 325 q 319 256 360 271 q 243 240 279 240 q 174 258 204 240 q 122 302 143 275 q 91 364 101 329 q 81 432 81 399 q 94 512 81 471 q 133 586 108 553 q 194 640 158 619 q 274 661 229 661 z "},"¸":{"ha":589,"x_min":96,"x_max":503,"o":"m 392 19 q 409 -16 392 -4 q 447 -41 426 -28 q 485 -78 468 -54 q 503 -149 503 -101 q 475 -244 503 -206 q 405 -306 447 -282 q 311 -339 363 -329 q 213 -349 260 -349 q 155 -335 178 -349 q 119 -299 132 -321 q 101 -249 106 -276 q 96 -197 96 -222 q 107 -166 96 -176 q 135 -151 118 -156 q 172 -144 151 -146 q 208 -140 192 -143 q 236 -127 225 -136 q 247 -99 247 -118 q 239 -74 247 -85 q 220 -51 231 -62 q 201 -26 210 -40 q 192 7 192 -12 q 203 57 192 33 q 235 98 215 81 q 279 126 254 115 q 329 136 304 136 q 381 124 354 136 q 407 82 407 111 q 399 51 407 65 q 392 19 392 36 z "},"¹":{"ha":674,"x_min":42,"x_max":629,"o":"m 500 1149 q 497 1078 500 1113 q 489 1010 493 1044 l 481 940 q 473 872 476 906 q 469 801 469 838 q 473 776 469 789 q 493 764 476 764 q 512 765 506 764 q 524 768 518 765 l 531 772 q 542 776 536 775 q 561 776 549 776 q 595 760 582 776 q 616 723 608 744 q 626 678 624 701 q 629 639 629 654 q 606 599 629 614 q 544 575 582 583 q 461 564 507 567 q 372 561 415 561 q 293 563 328 561 q 240 564 258 564 q 185 565 214 564 q 131 574 156 565 q 90 601 106 582 q 74 658 74 621 q 78 699 74 679 q 92 736 82 719 q 117 763 101 753 q 157 774 133 774 q 178 773 172 774 q 187 772 183 772 q 197 770 190 771 q 217 769 203 769 q 249 788 239 769 q 264 831 260 806 q 267 881 268 856 q 267 922 267 907 q 267 941 267 928 q 265 968 267 954 q 258 992 263 982 q 246 1003 254 1003 q 225 991 238 1003 q 199 966 213 979 q 172 941 186 953 q 146 929 158 929 q 109 944 128 929 q 76 980 90 958 q 51 1024 61 1001 q 42 1064 42 1047 q 61 1120 42 1093 q 111 1170 81 1147 q 181 1212 142 1193 q 259 1244 219 1231 q 335 1265 299 1258 q 399 1272 372 1272 q 478 1237 457 1272 q 500 1149 500 1201 z "},"º":{"ha":549,"x_min":51,"x_max":519,"o":"m 482 910 q 473 794 482 851 q 440 692 464 738 q 378 617 417 646 q 278 589 339 589 q 186 615 228 589 q 115 684 144 640 q 68 784 85 728 q 51 900 51 840 q 60 994 51 940 q 94 1096 69 1047 q 163 1178 119 1144 q 278 1213 207 1213 q 384 1182 344 1213 q 446 1106 424 1151 q 475 1008 468 1061 q 482 910 482 956 m 232 939 q 233 888 232 913 q 238 847 233 864 q 252 819 242 829 q 281 808 263 808 q 321 837 313 808 q 329 900 329 865 q 328 932 329 913 q 322 971 326 951 q 306 1004 317 990 q 278 1018 296 1018 q 251 1006 261 1018 q 238 979 242 994 q 232 939 232 961 m 121 414 q 72 435 93 414 q 51 483 51 456 q 72 535 51 511 q 121 560 93 560 l 450 560 q 499 535 478 560 q 519 483 519 511 q 499 435 519 456 q 450 414 478 414 l 121 414 z "},"»":{"ha":1017,"x_min":71,"x_max":940,"o":"m 940 583 q 933 542 940 561 q 915 504 926 522 q 892 472 910 496 q 849 417 874 449 q 797 351 825 386 q 742 286 768 317 q 697 234 717 256 q 668 207 676 213 q 644 195 657 200 q 617 190 631 190 q 569 206 592 190 q 531 245 547 222 q 504 295 514 268 q 494 344 494 322 q 522 431 494 399 q 582 484 549 463 q 642 522 615 506 q 669 560 669 538 q 649 587 669 575 q 600 609 628 599 q 546 630 572 619 q 508 653 519 640 q 476 742 476 692 q 485 791 476 764 q 510 842 494 818 q 547 883 525 867 q 593 900 568 900 q 632 892 614 900 q 663 872 640 889 q 714 833 685 856 q 776 785 743 811 q 836 735 808 758 q 883 697 864 713 q 906 676 903 681 q 931 633 922 657 q 940 583 940 608 m 535 544 q 528 503 535 522 q 510 465 521 483 q 486 433 504 457 q 444 378 468 410 q 391 313 419 347 q 337 247 363 278 q 291 195 311 217 q 263 168 271 174 q 238 156 251 161 q 211 151 225 151 q 164 167 186 151 q 125 206 142 183 q 99 256 108 229 q 89 306 89 283 q 116 392 89 360 q 176 445 143 424 q 237 483 210 467 q 264 521 264 499 q 243 548 264 536 q 194 570 222 560 q 140 591 167 581 q 103 614 114 601 q 71 703 71 653 q 80 752 71 725 q 104 803 89 779 q 141 844 119 828 q 188 861 163 861 q 226 853 208 861 q 257 833 235 850 q 308 794 279 817 q 370 746 338 772 q 431 697 403 719 q 478 657 458 674 q 500 638 497 640 q 526 594 517 618 q 535 544 535 569 z "},"¼":{"ha":1596,"x_min":33,"x_max":1564,"o":"m 492 1015 q 488 945 492 979 q 481 876 485 911 l 472 807 q 465 738 468 772 q 461 668 461 704 q 465 643 461 656 q 485 631 468 631 q 503 631 497 631 q 515 635 510 632 l 522 639 q 534 642 528 642 q 553 643 540 643 q 587 627 574 643 q 608 590 600 611 q 618 544 615 568 q 621 506 621 521 q 597 465 621 481 q 536 442 574 450 q 453 431 499 433 q 364 428 407 428 q 285 429 319 428 q 232 431 250 431 q 176 431 206 431 q 122 440 147 432 q 81 468 97 449 q 65 525 65 488 q 69 566 65 546 q 83 603 74 586 q 109 630 93 619 q 149 640 125 640 q 169 640 164 640 q 178 638 175 639 q 188 637 182 638 q 208 636 194 636 q 241 654 231 636 q 256 697 251 672 q 259 748 260 722 q 258 789 258 774 q 258 808 258 794 q 256 835 258 821 q 250 859 254 849 q 238 869 246 869 q 217 858 229 869 q 191 833 204 846 q 164 808 178 819 q 138 796 150 796 q 101 810 119 796 q 67 847 82 825 q 43 891 53 868 q 33 931 33 914 q 53 987 33 960 q 103 1037 72 1014 q 172 1078 133 1060 q 251 1111 211 1097 q 327 1132 290 1125 q 390 1139 364 1139 q 470 1103 449 1139 q 492 1015 492 1068 m 1103 1101 q 1135 1097 1118 1101 q 1167 1084 1153 1093 q 1190 1062 1181 1075 q 1199 1031 1199 1049 q 1172 933 1199 1000 q 1102 781 1144 867 q 1008 601 1060 696 q 908 420 957 507 q 819 262 860 333 q 758 153 779 190 q 727 99 743 125 q 693 46 711 74 q 635 1 671 13 q 561 -11 599 -11 q 524 -8 544 -11 q 487 4 504 -4 q 458 27 469 13 q 446 64 446 42 q 465 128 446 82 q 514 239 483 174 q 585 382 544 304 q 669 541 625 460 q 756 701 713 622 q 838 847 800 781 q 904 963 875 914 q 947 1035 933 1013 q 1016 1086 971 1071 q 1103 1101 1061 1101 m 1428 350 q 1463 356 1450 350 q 1500 363 1476 363 q 1531 354 1519 363 q 1551 332 1543 346 q 1561 303 1558 318 q 1564 272 1564 288 q 1561 238 1564 257 q 1551 201 1558 218 q 1531 173 1543 185 q 1499 161 1518 161 q 1468 165 1479 161 q 1438 169 1457 169 q 1428 169 1433 169 q 1424 163 1424 168 q 1430 142 1424 154 q 1443 117 1436 131 q 1456 88 1450 103 q 1463 56 1463 72 q 1444 19 1463 35 q 1401 -6 1426 4 q 1350 -20 1376 -15 q 1307 -25 1324 -25 q 1268 -22 1289 -25 q 1231 -12 1247 -19 q 1203 9 1214 -4 q 1192 43 1192 22 q 1199 97 1192 75 q 1206 149 1206 118 q 1199 166 1206 163 q 1181 169 1192 169 q 1095 159 1136 169 q 1006 149 1054 149 q 929 172 963 149 q 896 244 896 194 q 902 296 896 269 q 919 347 908 322 q 972 459 940 400 q 1042 568 1003 518 q 1129 651 1082 618 q 1229 683 1176 683 q 1319 669 1285 683 q 1374 628 1354 654 q 1402 564 1394 601 q 1410 481 1410 526 q 1408 429 1410 454 q 1407 379 1407 404 q 1409 358 1407 367 q 1428 350 1411 350 m 1122 356 q 1131 342 1122 346 q 1153 339 1140 339 q 1178 343 1165 339 q 1199 356 1192 347 q 1211 379 1207 364 q 1215 409 1215 394 q 1210 435 1215 424 q 1192 446 1204 446 q 1164 437 1178 446 q 1140 415 1150 428 q 1126 385 1131 401 q 1122 356 1121 369 z "},"½":{"ha":1635,"x_min":33,"x_max":1581,"o":"m 492 1015 q 488 945 492 979 q 481 876 485 911 l 472 807 q 465 738 468 772 q 461 668 461 704 q 465 643 461 656 q 485 631 468 631 q 503 631 497 631 q 515 635 510 632 l 522 639 q 534 642 528 642 q 553 643 540 643 q 587 627 574 643 q 608 590 600 611 q 618 544 615 568 q 621 506 621 521 q 597 465 621 481 q 536 442 574 450 q 453 431 499 433 q 364 428 407 428 q 285 429 319 428 q 232 431 250 431 q 176 431 206 431 q 122 440 147 432 q 81 468 97 449 q 65 525 65 488 q 69 566 65 546 q 83 603 74 586 q 109 630 93 619 q 149 640 125 640 q 169 640 164 640 q 178 638 175 639 q 188 637 182 638 q 208 636 194 636 q 241 654 231 636 q 256 697 251 672 q 259 748 260 722 q 258 789 258 774 q 258 808 258 794 q 256 835 258 821 q 250 859 254 849 q 238 869 246 869 q 217 858 229 869 q 191 833 204 846 q 164 808 178 819 q 138 796 150 796 q 101 810 119 796 q 67 847 82 825 q 43 891 53 868 q 33 931 33 914 q 53 987 33 960 q 103 1037 72 1014 q 172 1078 133 1060 q 251 1111 211 1097 q 327 1132 290 1125 q 390 1139 364 1139 q 470 1103 449 1139 q 492 1015 492 1068 m 1103 1101 q 1135 1097 1118 1101 q 1167 1084 1153 1093 q 1190 1062 1181 1075 q 1199 1031 1199 1049 q 1172 933 1199 1000 q 1102 781 1144 867 q 1008 601 1060 696 q 908 420 957 507 q 819 262 860 333 q 758 153 779 190 q 727 99 743 125 q 693 46 711 74 q 635 1 671 13 q 561 -11 599 -11 q 524 -8 544 -11 q 487 4 504 -4 q 458 27 469 13 q 446 64 446 42 q 465 128 446 82 q 514 239 483 174 q 585 382 544 304 q 669 541 625 460 q 756 701 713 622 q 838 847 800 781 q 904 963 875 914 q 947 1035 933 1013 q 1016 1086 971 1071 q 1103 1101 1061 1101 m 1250 674 q 1358 663 1307 674 q 1447 628 1408 651 q 1508 565 1486 604 q 1531 472 1531 526 q 1501 353 1531 399 q 1437 279 1472 308 q 1372 231 1401 250 q 1343 193 1343 213 q 1351 172 1343 178 q 1372 167 1360 167 q 1406 172 1392 167 q 1433 182 1419 176 q 1461 192 1447 188 q 1494 197 1475 197 q 1531 183 1515 197 q 1558 150 1547 169 q 1575 108 1569 131 q 1581 68 1581 85 q 1573 31 1581 47 q 1544 3 1565 14 q 1465 -25 1503 -17 q 1381 -33 1428 -33 q 1324 -33 1358 -33 q 1249 -27 1289 -32 q 1168 -14 1208 -22 q 1095 10 1128 -6 q 1042 49 1063 26 q 1022 106 1022 72 q 1041 156 1022 129 q 1088 211 1060 183 q 1148 266 1115 239 q 1208 317 1181 293 q 1255 361 1236 342 q 1274 393 1274 381 q 1222 454 1274 454 q 1198 443 1210 454 q 1175 418 1186 432 q 1153 393 1164 404 q 1129 382 1142 382 q 1078 394 1101 382 q 1039 427 1056 407 q 1013 474 1022 447 q 1003 531 1003 501 q 1031 589 1003 563 q 1097 634 1058 615 q 1178 663 1136 653 q 1250 674 1221 674 z "},"¾":{"ha":1563,"x_min":40,"x_max":1493,"o":"m 276 1117 q 363 1103 319 1117 q 442 1065 407 1089 q 499 1010 476 1042 q 521 940 521 978 q 510 890 521 910 q 485 858 499 871 q 460 835 471 844 q 449 818 449 826 q 465 798 449 811 q 500 763 481 785 q 535 706 519 740 q 551 624 551 672 q 532 532 551 572 q 479 464 513 492 q 401 422 446 436 q 304 407 356 407 q 207 417 254 407 q 123 449 160 428 q 65 503 86 471 q 43 579 43 536 q 70 647 43 617 q 135 678 97 678 q 168 664 153 678 q 199 634 183 650 q 231 604 215 618 q 268 590 247 590 q 315 604 290 590 q 339 644 339 618 q 313 681 339 669 q 256 701 288 692 q 199 726 225 711 q 174 771 174 740 q 196 823 174 804 q 244 853 218 842 q 292 874 269 865 q 314 896 314 883 q 304 914 314 907 q 288 921 294 921 q 256 910 275 921 q 217 885 238 899 q 174 860 196 871 q 136 849 153 849 q 101 860 118 849 q 70 891 83 872 q 49 931 57 910 q 40 971 40 953 q 67 1034 40 1007 q 132 1079 94 1061 q 210 1107 169 1097 q 276 1117 250 1117 m 1032 1101 q 1065 1097 1047 1101 q 1096 1084 1082 1093 q 1119 1062 1110 1075 q 1128 1031 1128 1049 q 1101 933 1128 1000 q 1031 781 1074 867 q 938 601 989 696 q 838 420 886 507 q 748 262 789 333 q 688 153 707 190 q 656 99 672 125 q 622 46 640 74 q 564 1 600 13 q 490 -11 528 -11 q 453 -8 474 -11 q 416 4 433 -4 q 387 27 399 13 q 375 64 375 42 q 394 128 375 82 q 443 239 413 174 q 514 382 474 304 q 598 541 554 460 q 685 701 642 622 q 767 847 729 781 q 833 963 804 914 q 876 1035 863 1013 q 945 1086 900 1071 q 1032 1101 990 1101 m 1357 350 q 1392 356 1379 350 q 1429 363 1406 363 q 1460 354 1449 363 q 1480 332 1472 346 q 1490 303 1488 318 q 1493 272 1493 288 q 1490 238 1493 257 q 1480 201 1488 218 q 1460 173 1472 185 q 1428 161 1447 161 q 1397 165 1408 161 q 1367 169 1386 169 q 1358 169 1363 169 q 1353 163 1353 168 q 1359 142 1353 154 q 1372 117 1365 131 q 1385 88 1379 103 q 1392 56 1392 72 q 1374 19 1392 35 q 1331 -6 1356 4 q 1279 -20 1306 -15 q 1236 -25 1253 -25 q 1197 -22 1218 -25 q 1160 -12 1176 -19 q 1132 9 1143 -4 q 1121 43 1121 22 q 1128 97 1121 75 q 1135 149 1135 118 q 1128 166 1135 163 q 1110 169 1121 169 q 1024 159 1065 169 q 935 149 983 149 q 858 172 892 149 q 825 244 825 194 q 831 296 825 269 q 849 347 838 322 q 901 459 869 400 q 972 568 932 518 q 1058 651 1011 618 q 1158 683 1106 683 q 1249 669 1214 683 q 1303 628 1283 654 q 1331 564 1324 601 q 1339 481 1339 526 q 1338 429 1339 454 q 1336 379 1336 404 q 1338 358 1336 367 q 1357 350 1340 350 m 1051 356 q 1062 342 1053 346 q 1082 339 1071 339 q 1108 343 1096 339 q 1128 356 1121 347 q 1140 379 1136 364 q 1144 409 1144 394 q 1139 435 1144 424 q 1121 446 1133 446 q 1094 437 1107 446 q 1071 415 1081 428 q 1056 385 1061 401 q 1051 356 1050 369 z "},"¿":{"ha":706,"x_min":33,"x_max":678,"o":"m 246 717 q 287 796 246 768 q 382 824 328 824 q 467 792 436 824 q 499 697 499 761 q 494 651 499 674 q 477 610 489 628 q 447 581 465 592 q 401 569 429 569 q 344 582 372 569 q 294 615 317 594 q 259 661 272 635 q 246 717 246 688 m 303 13 q 320 -61 303 -33 q 367 -89 338 -89 q 406 -71 392 -89 q 433 -31 419 -53 q 467 8 447 -10 q 522 26 486 26 q 579 13 551 26 q 629 -22 607 0 q 665 -74 651 -44 q 678 -136 678 -104 q 640 -232 678 -192 q 551 -298 603 -272 q 442 -335 499 -324 q 346 -347 385 -347 q 203 -324 263 -347 q 107 -258 144 -300 q 51 -160 69 -217 q 33 -39 33 -104 q 48 78 33 32 q 84 153 63 124 q 131 202 106 183 q 177 238 156 221 q 213 274 199 254 q 228 324 228 293 q 225 356 228 342 q 219 381 222 369 q 214 405 217 393 q 211 432 211 417 q 231 481 211 461 q 280 513 251 501 q 339 528 308 524 q 392 533 369 533 q 453 524 425 533 q 504 494 482 514 q 539 442 526 474 q 551 368 551 411 q 533 278 551 313 q 487 222 514 244 q 427 182 460 199 q 367 144 394 165 q 322 93 340 124 q 303 13 303 63 z "},"À":{"ha":1142,"x_min":-19,"x_max":1156,"o":"m 800 1153 q 729 1131 769 1131 q 650 1147 692 1131 q 571 1185 608 1163 q 503 1232 533 1208 q 457 1271 472 1256 q 416 1314 436 1292 q 388 1360 396 1336 q 387 1410 379 1385 q 429 1463 394 1436 q 515 1497 475 1497 q 590 1464 557 1497 q 638 1401 618 1436 q 686 1338 657 1365 q 717 1309 701 1322 q 749 1281 733 1296 q 776 1251 761 1268 q 801 1215 792 1233 q 813 1181 811 1197 q 800 1153 815 1164 m 1156 63 q 1133 12 1156 31 q 1081 -17 1111 -7 q 1018 -29 1050 -26 q 965 -32 986 -32 q 910 -30 942 -32 q 844 -23 878 -28 q 781 -11 811 -18 q 731 7 751 -4 q 700 36 707 19 q 693 81 693 53 q 699 145 693 114 q 704 207 704 176 q 607 310 704 310 q 567 306 589 310 q 524 295 544 301 q 484 281 503 289 q 451 263 465 272 q 416 225 428 246 q 400 181 404 204 q 397 135 396 158 q 397 89 397 111 q 364 -35 397 -1 q 257 -69 331 -69 q 174 -62 222 -69 q 83 -40 126 -56 q 10 -1 40 -25 q -19 57 -19 22 q 40 312 0 185 q 135 555 81 439 q 252 770 189 671 q 382 940 315 869 q 449 1005 418 981 q 505 1042 479 1029 q 554 1060 531 1056 q 600 1065 578 1065 q 742 1010 675 1065 q 865 866 808 954 q 970 669 922 778 q 1054 453 1018 560 q 1114 253 1090 346 q 1149 103 1138 160 q 1154 69 1154 81 q 1156 63 1156 64 m 453 558 q 465 524 453 538 q 493 501 476 510 q 529 488 510 492 q 563 485 549 485 q 597 488 576 485 q 635 500 617 492 q 665 522 653 508 q 678 557 678 536 q 667 597 678 575 q 640 637 657 618 q 602 668 624 656 q 560 681 581 681 q 519 668 539 681 q 485 638 500 656 q 462 598 471 619 q 453 558 453 576 z "},"Á":{"ha":1142,"x_min":-19,"x_max":1156,"o":"m 397 1153 q 383 1181 382 1164 q 395 1215 385 1197 q 422 1251 406 1233 q 450 1281 438 1268 q 483 1309 467 1296 q 515 1338 500 1322 q 564 1401 544 1365 q 614 1464 583 1436 q 690 1497 650 1497 q 779 1463 732 1497 q 823 1410 815 1436 q 822 1360 831 1385 q 792 1314 813 1336 q 750 1271 772 1292 q 702 1232 733 1256 q 633 1185 671 1208 q 551 1147 594 1163 q 469 1131 508 1131 q 397 1153 428 1131 m 1156 63 q 1133 12 1156 31 q 1081 -17 1111 -7 q 1018 -29 1050 -26 q 965 -32 986 -32 q 910 -30 942 -32 q 844 -23 878 -28 q 781 -11 811 -18 q 731 7 751 -4 q 700 36 707 19 q 693 81 693 53 q 699 145 693 114 q 704 207 704 176 q 607 310 704 310 q 567 306 589 310 q 524 295 544 301 q 484 281 503 289 q 451 263 465 272 q 416 225 428 246 q 400 181 404 204 q 397 135 396 158 q 397 89 397 111 q 364 -35 397 -1 q 257 -69 331 -69 q 174 -62 222 -69 q 83 -40 126 -56 q 10 -1 40 -25 q -19 57 -19 22 q 40 312 0 185 q 135 555 81 439 q 252 770 189 671 q 382 940 315 869 q 449 1005 418 981 q 505 1042 479 1029 q 554 1060 531 1056 q 600 1065 578 1065 q 742 1010 675 1065 q 865 866 808 954 q 970 669 922 778 q 1054 453 1018 560 q 1114 253 1090 346 q 1149 103 1138 160 q 1154 69 1154 81 q 1156 63 1156 64 m 453 558 q 465 524 453 538 q 493 501 476 510 q 529 488 510 492 q 563 485 549 485 q 597 488 576 485 q 635 500 617 492 q 665 522 653 508 q 678 557 678 536 q 667 597 678 575 q 640 637 657 618 q 602 668 624 656 q 560 681 581 681 q 519 668 539 681 q 485 638 500 656 q 462 598 471 619 q 453 558 453 576 z "},"Â":{"ha":1142,"x_min":-19,"x_max":1156,"o":"m 606 1465 q 694 1435 640 1465 q 797 1362 747 1404 q 883 1274 847 1319 q 919 1197 919 1228 q 906 1163 919 1179 q 871 1133 892 1146 q 827 1113 850 1121 q 786 1106 804 1106 q 735 1131 760 1106 q 688 1185 710 1156 q 647 1240 665 1215 q 613 1265 628 1265 q 581 1240 600 1265 q 538 1185 563 1215 q 481 1131 513 1156 q 411 1106 449 1106 q 333 1129 367 1106 q 300 1194 300 1153 q 334 1274 300 1228 q 416 1363 368 1319 q 516 1435 464 1406 q 606 1465 568 1465 m 1156 63 q 1133 12 1156 31 q 1081 -17 1111 -7 q 1018 -29 1050 -26 q 965 -32 986 -32 q 910 -30 942 -32 q 844 -23 878 -28 q 781 -11 811 -18 q 731 7 751 -4 q 700 36 707 19 q 693 81 693 53 q 699 145 693 114 q 704 207 704 176 q 607 310 704 310 q 567 306 589 310 q 524 295 544 301 q 484 281 503 289 q 451 263 465 272 q 416 225 428 246 q 400 181 404 204 q 397 135 396 158 q 397 89 397 111 q 364 -35 397 -1 q 257 -69 331 -69 q 174 -62 222 -69 q 83 -40 126 -56 q 10 -1 40 -25 q -19 57 -19 22 q 40 312 0 185 q 135 555 81 439 q 252 770 189 671 q 382 940 315 869 q 449 1005 418 981 q 505 1042 479 1029 q 554 1060 531 1056 q 600 1065 578 1065 q 742 1010 675 1065 q 865 866 808 954 q 970 669 922 778 q 1054 453 1018 560 q 1114 253 1090 346 q 1149 103 1138 160 q 1154 69 1154 81 q 1156 63 1156 64 m 453 558 q 465 524 453 538 q 493 501 476 510 q 529 488 510 492 q 563 485 549 485 q 597 488 576 485 q 635 500 617 492 q 665 522 653 508 q 678 557 678 536 q 667 597 678 575 q 640 637 657 618 q 602 668 624 656 q 560 681 581 681 q 519 668 539 681 q 485 638 500 656 q 462 598 471 619 q 453 558 453 576 z "},"Ã":{"ha":1142,"x_min":-19,"x_max":1156,"o":"m 465 1208 q 447 1190 451 1208 q 432 1149 442 1171 q 399 1108 422 1126 q 326 1089 376 1089 q 290 1099 308 1089 q 255 1126 271 1110 q 228 1160 239 1142 q 218 1197 218 1179 q 234 1303 218 1251 q 278 1393 250 1354 q 347 1456 307 1432 q 435 1479 386 1479 q 538 1460 500 1479 q 597 1419 575 1442 q 632 1377 618 1396 q 664 1358 646 1358 q 688 1375 676 1358 q 713 1412 699 1392 q 747 1449 726 1432 q 800 1465 768 1465 q 841 1456 819 1465 q 881 1432 863 1447 q 911 1397 899 1417 q 924 1358 924 1378 q 906 1264 924 1310 q 858 1183 889 1218 q 786 1126 828 1147 q 694 1106 744 1106 q 608 1122 644 1106 q 547 1157 572 1138 q 501 1192 521 1176 q 465 1208 482 1208 m 1156 63 q 1133 12 1156 31 q 1081 -17 1111 -7 q 1018 -29 1050 -26 q 965 -32 986 -32 q 910 -30 942 -32 q 844 -23 878 -28 q 781 -11 811 -18 q 731 7 751 -4 q 700 36 707 19 q 693 81 693 53 q 699 145 693 114 q 704 207 704 176 q 607 310 704 310 q 567 306 589 310 q 524 295 544 301 q 484 281 503 289 q 451 263 465 272 q 416 225 428 246 q 400 181 404 204 q 397 135 396 158 q 397 89 397 111 q 364 -35 397 -1 q 257 -69 331 -69 q 174 -62 222 -69 q 83 -40 126 -56 q 10 -1 40 -25 q -19 57 -19 22 q 40 312 0 185 q 135 555 81 439 q 252 770 189 671 q 382 940 315 869 q 449 1005 418 981 q 505 1042 479 1029 q 554 1060 531 1056 q 600 1065 578 1065 q 742 1010 675 1065 q 865 866 808 954 q 970 669 922 778 q 1054 453 1018 560 q 1114 253 1090 346 q 1149 103 1138 160 q 1154 69 1154 81 q 1156 63 1156 64 m 453 558 q 465 524 453 538 q 493 501 476 510 q 529 488 510 492 q 563 485 549 485 q 597 488 576 485 q 635 500 617 492 q 665 522 653 508 q 678 557 678 536 q 667 597 678 575 q 640 637 657 618 q 602 668 624 656 q 560 681 581 681 q 519 668 539 681 q 485 638 500 656 q 462 598 471 619 q 453 558 453 576 z "},"Ä":{"ha":1142,"x_min":-19,"x_max":1156,"o":"m 721 1450 q 779 1436 753 1450 q 826 1399 806 1422 q 857 1349 846 1376 q 868 1293 868 1321 q 851 1231 868 1258 q 810 1183 835 1203 q 755 1151 785 1163 q 699 1140 725 1140 q 647 1153 669 1140 q 610 1185 625 1165 q 587 1231 594 1206 q 579 1281 579 1256 q 589 1340 579 1310 q 617 1394 599 1369 q 662 1435 636 1419 q 721 1450 688 1450 m 415 1433 q 474 1419 447 1433 q 520 1383 500 1406 q 551 1332 540 1360 q 563 1276 563 1304 q 546 1214 563 1242 q 504 1166 529 1186 q 449 1135 479 1146 q 393 1124 419 1124 q 342 1136 364 1124 q 304 1169 319 1149 q 281 1214 289 1189 q 274 1264 274 1239 q 283 1323 274 1293 q 312 1378 293 1353 q 356 1418 331 1403 q 415 1433 382 1433 m 1156 63 q 1133 12 1156 31 q 1081 -17 1111 -7 q 1018 -29 1050 -26 q 965 -32 986 -32 q 910 -30 942 -32 q 844 -23 878 -28 q 781 -11 811 -18 q 731 7 751 -4 q 700 36 707 19 q 693 81 693 53 q 699 145 693 114 q 704 207 704 176 q 607 310 704 310 q 567 306 589 310 q 524 295 544 301 q 484 281 503 289 q 451 263 465 272 q 416 225 428 246 q 400 181 404 204 q 397 135 396 158 q 397 89 397 111 q 364 -35 397 -1 q 257 -69 331 -69 q 174 -62 222 -69 q 83 -40 126 -56 q 10 -1 40 -25 q -19 57 -19 22 q 40 312 0 185 q 135 555 81 439 q 252 770 189 671 q 382 940 315 869 q 449 1005 418 981 q 505 1042 479 1029 q 554 1060 531 1056 q 600 1065 578 1065 q 742 1010 675 1065 q 865 866 808 954 q 970 669 922 778 q 1054 453 1018 560 q 1114 253 1090 346 q 1149 103 1138 160 q 1154 69 1154 81 q 1156 63 1156 64 m 453 558 q 465 524 453 538 q 493 501 476 510 q 529 488 510 492 q 563 485 549 485 q 597 488 576 485 q 635 500 617 492 q 665 522 653 508 q 678 557 678 536 q 667 597 678 575 q 640 637 657 618 q 602 668 624 656 q 560 681 581 681 q 519 668 539 681 q 485 638 500 656 q 462 598 471 619 q 453 558 453 576 z "},"Å":{"ha":1142,"x_min":-19,"x_max":1156,"o":"m 572 1129 q 478 1138 525 1129 q 394 1167 431 1146 q 334 1226 357 1189 q 311 1321 311 1264 q 331 1403 311 1365 q 384 1469 351 1442 q 457 1511 417 1496 q 539 1526 497 1526 q 638 1518 586 1526 q 733 1487 690 1510 q 804 1424 776 1464 q 832 1321 832 1383 q 808 1220 832 1258 q 745 1162 783 1182 q 661 1135 707 1142 q 572 1129 615 1129 m 576 1358 q 557 1358 568 1358 q 536 1356 546 1358 q 519 1347 526 1353 q 513 1328 513 1340 q 532 1295 513 1301 q 572 1289 551 1289 q 596 1290 582 1289 q 623 1294 610 1290 q 646 1303 636 1297 q 656 1321 656 1310 q 647 1342 656 1335 q 625 1353 638 1350 q 599 1358 613 1357 q 576 1358 586 1358 m 1156 63 q 1133 12 1156 31 q 1081 -17 1111 -7 q 1018 -29 1050 -26 q 965 -32 986 -32 q 910 -30 942 -32 q 844 -23 878 -28 q 781 -11 811 -18 q 731 7 751 -4 q 700 36 707 19 q 693 81 693 53 q 699 145 693 114 q 704 207 704 176 q 607 310 704 310 q 567 306 589 310 q 524 295 544 301 q 484 281 503 289 q 451 263 465 272 q 416 225 428 246 q 400 181 404 204 q 397 135 396 158 q 397 89 397 111 q 364 -35 397 -1 q 257 -69 331 -69 q 174 -62 222 -69 q 83 -40 126 -56 q 10 -1 40 -25 q -19 57 -19 22 q 40 312 0 185 q 135 555 81 439 q 252 770 189 671 q 382 940 315 869 q 449 1005 418 981 q 505 1042 479 1029 q 554 1060 531 1056 q 600 1065 578 1065 q 742 1010 675 1065 q 865 866 808 954 q 970 669 922 778 q 1054 453 1018 560 q 1114 253 1090 346 q 1149 103 1138 160 q 1154 69 1154 81 q 1156 63 1156 64 m 453 558 q 465 524 453 538 q 493 501 476 510 q 529 488 510 492 q 563 485 549 485 q 597 488 576 485 q 635 500 617 492 q 665 522 653 508 q 678 557 678 536 q 667 597 678 575 q 640 637 657 618 q 602 668 624 656 q 560 681 581 681 q 519 668 539 681 q 485 638 500 656 q 462 598 471 619 q 453 558 453 576 z "},"Æ":{"ha":1575,"x_min":-19,"x_max":1574,"o":"m 1132 1101 q 1205 1099 1164 1101 q 1288 1089 1246 1096 q 1368 1072 1329 1082 q 1436 1046 1407 1061 q 1469 1022 1457 1035 q 1488 995 1482 1010 q 1496 963 1494 981 q 1497 922 1497 944 q 1467 796 1497 839 q 1390 733 1438 753 q 1280 712 1342 714 q 1153 710 1218 710 q 1120 709 1139 710 q 1085 703 1101 708 q 1057 686 1068 697 q 1046 656 1046 675 q 1066 624 1046 629 q 1107 618 1086 618 q 1188 624 1147 618 q 1268 629 1228 629 q 1360 600 1328 629 q 1392 510 1392 571 q 1385 453 1392 481 q 1362 403 1378 425 q 1322 369 1346 382 q 1265 357 1299 357 q 1201 363 1233 357 q 1138 368 1169 368 q 1113 367 1128 368 q 1085 361 1097 367 q 1097 322 1092 342 q 1107 285 1101 303 q 1147 279 1122 279 q 1267 290 1208 279 q 1388 301 1325 301 q 1463 276 1429 301 q 1522 215 1497 251 q 1560 135 1547 178 q 1574 56 1574 92 q 1547 9 1574 29 q 1478 -26 1519 -11 q 1385 -51 1436 -40 q 1285 -67 1333 -61 q 1196 -76 1236 -74 q 1136 -79 1156 -79 q 1058 -77 1100 -79 q 974 -69 1017 -75 q 889 -50 931 -62 q 813 -18 847 -37 q 767 -8 789 -14 q 729 8 746 -3 q 703 35 713 18 q 693 81 693 51 q 699 145 693 114 q 704 207 704 176 q 607 310 704 310 q 567 306 589 310 q 524 295 544 301 q 484 281 503 289 q 451 263 465 272 q 416 225 428 246 q 400 181 404 204 q 397 135 396 158 q 397 89 397 111 q 364 -35 397 -1 q 257 -69 331 -69 q 174 -62 222 -69 q 83 -40 126 -56 q 10 -1 40 -25 q -19 57 -19 22 q 40 312 0 185 q 135 555 81 439 q 252 770 189 671 q 382 940 315 869 q 449 1005 418 981 q 505 1042 479 1029 q 554 1060 531 1056 q 600 1065 578 1065 q 678 1049 644 1065 q 744 1006 711 1033 q 815 1052 764 1033 q 926 1082 867 1071 q 1042 1097 985 1093 q 1132 1101 1100 1101 m 453 558 q 465 524 453 538 q 493 501 476 510 q 529 488 510 492 q 563 485 549 485 q 597 488 576 485 q 635 500 617 492 q 665 522 653 508 q 678 557 678 536 q 667 597 678 575 q 640 637 657 618 q 602 668 624 656 q 560 681 581 681 q 519 668 539 681 q 485 638 500 656 q 462 598 471 619 q 453 558 453 576 z "},"Ç":{"ha":974,"x_min":15,"x_max":965,"o":"m 683 1065 q 849 1006 794 1065 q 904 838 904 946 q 897 781 904 817 q 874 712 890 746 q 829 652 857 678 q 760 626 801 626 q 699 647 721 626 q 658 692 678 667 q 612 737 638 717 q 540 757 586 757 q 469 740 503 757 q 408 692 435 722 q 367 618 382 661 q 351 522 351 575 q 364 437 351 479 q 401 362 376 394 q 463 309 426 329 q 546 289 499 289 q 630 313 596 289 q 691 367 664 338 q 742 422 718 397 q 794 446 765 446 q 862 413 831 446 q 916 335 893 381 q 952 242 939 289 q 965 165 965 194 q 932 60 965 100 q 849 -2 899 19 q 740 -31 799 -24 q 632 -39 682 -39 q 672 -76 654 -53 q 690 -149 690 -99 q 663 -244 690 -206 q 592 -306 635 -282 q 499 -339 550 -329 q 400 -349 447 -349 q 342 -335 365 -349 q 306 -299 319 -321 q 288 -249 293 -276 q 283 -197 283 -222 q 294 -166 283 -176 q 322 -151 306 -156 q 359 -144 339 -146 q 396 -140 379 -143 q 424 -127 413 -136 q 435 -99 435 -118 q 428 -76 435 -86 q 413 -58 422 -67 q 395 -37 404 -49 q 382 -12 386 -26 q 224 47 293 8 q 109 149 156 86 q 39 301 63 213 q 15 507 15 389 q 62 770 15 664 q 195 942 108 876 q 406 1037 282 1008 q 683 1065 529 1065 z "},"È":{"ha":919,"x_min":42,"x_max":918,"o":"m 689 1153 q 618 1131 658 1131 q 539 1147 581 1131 q 460 1185 497 1163 q 392 1232 422 1208 q 346 1271 361 1256 q 305 1314 325 1292 q 276 1360 285 1336 q 276 1410 268 1385 q 318 1463 283 1436 q 404 1497 364 1497 q 479 1464 446 1497 q 526 1401 507 1436 q 575 1338 546 1365 q 606 1309 590 1322 q 638 1281 622 1296 q 665 1251 650 1268 q 690 1215 681 1233 q 702 1181 700 1197 q 689 1153 704 1164 m 476 1101 q 549 1099 508 1101 q 632 1089 590 1096 q 713 1072 674 1082 q 781 1046 751 1061 q 814 1022 801 1035 q 833 995 826 1010 q 840 963 839 981 q 842 922 842 944 q 812 796 842 839 q 734 733 782 753 q 624 712 686 714 q 497 710 563 710 q 465 709 483 710 q 429 703 446 708 q 401 686 413 697 q 390 656 390 675 q 410 624 390 629 q 451 618 431 618 q 532 624 492 618 q 613 629 572 629 q 704 600 672 629 q 736 510 736 571 q 729 453 736 481 q 706 403 722 425 q 667 369 690 382 q 610 357 643 357 q 546 363 578 357 q 482 368 514 368 q 463 367 475 368 q 440 364 451 367 q 422 356 429 361 q 414 339 414 350 q 437 290 414 301 q 492 279 460 279 q 611 290 553 279 q 732 301 669 301 q 808 276 774 301 q 867 215 842 251 q 905 135 892 178 q 918 56 918 92 q 891 9 918 29 q 822 -26 864 -11 q 729 -51 781 -40 q 629 -67 678 -61 q 540 -76 581 -74 q 481 -79 500 -79 q 394 -76 442 -79 q 299 -65 347 -74 q 207 -41 251 -57 q 128 1 163 -25 q 74 66 94 28 q 53 157 53 104 q 49 413 53 286 q 46 668 46 539 q 44 743 46 690 q 47 855 42 796 q 68 965 51 914 q 121 1035 85 1017 q 203 1065 157 1053 q 298 1086 250 1078 q 392 1098 346 1094 q 476 1101 439 1101 z "},"É":{"ha":919,"x_min":42,"x_max":918,"o":"m 286 1153 q 272 1181 271 1164 q 284 1215 274 1197 q 310 1251 294 1233 q 339 1281 326 1268 q 372 1309 356 1296 q 404 1338 389 1322 q 453 1401 433 1365 q 503 1464 472 1436 q 579 1497 539 1497 q 668 1463 621 1497 q 712 1410 704 1436 q 710 1360 719 1385 q 681 1314 701 1336 q 639 1271 661 1292 q 591 1232 622 1256 q 522 1185 560 1208 q 440 1147 483 1163 q 358 1131 397 1131 q 286 1153 317 1131 m 476 1101 q 549 1099 508 1101 q 632 1089 590 1096 q 713 1072 674 1082 q 781 1046 751 1061 q 814 1022 801 1035 q 833 995 826 1010 q 840 963 839 981 q 842 922 842 944 q 812 796 842 839 q 734 733 782 753 q 624 712 686 714 q 497 710 563 710 q 465 709 483 710 q 429 703 446 708 q 401 686 413 697 q 390 656 390 675 q 410 624 390 629 q 451 618 431 618 q 532 624 492 618 q 613 629 572 629 q 704 600 672 629 q 736 510 736 571 q 729 453 736 481 q 706 403 722 425 q 667 369 690 382 q 610 357 643 357 q 546 363 578 357 q 482 368 514 368 q 463 367 475 368 q 440 364 451 367 q 422 356 429 361 q 414 339 414 350 q 437 290 414 301 q 492 279 460 279 q 611 290 553 279 q 732 301 669 301 q 808 276 774 301 q 867 215 842 251 q 905 135 892 178 q 918 56 918 92 q 891 9 918 29 q 822 -26 864 -11 q 729 -51 781 -40 q 629 -67 678 -61 q 540 -76 581 -74 q 481 -79 500 -79 q 394 -76 442 -79 q 299 -65 347 -74 q 207 -41 251 -57 q 128 1 163 -25 q 74 66 94 28 q 53 157 53 104 q 49 413 53 286 q 46 668 46 539 q 44 743 46 690 q 47 855 42 796 q 68 965 51 914 q 121 1035 85 1017 q 203 1065 157 1053 q 298 1086 250 1078 q 392 1098 346 1094 q 476 1101 439 1101 z "},"Ê":{"ha":919,"x_min":42,"x_max":918,"o":"m 494 1465 q 583 1435 529 1465 q 686 1362 636 1404 q 772 1274 736 1319 q 808 1197 808 1228 q 794 1163 808 1179 q 760 1133 781 1146 q 716 1113 739 1121 q 675 1106 693 1106 q 624 1131 649 1106 q 576 1185 599 1156 q 535 1240 554 1215 q 501 1265 517 1265 q 470 1240 489 1265 q 426 1185 451 1215 q 369 1131 401 1156 q 300 1106 338 1106 q 222 1129 256 1106 q 189 1194 189 1153 q 223 1274 189 1228 q 305 1363 257 1319 q 405 1435 353 1406 q 494 1465 457 1465 m 476 1101 q 549 1099 508 1101 q 632 1089 590 1096 q 713 1072 674 1082 q 781 1046 751 1061 q 814 1022 801 1035 q 833 995 826 1010 q 840 963 839 981 q 842 922 842 944 q 812 796 842 839 q 734 733 782 753 q 624 712 686 714 q 497 710 563 710 q 465 709 483 710 q 429 703 446 708 q 401 686 413 697 q 390 656 390 675 q 410 624 390 629 q 451 618 431 618 q 532 624 492 618 q 613 629 572 629 q 704 600 672 629 q 736 510 736 571 q 729 453 736 481 q 706 403 722 425 q 667 369 690 382 q 610 357 643 357 q 546 363 578 357 q 482 368 514 368 q 463 367 475 368 q 440 364 451 367 q 422 356 429 361 q 414 339 414 350 q 437 290 414 301 q 492 279 460 279 q 611 290 553 279 q 732 301 669 301 q 808 276 774 301 q 867 215 842 251 q 905 135 892 178 q 918 56 918 92 q 891 9 918 29 q 822 -26 864 -11 q 729 -51 781 -40 q 629 -67 678 -61 q 540 -76 581 -74 q 481 -79 500 -79 q 394 -76 442 -79 q 299 -65 347 -74 q 207 -41 251 -57 q 128 1 163 -25 q 74 66 94 28 q 53 157 53 104 q 49 413 53 286 q 46 668 46 539 q 44 743 46 690 q 47 855 42 796 q 68 965 51 914 q 121 1035 85 1017 q 203 1065 157 1053 q 298 1086 250 1078 q 392 1098 346 1094 q 476 1101 439 1101 z "},"Ë":{"ha":919,"x_min":42,"x_max":918,"o":"m 610 1450 q 668 1436 642 1450 q 715 1399 694 1422 q 746 1349 735 1376 q 757 1293 757 1321 q 740 1231 757 1258 q 699 1183 724 1203 q 644 1151 674 1163 q 588 1140 614 1140 q 536 1153 558 1140 q 499 1185 514 1165 q 476 1231 483 1206 q 468 1281 468 1256 q 478 1340 468 1310 q 506 1394 488 1369 q 551 1435 525 1419 q 610 1450 576 1450 m 304 1433 q 363 1419 336 1433 q 409 1383 389 1406 q 440 1332 429 1360 q 451 1276 451 1304 q 435 1214 451 1242 q 393 1166 418 1186 q 338 1135 368 1146 q 282 1124 308 1124 q 231 1136 253 1124 q 193 1169 208 1149 q 170 1214 178 1189 q 163 1264 163 1239 q 172 1323 163 1293 q 201 1378 182 1353 q 245 1418 219 1403 q 304 1433 271 1433 m 476 1101 q 549 1099 508 1101 q 632 1089 590 1096 q 713 1072 674 1082 q 781 1046 751 1061 q 814 1022 801 1035 q 833 995 826 1010 q 840 963 839 981 q 842 922 842 944 q 812 796 842 839 q 734 733 782 753 q 624 712 686 714 q 497 710 563 710 q 465 709 483 710 q 429 703 446 708 q 401 686 413 697 q 390 656 390 675 q 410 624 390 629 q 451 618 431 618 q 532 624 492 618 q 613 629 572 629 q 704 600 672 629 q 736 510 736 571 q 729 453 736 481 q 706 403 722 425 q 667 369 690 382 q 610 357 643 357 q 546 363 578 357 q 482 368 514 368 q 463 367 475 368 q 440 364 451 367 q 422 356 429 361 q 414 339 414 350 q 437 290 414 301 q 492 279 460 279 q 611 290 553 279 q 732 301 669 301 q 808 276 774 301 q 867 215 842 251 q 905 135 892 178 q 918 56 918 92 q 891 9 918 29 q 822 -26 864 -11 q 729 -51 781 -40 q 629 -67 678 -61 q 540 -76 581 -74 q 481 -79 500 -79 q 394 -76 442 -79 q 299 -65 347 -74 q 207 -41 251 -57 q 128 1 163 -25 q 74 66 94 28 q 53 157 53 104 q 49 413 53 286 q 46 668 46 539 q 44 743 46 690 q 47 855 42 796 q 68 965 51 914 q 121 1035 85 1017 q 203 1065 157 1053 q 298 1086 250 1078 q 392 1098 346 1094 q 476 1101 439 1101 z "},"Ì":{"ha":585,"x_min":49,"x_max":546,"o":"m 486 1153 q 415 1131 456 1131 q 336 1147 378 1131 q 257 1185 294 1163 q 189 1232 219 1208 q 143 1271 158 1256 q 102 1314 122 1292 q 74 1360 82 1336 q 73 1410 65 1385 q 115 1463 81 1436 q 201 1497 161 1497 q 276 1464 243 1497 q 324 1401 304 1436 q 372 1338 343 1365 q 403 1309 388 1322 q 435 1281 419 1296 q 463 1251 447 1268 q 488 1215 478 1233 q 499 1181 497 1197 q 486 1153 501 1164 m 64 1006 q 83 1044 67 1028 q 122 1072 99 1061 q 175 1089 146 1083 q 233 1094 204 1094 q 327 1078 285 1094 q 379 1026 369 1061 q 416 884 397 964 q 452 715 435 804 q 485 534 469 626 q 514 355 501 442 q 535 192 526 268 q 544 60 543 115 q 524 3 546 28 q 465 -40 501 -22 q 383 -66 429 -57 q 292 -75 338 -75 q 171 -54 225 -75 q 103 11 117 -33 q 81 126 90 53 q 64 290 71 199 q 53 482 57 381 q 49 681 49 583 q 52 863 49 778 q 64 1006 56 947 z "},"Í":{"ha":585,"x_min":49,"x_max":546,"o":"m 88 1153 q 74 1181 72 1164 q 85 1215 75 1197 q 112 1251 96 1233 q 140 1281 128 1268 q 174 1309 157 1296 q 206 1338 190 1322 q 254 1401 235 1365 q 304 1464 274 1436 q 381 1497 340 1497 q 469 1463 422 1497 q 513 1410 506 1436 q 512 1360 521 1385 q 483 1314 503 1336 q 440 1271 463 1292 q 392 1232 424 1256 q 323 1185 361 1208 q 242 1147 285 1163 q 160 1131 199 1131 q 88 1153 118 1131 m 64 1006 q 83 1044 67 1028 q 122 1072 99 1061 q 175 1089 146 1083 q 233 1094 204 1094 q 327 1078 285 1094 q 379 1026 369 1061 q 416 884 397 964 q 452 715 435 804 q 485 534 469 626 q 514 355 501 442 q 535 192 526 268 q 544 60 543 115 q 524 3 546 28 q 465 -40 501 -22 q 383 -66 429 -57 q 292 -75 338 -75 q 171 -54 225 -75 q 103 11 117 -33 q 81 126 90 53 q 64 290 71 199 q 53 482 57 381 q 49 681 49 583 q 52 863 49 778 q 64 1006 56 947 z "},"Î":{"ha":585,"x_min":-14,"x_max":606,"o":"m 292 1454 q 380 1424 326 1454 q 483 1351 433 1393 q 569 1263 533 1308 q 606 1186 606 1217 q 592 1151 606 1168 q 557 1122 578 1135 q 513 1102 536 1110 q 472 1094 490 1094 q 421 1119 446 1094 q 374 1174 396 1144 q 333 1229 351 1204 q 299 1254 314 1254 q 267 1229 286 1254 q 224 1174 249 1204 q 167 1119 199 1144 q 97 1094 135 1094 q 19 1118 53 1094 q -14 1183 -14 1142 q 20 1263 -14 1217 q 102 1351 54 1308 q 202 1424 150 1394 q 292 1454 254 1454 m 64 1006 q 83 1044 67 1028 q 122 1072 99 1061 q 175 1089 146 1083 q 233 1094 204 1094 q 327 1078 285 1094 q 379 1026 369 1061 q 416 884 397 964 q 452 715 435 804 q 485 534 469 626 q 514 355 501 442 q 535 192 526 268 q 544 60 543 115 q 524 3 546 28 q 465 -40 501 -22 q 383 -66 429 -57 q 292 -75 338 -75 q 171 -54 225 -75 q 103 11 117 -33 q 81 126 90 53 q 64 290 71 199 q 53 482 57 381 q 49 681 49 583 q 52 863 49 778 q 64 1006 56 947 z "},"Ï":{"ha":585,"x_min":-36,"x_max":558,"o":"m 411 1450 q 469 1436 443 1450 q 516 1399 496 1422 q 547 1349 536 1376 q 558 1293 558 1321 q 542 1231 558 1258 q 500 1183 525 1203 q 445 1151 475 1163 q 389 1140 415 1140 q 338 1153 360 1140 q 300 1185 315 1165 q 277 1231 285 1206 q 269 1281 269 1256 q 279 1340 269 1310 q 308 1394 289 1369 q 352 1435 326 1419 q 411 1450 378 1450 m 106 1433 q 164 1419 138 1433 q 210 1383 190 1406 q 242 1332 231 1360 q 253 1276 253 1304 q 236 1214 253 1242 q 194 1166 219 1186 q 140 1135 169 1146 q 83 1124 110 1124 q 32 1136 54 1124 q -6 1169 10 1149 q -28 1214 -21 1189 q -36 1264 -36 1239 q -26 1323 -36 1293 q 2 1378 -17 1353 q 47 1418 21 1403 q 106 1433 72 1433 m 64 1006 q 83 1044 67 1028 q 122 1072 99 1061 q 175 1089 146 1083 q 233 1094 204 1094 q 327 1078 285 1094 q 379 1026 369 1061 q 416 884 397 964 q 452 715 435 804 q 485 534 469 626 q 514 355 501 442 q 535 192 526 268 q 544 60 543 115 q 524 3 546 28 q 465 -40 501 -22 q 383 -66 429 -57 q 292 -75 338 -75 q 171 -54 225 -75 q 103 11 117 -33 q 81 126 90 53 q 64 290 71 199 q 53 482 57 381 q 49 681 49 583 q 52 863 49 778 q 64 1006 56 947 z "},"Ð":{"ha":975,"x_min":-53,"x_max":958,"o":"m 958 415 q 926 250 958 324 q 840 120 894 176 q 712 24 785 64 q 558 -42 639 -17 q 392 -80 476 -68 q 228 -92 307 -92 q 131 -74 172 -92 q 72 3 89 -56 q 42 170 53 74 q 26 363 32 267 q -36 402 -19 374 q -53 479 -53 431 q -36 549 -53 529 q 22 585 -19 568 q 25 681 22 631 q 33 783 28 732 q 49 881 39 833 q 72 971 58 929 q 107 1025 85 1004 q 158 1058 129 1046 q 220 1073 188 1069 q 285 1076 253 1076 q 435 1063 360 1076 q 583 1033 510 1050 q 756 947 676 1011 q 875 794 835 882 q 936 609 914 707 q 958 415 958 511 m 388 371 q 425 336 401 336 q 465 345 443 336 q 509 367 488 354 q 549 396 531 381 q 578 425 567 411 q 594 456 589 439 q 599 492 599 472 q 584 556 599 522 q 545 619 569 590 q 490 666 521 647 q 426 685 458 685 q 398 671 408 685 q 381 638 388 657 q 460 598 438 631 q 482 485 482 565 q 477 435 482 454 q 461 405 472 417 q 432 386 450 393 q 388 371 414 379 z "},"Ñ":{"ha":1036,"x_min":22,"x_max":1006,"o":"m 413 1208 q 394 1190 399 1208 q 379 1149 389 1171 q 347 1108 369 1126 q 274 1089 324 1089 q 237 1099 256 1089 q 202 1126 218 1110 q 176 1160 186 1142 q 165 1197 165 1179 q 181 1303 165 1251 q 226 1393 197 1354 q 294 1456 254 1432 q 382 1479 333 1479 q 485 1460 447 1479 q 544 1419 522 1442 q 579 1377 565 1396 q 611 1358 593 1358 q 635 1375 624 1358 q 660 1412 646 1392 q 694 1449 674 1432 q 747 1465 715 1465 q 788 1456 767 1465 q 828 1432 810 1447 q 858 1397 846 1417 q 871 1358 871 1378 q 853 1264 871 1310 q 806 1183 836 1218 q 733 1126 775 1147 q 642 1106 692 1106 q 556 1122 592 1106 q 494 1157 519 1138 q 449 1192 468 1176 q 413 1208 429 1208 m 22 256 q 28 438 22 343 q 48 623 35 532 q 83 797 61 714 q 139 943 106 879 q 179 1003 158 981 q 222 1040 200 1026 q 267 1058 244 1053 q 311 1063 289 1063 q 376 1056 340 1063 q 433 1031 411 1050 q 471 968 453 1013 q 506 867 489 924 q 538 749 522 810 q 567 638 553 689 q 594 555 581 588 q 618 522 607 522 q 635 531 629 522 q 643 551 640 539 q 646 574 646 563 q 646 593 646 586 q 632 758 646 676 q 618 924 618 840 q 622 981 618 949 q 646 1031 626 1013 q 715 1063 672 1054 q 792 1072 758 1072 q 844 1068 817 1072 q 897 1053 872 1064 q 941 1026 922 1043 q 968 981 960 1008 q 999 802 992 896 q 1006 621 1006 708 q 1001 484 1006 565 q 985 318 996 403 q 955 156 974 233 q 908 29 936 78 q 796 -32 872 -32 q 674 -3 728 -32 q 580 67 621 25 q 509 160 539 110 q 458 252 479 210 q 421 323 436 294 q 393 351 406 351 q 369 336 374 351 q 364 307 364 321 q 369 251 364 279 q 380 196 374 224 q 391 140 386 168 q 396 85 396 113 q 391 40 396 61 q 368 4 386 19 q 327 -22 351 -11 q 276 -41 303 -33 q 222 -52 249 -49 q 172 -56 194 -56 q 131 -53 153 -56 q 90 -42 108 -50 q 57 -19 71 -33 q 39 18 43 -6 q 25 137 28 76 q 22 256 22 197 z "},"Ò":{"ha":1156,"x_min":32,"x_max":1128,"o":"m 807 1153 q 736 1131 776 1131 q 657 1147 699 1131 q 578 1185 615 1163 q 510 1232 540 1208 q 464 1271 479 1256 q 423 1314 443 1292 q 394 1360 403 1336 q 394 1410 386 1385 q 436 1463 401 1436 q 522 1497 482 1497 q 597 1464 564 1497 q 644 1401 625 1436 q 693 1338 664 1365 q 724 1309 708 1322 q 756 1281 740 1296 q 783 1251 768 1268 q 808 1215 799 1233 q 820 1181 818 1197 q 807 1153 822 1164 m 1128 465 q 1089 258 1128 347 q 981 109 1050 169 q 815 18 911 49 q 604 -12 719 -12 q 384 27 488 -12 q 202 138 281 67 q 78 310 124 210 q 32 529 32 410 q 78 765 32 665 q 203 930 124 864 q 391 1028 283 996 q 622 1060 499 1060 q 786 1024 707 1060 q 930 930 865 989 q 1041 796 994 871 q 1107 642 1088 721 q 1128 465 1128 557 m 435 536 q 449 488 435 508 q 483 453 463 467 q 530 433 504 440 q 579 426 556 426 q 674 458 640 426 q 708 551 708 489 q 696 606 708 582 q 663 646 683 629 q 617 671 643 663 q 561 679 590 679 q 509 667 532 679 q 469 635 486 654 q 444 590 453 615 q 435 536 435 564 z "},"Ó":{"ha":1156,"x_min":32,"x_max":1128,"o":"m 404 1153 q 390 1181 389 1164 q 402 1215 392 1197 q 428 1251 413 1233 q 457 1281 444 1268 q 490 1309 474 1296 q 522 1338 507 1322 q 571 1401 551 1365 q 621 1464 590 1436 q 697 1497 657 1497 q 786 1463 739 1497 q 830 1410 822 1436 q 828 1360 838 1385 q 799 1314 819 1336 q 757 1271 779 1292 q 709 1232 740 1256 q 640 1185 678 1208 q 558 1147 601 1163 q 476 1131 515 1131 q 404 1153 435 1131 m 1128 465 q 1089 258 1128 347 q 981 109 1050 169 q 815 18 911 49 q 604 -12 719 -12 q 384 27 488 -12 q 202 138 281 67 q 78 310 124 210 q 32 529 32 410 q 78 765 32 665 q 203 930 124 864 q 391 1028 283 996 q 622 1060 499 1060 q 786 1024 707 1060 q 930 930 865 989 q 1041 796 994 871 q 1107 642 1088 721 q 1128 465 1128 557 m 435 536 q 449 488 435 508 q 483 453 463 467 q 530 433 504 440 q 579 426 556 426 q 674 458 640 426 q 708 551 708 489 q 696 606 708 582 q 663 646 683 629 q 617 671 643 663 q 561 679 590 679 q 509 667 532 679 q 469 635 486 654 q 444 590 453 615 q 435 536 435 564 z "},"Ô":{"ha":1156,"x_min":32,"x_max":1128,"o":"m 613 1465 q 701 1435 647 1465 q 804 1362 754 1404 q 890 1274 854 1319 q 926 1197 926 1228 q 913 1163 926 1179 q 878 1133 899 1146 q 834 1113 857 1121 q 793 1106 811 1106 q 742 1131 767 1106 q 694 1185 717 1156 q 653 1240 672 1215 q 619 1265 635 1265 q 588 1240 607 1265 q 544 1185 569 1215 q 488 1131 519 1156 q 418 1106 456 1106 q 340 1129 374 1106 q 307 1194 307 1153 q 341 1274 307 1228 q 423 1363 375 1319 q 523 1435 471 1406 q 613 1465 575 1465 m 1128 465 q 1089 258 1128 347 q 981 109 1050 169 q 815 18 911 49 q 604 -12 719 -12 q 384 27 488 -12 q 202 138 281 67 q 78 310 124 210 q 32 529 32 410 q 78 765 32 665 q 203 930 124 864 q 391 1028 283 996 q 622 1060 499 1060 q 786 1024 707 1060 q 930 930 865 989 q 1041 796 994 871 q 1107 642 1088 721 q 1128 465 1128 557 m 435 536 q 449 488 435 508 q 483 453 463 467 q 530 433 504 440 q 579 426 556 426 q 674 458 640 426 q 708 551 708 489 q 696 606 708 582 q 663 646 683 629 q 617 671 643 663 q 561 679 590 679 q 509 667 532 679 q 469 635 486 654 q 444 590 453 615 q 435 536 435 564 z "},"Õ":{"ha":1156,"x_min":32,"x_max":1128,"o":"m 472 1208 q 453 1190 458 1208 q 439 1149 449 1171 q 406 1108 429 1126 q 333 1089 383 1089 q 297 1099 315 1089 q 262 1126 278 1110 q 235 1160 246 1142 q 225 1197 225 1179 q 241 1303 225 1251 q 285 1393 257 1354 q 353 1456 314 1432 q 442 1479 393 1479 q 544 1460 507 1479 q 603 1419 582 1442 q 639 1377 625 1396 q 671 1358 653 1358 q 694 1375 683 1358 q 719 1412 706 1392 q 754 1449 733 1432 q 807 1465 775 1465 q 848 1456 826 1465 q 888 1432 869 1447 q 918 1397 906 1417 q 931 1358 931 1378 q 913 1264 931 1310 q 865 1183 896 1218 q 793 1126 835 1147 q 701 1106 751 1106 q 615 1122 651 1106 q 553 1157 579 1138 q 508 1192 528 1176 q 472 1208 489 1208 m 1128 465 q 1089 258 1128 347 q 981 109 1050 169 q 815 18 911 49 q 604 -12 719 -12 q 384 27 488 -12 q 202 138 281 67 q 78 310 124 210 q 32 529 32 410 q 78 765 32 665 q 203 930 124 864 q 391 1028 283 996 q 622 1060 499 1060 q 786 1024 707 1060 q 930 930 865 989 q 1041 796 994 871 q 1107 642 1088 721 q 1128 465 1128 557 m 435 536 q 449 488 435 508 q 483 453 463 467 q 530 433 504 440 q 579 426 556 426 q 674 458 640 426 q 708 551 708 489 q 696 606 708 582 q 663 646 683 629 q 617 671 643 663 q 561 679 590 679 q 509 667 532 679 q 469 635 486 654 q 444 590 453 615 q 435 536 435 564 z "},"Ö":{"ha":1156,"x_min":32,"x_max":1128,"o":"m 728 1450 q 786 1436 760 1450 q 833 1399 813 1422 q 864 1349 853 1376 q 875 1293 875 1321 q 858 1231 875 1258 q 817 1183 842 1203 q 762 1151 792 1163 q 706 1140 732 1140 q 654 1153 676 1140 q 617 1185 632 1165 q 594 1231 601 1206 q 586 1281 586 1256 q 596 1340 586 1310 q 624 1394 606 1369 q 669 1435 643 1419 q 728 1450 694 1450 m 422 1433 q 481 1419 454 1433 q 527 1383 507 1406 q 558 1332 547 1360 q 569 1276 569 1304 q 553 1214 569 1242 q 511 1166 536 1186 q 456 1135 486 1146 q 400 1124 426 1124 q 349 1136 371 1124 q 311 1169 326 1149 q 288 1214 296 1189 q 281 1264 281 1239 q 290 1323 281 1293 q 319 1378 300 1353 q 363 1418 338 1403 q 422 1433 389 1433 m 1128 465 q 1089 258 1128 347 q 981 109 1050 169 q 815 18 911 49 q 604 -12 719 -12 q 384 27 488 -12 q 202 138 281 67 q 78 310 124 210 q 32 529 32 410 q 78 765 32 665 q 203 930 124 864 q 391 1028 283 996 q 622 1060 499 1060 q 786 1024 707 1060 q 930 930 865 989 q 1041 796 994 871 q 1107 642 1088 721 q 1128 465 1128 557 m 435 536 q 449 488 435 508 q 483 453 463 467 q 530 433 504 440 q 579 426 556 426 q 674 458 640 426 q 708 551 708 489 q 696 606 708 582 q 663 646 683 629 q 617 671 643 663 q 561 679 590 679 q 509 667 532 679 q 469 635 486 654 q 444 590 453 615 q 435 536 435 564 z "},"×":{"ha":863,"x_min":85,"x_max":828,"o":"m 797 699 q 772 640 797 664 q 718 596 747 615 q 664 558 689 576 q 639 519 639 540 q 653 494 639 507 q 688 469 667 482 q 733 443 708 457 q 779 413 758 429 q 814 376 800 396 q 828 331 828 356 q 815 265 828 300 q 778 201 801 231 q 726 153 756 172 q 661 133 696 133 q 592 165 624 133 q 536 236 561 197 q 492 307 511 275 q 457 339 472 339 q 437 323 446 339 q 418 283 428 307 q 397 232 408 260 q 372 181 386 204 q 338 141 357 157 q 292 125 318 125 q 226 140 261 125 q 163 179 192 154 q 114 235 133 204 q 94 300 94 267 q 122 365 94 333 q 181 424 149 397 q 240 474 213 451 q 267 514 267 497 q 238 551 267 531 q 176 596 210 571 q 113 652 142 621 q 85 722 85 683 q 99 779 85 749 q 138 837 114 810 q 192 882 163 864 q 250 900 221 900 q 313 867 288 900 q 360 794 339 833 q 399 721 381 754 q 438 688 417 688 q 476 721 457 688 q 515 794 494 754 q 561 867 536 833 q 619 900 586 900 q 686 882 654 900 q 743 835 718 864 q 783 769 768 806 q 797 699 797 733 z "},"Ø":{"ha":1156,"x_min":32,"x_max":1128,"o":"m 796 1179 q 845 1174 814 1179 q 907 1157 876 1168 q 960 1127 938 1146 q 982 1083 982 1108 q 963 1006 974 1046 q 938 922 951 965 q 1083 714 1038 828 q 1128 465 1128 600 q 1089 258 1128 347 q 981 109 1050 169 q 815 18 911 49 q 604 -12 719 -12 q 531 -8 567 -12 q 507 -47 518 -29 q 481 -78 496 -64 q 448 -99 467 -92 q 403 -107 429 -107 q 347 -99 382 -107 q 279 -77 313 -92 q 222 -41 246 -62 q 199 8 199 -19 q 201 24 199 15 q 216 68 208 46 q 232 114 224 90 q 86 292 140 186 q 32 529 32 397 q 78 765 32 665 q 203 930 124 864 q 391 1028 283 996 q 622 1060 499 1060 q 635 1060 629 1060 q 647 1058 640 1060 q 710 1150 682 1121 q 749 1174 726 1169 q 796 1179 772 1179 m 435 536 q 449 488 435 508 q 483 453 463 467 q 530 433 504 440 q 579 426 556 426 q 674 458 640 426 q 708 551 708 489 q 696 606 708 582 q 663 646 683 629 q 617 671 643 663 q 561 679 590 679 q 509 667 532 679 q 469 635 486 654 q 444 590 453 615 q 435 536 435 564 z "},"Ù":{"ha":1139,"x_min":28,"x_max":1111,"o":"m 794 1153 q 724 1131 764 1131 q 644 1147 686 1131 q 565 1185 603 1163 q 497 1232 528 1208 q 451 1271 467 1256 q 410 1314 431 1292 q 382 1360 390 1336 q 381 1410 374 1385 q 424 1463 389 1436 q 510 1497 469 1497 q 585 1464 551 1497 q 632 1401 613 1436 q 681 1338 651 1365 q 712 1309 696 1322 q 743 1281 728 1296 q 771 1251 756 1268 q 796 1215 786 1233 q 808 1181 806 1197 q 794 1153 810 1164 m 301 1122 q 410 1108 361 1122 q 495 1065 460 1094 q 550 988 531 1035 q 569 878 569 942 q 558 771 569 824 q 531 665 546 718 q 504 559 517 613 q 492 450 492 506 q 493 410 492 432 q 501 370 494 389 q 522 339 507 351 q 563 326 536 326 q 616 343 593 326 q 655 386 639 360 q 679 446 671 413 q 688 513 688 479 q 676 601 688 557 q 650 688 664 644 q 624 774 636 732 q 613 854 613 815 q 638 946 613 910 q 699 1003 663 982 q 780 1032 736 1024 q 861 1040 824 1040 q 999 1008 949 1040 q 1074 922 1049 975 q 1105 800 1099 868 q 1111 663 1111 732 q 1099 476 1111 568 q 1069 321 1086 383 q 989 144 1042 215 q 866 31 936 74 q 713 -29 796 -11 q 539 -47 629 -47 q 391 -33 465 -47 q 253 20 317 -19 q 140 132 189 60 q 67 319 92 204 q 53 397 60 351 q 40 498 46 442 q 31 618 35 554 q 28 750 28 682 q 35 888 28 821 q 71 1006 43 954 q 153 1090 99 1058 q 301 1122 207 1122 z "},"Ú":{"ha":1139,"x_min":28,"x_max":1111,"o":"m 390 1153 q 376 1181 375 1164 q 388 1215 378 1197 q 415 1251 399 1233 q 443 1281 431 1268 q 476 1309 460 1296 q 508 1338 493 1322 q 557 1401 538 1365 q 607 1464 576 1436 q 683 1497 643 1497 q 772 1463 725 1497 q 816 1410 808 1436 q 815 1360 824 1385 q 785 1314 806 1336 q 743 1271 765 1292 q 695 1232 726 1256 q 626 1185 664 1208 q 544 1147 588 1163 q 463 1131 501 1131 q 390 1153 421 1131 m 301 1122 q 410 1108 361 1122 q 495 1065 460 1094 q 550 988 531 1035 q 569 878 569 942 q 558 771 569 824 q 531 665 546 718 q 504 559 517 613 q 492 450 492 506 q 493 410 492 432 q 501 370 494 389 q 522 339 507 351 q 563 326 536 326 q 616 343 593 326 q 655 386 639 360 q 679 446 671 413 q 688 513 688 479 q 676 601 688 557 q 650 688 664 644 q 624 774 636 732 q 613 854 613 815 q 638 946 613 910 q 699 1003 663 982 q 780 1032 736 1024 q 861 1040 824 1040 q 999 1008 949 1040 q 1074 922 1049 975 q 1105 800 1099 868 q 1111 663 1111 732 q 1099 476 1111 568 q 1069 321 1086 383 q 989 144 1042 215 q 866 31 936 74 q 713 -29 796 -11 q 539 -47 629 -47 q 391 -33 465 -47 q 253 20 317 -19 q 140 132 189 60 q 67 319 92 204 q 53 397 60 351 q 40 498 46 442 q 31 618 35 554 q 28 750 28 682 q 35 888 28 821 q 71 1006 43 954 q 153 1090 99 1058 q 301 1122 207 1122 z "},"Û":{"ha":1139,"x_min":28,"x_max":1111,"o":"m 600 1493 q 688 1463 635 1493 q 792 1390 742 1432 q 878 1301 842 1347 q 914 1225 914 1256 q 900 1190 914 1207 q 865 1161 886 1174 q 822 1141 844 1149 q 781 1133 799 1133 q 729 1158 754 1133 q 682 1213 704 1183 q 641 1268 660 1243 q 607 1293 622 1293 q 576 1268 594 1293 q 532 1213 557 1243 q 475 1158 507 1183 q 406 1133 443 1133 q 328 1157 361 1133 q 294 1222 294 1181 q 328 1301 294 1256 q 410 1390 363 1347 q 510 1463 458 1433 q 600 1493 563 1493 m 301 1122 q 410 1108 361 1122 q 495 1065 460 1094 q 550 988 531 1035 q 569 878 569 942 q 558 771 569 824 q 531 665 546 718 q 504 559 517 613 q 492 450 492 506 q 493 410 492 432 q 501 370 494 389 q 522 339 507 351 q 563 326 536 326 q 616 343 593 326 q 655 386 639 360 q 679 446 671 413 q 688 513 688 479 q 676 601 688 557 q 650 688 664 644 q 624 774 636 732 q 613 854 613 815 q 638 946 613 910 q 699 1003 663 982 q 780 1032 736 1024 q 861 1040 824 1040 q 999 1008 949 1040 q 1074 922 1049 975 q 1105 800 1099 868 q 1111 663 1111 732 q 1099 476 1111 568 q 1069 321 1086 383 q 989 144 1042 215 q 866 31 936 74 q 713 -29 796 -11 q 539 -47 629 -47 q 391 -33 465 -47 q 253 20 317 -19 q 140 132 189 60 q 67 319 92 204 q 53 397 60 351 q 40 498 46 442 q 31 618 35 554 q 28 750 28 682 q 35 888 28 821 q 71 1006 43 954 q 153 1090 99 1058 q 301 1122 207 1122 z "},"Ü":{"ha":1139,"x_min":28,"x_max":1111,"o":"m 715 1450 q 774 1436 747 1450 q 820 1399 800 1422 q 851 1349 840 1376 q 863 1293 863 1321 q 846 1231 863 1258 q 804 1183 829 1203 q 749 1151 779 1163 q 693 1140 719 1140 q 642 1153 664 1140 q 604 1185 619 1165 q 581 1231 589 1206 q 574 1281 574 1256 q 583 1340 574 1310 q 612 1394 593 1369 q 656 1435 631 1419 q 715 1450 682 1450 m 410 1433 q 468 1419 442 1433 q 515 1383 494 1406 q 546 1332 535 1360 q 557 1276 557 1304 q 540 1214 557 1242 q 499 1166 524 1186 q 444 1135 474 1146 q 388 1124 414 1124 q 336 1136 358 1124 q 299 1169 314 1149 q 276 1214 283 1189 q 268 1264 268 1239 q 278 1323 268 1293 q 306 1378 288 1353 q 351 1418 325 1403 q 410 1433 376 1433 m 301 1122 q 410 1108 361 1122 q 495 1065 460 1094 q 550 988 531 1035 q 569 878 569 942 q 558 771 569 824 q 531 665 546 718 q 504 559 517 613 q 492 450 492 506 q 493 410 492 432 q 501 370 494 389 q 522 339 507 351 q 563 326 536 326 q 616 343 593 326 q 655 386 639 360 q 679 446 671 413 q 688 513 688 479 q 676 601 688 557 q 650 688 664 644 q 624 774 636 732 q 613 854 613 815 q 638 946 613 910 q 699 1003 663 982 q 780 1032 736 1024 q 861 1040 824 1040 q 999 1008 949 1040 q 1074 922 1049 975 q 1105 800 1099 868 q 1111 663 1111 732 q 1099 476 1111 568 q 1069 321 1086 383 q 989 144 1042 215 q 866 31 936 74 q 713 -29 796 -11 q 539 -47 629 -47 q 391 -33 465 -47 q 253 20 317 -19 q 140 132 189 60 q 67 319 92 204 q 53 397 60 351 q 40 498 46 442 q 31 618 35 554 q 28 750 28 682 q 35 888 28 821 q 71 1006 43 954 q 153 1090 99 1058 q 301 1122 207 1122 z "},"Ý":{"ha":847,"x_min":4,"x_max":847,"o":"m 250 1153 q 236 1181 235 1164 q 248 1215 238 1197 q 274 1251 258 1233 q 303 1281 290 1268 q 336 1309 319 1296 q 368 1338 353 1322 q 417 1401 397 1365 q 467 1464 436 1436 q 543 1497 503 1497 q 632 1463 585 1497 q 676 1410 668 1436 q 674 1360 683 1385 q 645 1314 665 1336 q 603 1271 625 1292 q 555 1232 586 1256 q 485 1185 524 1208 q 404 1147 447 1163 q 322 1131 361 1131 q 250 1153 281 1131 m 421 758 q 441 779 432 758 q 461 832 450 800 q 486 900 472 864 q 520 968 500 936 q 569 1021 540 1000 q 636 1042 597 1042 q 709 1030 672 1042 q 777 996 746 1018 q 828 940 808 974 q 847 863 847 907 q 829 775 847 819 q 783 686 811 731 q 724 600 756 642 q 664 522 692 558 q 618 454 636 485 q 600 403 600 424 q 619 323 600 354 q 660 264 638 292 q 702 206 683 236 q 721 129 721 176 q 699 51 721 85 q 644 -4 678 18 q 571 -37 611 -26 q 492 -49 531 -49 q 413 -40 457 -49 q 329 -10 368 -31 q 264 44 290 11 q 238 128 238 78 q 249 188 238 161 q 274 242 261 215 q 299 297 288 268 q 311 363 311 326 q 288 423 311 388 q 231 501 265 458 q 158 592 197 544 q 84 688 118 640 q 27 783 50 736 q 4 872 4 831 q 24 947 4 913 q 72 1007 43 981 q 137 1048 101 1033 q 203 1063 172 1063 q 272 1040 243 1063 q 321 984 300 1018 q 356 910 342 950 q 381 837 371 871 q 401 781 392 803 q 421 758 410 758 z "},"Þ":{"ha":946,"x_min":19,"x_max":910,"o":"m 910 571 q 907 481 910 531 q 896 381 904 432 q 871 281 888 329 q 828 194 854 232 q 762 133 801 156 q 667 110 722 110 q 595 118 629 110 q 533 135 561 126 q 483 153 504 144 q 450 161 461 161 q 394 156 411 161 q 376 115 376 151 q 383 69 376 92 q 389 24 389 47 q 370 -26 389 -7 q 324 -57 351 -46 q 267 -72 297 -68 q 214 -76 238 -76 q 167 -74 190 -76 q 124 -65 144 -72 q 87 -44 103 -58 q 60 -6 71 -31 q 38 83 46 26 q 26 203 31 140 q 21 326 22 267 q 19 424 19 386 q 21 509 19 458 q 26 618 22 560 q 38 738 31 676 q 54 854 44 799 q 78 956 64 910 q 111 1028 93 1001 q 150 1070 129 1054 q 195 1094 171 1086 q 247 1106 219 1103 q 303 1108 274 1108 q 347 1094 326 1108 q 382 1060 367 1081 q 406 1015 397 1039 q 414 969 414 990 q 415 942 414 957 q 421 913 417 926 q 433 890 425 899 q 456 881 442 881 q 542 893 500 881 q 628 906 583 906 q 745 875 693 906 q 833 797 797 844 q 890 689 869 749 q 910 571 910 629 m 408 514 q 414 477 408 497 q 430 440 419 457 q 457 410 440 422 q 494 399 474 399 q 533 401 515 399 q 565 413 551 403 q 585 447 578 424 q 592 510 592 469 q 570 579 592 553 q 514 606 549 606 q 437 586 465 606 q 408 514 408 567 z "},"ß":{"ha":922,"x_min":32,"x_max":889,"o":"m 490 1089 q 650 1056 582 1089 q 764 967 718 1022 q 832 840 810 913 q 854 689 854 768 q 841 611 854 647 q 812 544 828 575 q 783 485 796 513 q 769 432 769 457 q 788 369 769 397 q 829 312 807 340 q 870 253 851 283 q 889 186 889 224 q 865 78 889 126 q 803 -6 842 29 q 713 -59 764 -40 q 606 -78 661 -78 q 525 -66 558 -78 q 471 -36 492 -54 q 441 3 450 -18 q 432 40 432 24 q 448 112 432 88 q 490 136 464 136 q 551 160 531 136 q 568 211 572 183 q 544 264 564 242 q 501 306 524 286 q 462 349 479 326 q 444 404 444 372 q 460 488 444 456 q 495 547 476 521 q 530 600 514 574 q 546 667 546 626 q 538 722 546 701 q 518 754 531 743 q 489 769 506 765 q 453 772 472 772 q 419 765 436 772 q 389 744 403 757 q 367 714 375 731 q 360 679 360 697 q 363 513 361 576 q 367 411 365 449 q 369 356 368 374 q 371 325 371 338 q 377 260 371 293 q 391 196 383 228 q 405 133 399 164 q 411 69 411 101 q 397 10 411 36 q 359 -33 382 -15 q 308 -58 336 -50 q 254 -67 281 -67 q 155 -51 206 -67 q 72 4 104 -36 q 49 66 57 24 q 37 156 40 108 q 33 249 33 204 q 32 318 32 293 q 38 536 32 428 q 43 754 43 644 q 72 917 43 853 q 156 1020 100 982 q 296 1074 213 1058 q 490 1089 379 1089 z "},"à":{"ha":1142,"x_min":-19,"x_max":1156,"o":"m 800 1153 q 729 1131 769 1131 q 650 1147 692 1131 q 571 1185 608 1163 q 503 1232 533 1208 q 457 1271 472 1256 q 416 1314 436 1292 q 388 1360 396 1336 q 387 1410 379 1385 q 429 1463 394 1436 q 515 1497 475 1497 q 590 1464 557 1497 q 638 1401 618 1436 q 686 1338 657 1365 q 717 1309 701 1322 q 749 1281 733 1296 q 776 1251 761 1268 q 801 1215 792 1233 q 813 1181 811 1197 q 800 1153 815 1164 m 1156 63 q 1133 12 1156 31 q 1081 -17 1111 -7 q 1018 -29 1050 -26 q 965 -32 986 -32 q 910 -30 942 -32 q 844 -23 878 -28 q 781 -11 811 -18 q 731 7 751 -4 q 700 36 707 19 q 693 81 693 53 q 699 145 693 114 q 704 207 704 176 q 607 310 704 310 q 567 306 589 310 q 524 295 544 301 q 484 281 503 289 q 451 263 465 272 q 416 225 428 246 q 400 181 404 204 q 397 135 396 158 q 397 89 397 111 q 364 -35 397 -1 q 257 -69 331 -69 q 174 -62 222 -69 q 83 -40 126 -56 q 10 -1 40 -25 q -19 57 -19 22 q 40 312 0 185 q 135 555 81 439 q 252 770 189 671 q 382 940 315 869 q 449 1005 418 981 q 505 1042 479 1029 q 554 1060 531 1056 q 600 1065 578 1065 q 742 1010 675 1065 q 865 866 808 954 q 970 669 922 778 q 1054 453 1018 560 q 1114 253 1090 346 q 1149 103 1138 160 q 1154 69 1154 81 q 1156 63 1156 64 m 453 558 q 465 524 453 538 q 493 501 476 510 q 529 488 510 492 q 563 485 549 485 q 597 488 576 485 q 635 500 617 492 q 665 522 653 508 q 678 557 678 536 q 667 597 678 575 q 640 637 657 618 q 602 668 624 656 q 560 681 581 681 q 519 668 539 681 q 485 638 500 656 q 462 598 471 619 q 453 558 453 576 z "},"á":{"ha":1142,"x_min":-19,"x_max":1156,"o":"m 397 1153 q 383 1181 382 1164 q 395 1215 385 1197 q 422 1251 406 1233 q 450 1281 438 1268 q 483 1309 467 1296 q 515 1338 500 1322 q 564 1401 544 1365 q 614 1464 583 1436 q 690 1497 650 1497 q 779 1463 732 1497 q 823 1410 815 1436 q 822 1360 831 1385 q 792 1314 813 1336 q 750 1271 772 1292 q 702 1232 733 1256 q 633 1185 671 1208 q 551 1147 594 1163 q 469 1131 508 1131 q 397 1153 428 1131 m 1156 63 q 1133 12 1156 31 q 1081 -17 1111 -7 q 1018 -29 1050 -26 q 965 -32 986 -32 q 910 -30 942 -32 q 844 -23 878 -28 q 781 -11 811 -18 q 731 7 751 -4 q 700 36 707 19 q 693 81 693 53 q 699 145 693 114 q 704 207 704 176 q 607 310 704 310 q 567 306 589 310 q 524 295 544 301 q 484 281 503 289 q 451 263 465 272 q 416 225 428 246 q 400 181 404 204 q 397 135 396 158 q 397 89 397 111 q 364 -35 397 -1 q 257 -69 331 -69 q 174 -62 222 -69 q 83 -40 126 -56 q 10 -1 40 -25 q -19 57 -19 22 q 40 312 0 185 q 135 555 81 439 q 252 770 189 671 q 382 940 315 869 q 449 1005 418 981 q 505 1042 479 1029 q 554 1060 531 1056 q 600 1065 578 1065 q 742 1010 675 1065 q 865 866 808 954 q 970 669 922 778 q 1054 453 1018 560 q 1114 253 1090 346 q 1149 103 1138 160 q 1154 69 1154 81 q 1156 63 1156 64 m 453 558 q 465 524 453 538 q 493 501 476 510 q 529 488 510 492 q 563 485 549 485 q 597 488 576 485 q 635 500 617 492 q 665 522 653 508 q 678 557 678 536 q 667 597 678 575 q 640 637 657 618 q 602 668 624 656 q 560 681 581 681 q 519 668 539 681 q 485 638 500 656 q 462 598 471 619 q 453 558 453 576 z "},"â":{"ha":1142,"x_min":-19,"x_max":1156,"o":"m 606 1465 q 694 1435 640 1465 q 797 1362 747 1404 q 883 1274 847 1319 q 919 1197 919 1228 q 906 1163 919 1179 q 871 1133 892 1146 q 827 1113 850 1121 q 786 1106 804 1106 q 735 1131 760 1106 q 688 1185 710 1156 q 647 1240 665 1215 q 613 1265 628 1265 q 581 1240 600 1265 q 538 1185 563 1215 q 481 1131 513 1156 q 411 1106 449 1106 q 333 1129 367 1106 q 300 1194 300 1153 q 334 1274 300 1228 q 416 1363 368 1319 q 516 1435 464 1406 q 606 1465 568 1465 m 1156 63 q 1133 12 1156 31 q 1081 -17 1111 -7 q 1018 -29 1050 -26 q 965 -32 986 -32 q 910 -30 942 -32 q 844 -23 878 -28 q 781 -11 811 -18 q 731 7 751 -4 q 700 36 707 19 q 693 81 693 53 q 699 145 693 114 q 704 207 704 176 q 607 310 704 310 q 567 306 589 310 q 524 295 544 301 q 484 281 503 289 q 451 263 465 272 q 416 225 428 246 q 400 181 404 204 q 397 135 396 158 q 397 89 397 111 q 364 -35 397 -1 q 257 -69 331 -69 q 174 -62 222 -69 q 83 -40 126 -56 q 10 -1 40 -25 q -19 57 -19 22 q 40 312 0 185 q 135 555 81 439 q 252 770 189 671 q 382 940 315 869 q 449 1005 418 981 q 505 1042 479 1029 q 554 1060 531 1056 q 600 1065 578 1065 q 742 1010 675 1065 q 865 866 808 954 q 970 669 922 778 q 1054 453 1018 560 q 1114 253 1090 346 q 1149 103 1138 160 q 1154 69 1154 81 q 1156 63 1156 64 m 453 558 q 465 524 453 538 q 493 501 476 510 q 529 488 510 492 q 563 485 549 485 q 597 488 576 485 q 635 500 617 492 q 665 522 653 508 q 678 557 678 536 q 667 597 678 575 q 640 637 657 618 q 602 668 624 656 q 560 681 581 681 q 519 668 539 681 q 485 638 500 656 q 462 598 471 619 q 453 558 453 576 z "},"ã":{"ha":1142,"x_min":-19,"x_max":1156,"o":"m 465 1208 q 447 1190 451 1208 q 432 1149 442 1171 q 399 1108 422 1126 q 326 1089 376 1089 q 290 1099 308 1089 q 255 1126 271 1110 q 228 1160 239 1142 q 218 1197 218 1179 q 234 1303 218 1251 q 278 1393 250 1354 q 347 1456 307 1432 q 435 1479 386 1479 q 538 1460 500 1479 q 597 1419 575 1442 q 632 1377 618 1396 q 664 1358 646 1358 q 688 1375 676 1358 q 713 1412 699 1392 q 747 1449 726 1432 q 800 1465 768 1465 q 841 1456 819 1465 q 881 1432 863 1447 q 911 1397 899 1417 q 924 1358 924 1378 q 906 1264 924 1310 q 858 1183 889 1218 q 786 1126 828 1147 q 694 1106 744 1106 q 608 1122 644 1106 q 547 1157 572 1138 q 501 1192 521 1176 q 465 1208 482 1208 m 1156 63 q 1133 12 1156 31 q 1081 -17 1111 -7 q 1018 -29 1050 -26 q 965 -32 986 -32 q 910 -30 942 -32 q 844 -23 878 -28 q 781 -11 811 -18 q 731 7 751 -4 q 700 36 707 19 q 693 81 693 53 q 699 145 693 114 q 704 207 704 176 q 607 310 704 310 q 567 306 589 310 q 524 295 544 301 q 484 281 503 289 q 451 263 465 272 q 416 225 428 246 q 400 181 404 204 q 397 135 396 158 q 397 89 397 111 q 364 -35 397 -1 q 257 -69 331 -69 q 174 -62 222 -69 q 83 -40 126 -56 q 10 -1 40 -25 q -19 57 -19 22 q 40 312 0 185 q 135 555 81 439 q 252 770 189 671 q 382 940 315 869 q 449 1005 418 981 q 505 1042 479 1029 q 554 1060 531 1056 q 600 1065 578 1065 q 742 1010 675 1065 q 865 866 808 954 q 970 669 922 778 q 1054 453 1018 560 q 1114 253 1090 346 q 1149 103 1138 160 q 1154 69 1154 81 q 1156 63 1156 64 m 453 558 q 465 524 453 538 q 493 501 476 510 q 529 488 510 492 q 563 485 549 485 q 597 488 576 485 q 635 500 617 492 q 665 522 653 508 q 678 557 678 536 q 667 597 678 575 q 640 637 657 618 q 602 668 624 656 q 560 681 581 681 q 519 668 539 681 q 485 638 500 656 q 462 598 471 619 q 453 558 453 576 z "},"ä":{"ha":1142,"x_min":-19,"x_max":1156,"o":"m 721 1450 q 779 1436 753 1450 q 826 1399 806 1422 q 857 1349 846 1376 q 868 1293 868 1321 q 851 1231 868 1258 q 810 1183 835 1203 q 755 1151 785 1163 q 699 1140 725 1140 q 647 1153 669 1140 q 610 1185 625 1165 q 587 1231 594 1206 q 579 1281 579 1256 q 589 1340 579 1310 q 617 1394 599 1369 q 662 1435 636 1419 q 721 1450 688 1450 m 415 1433 q 474 1419 447 1433 q 520 1383 500 1406 q 551 1332 540 1360 q 563 1276 563 1304 q 546 1214 563 1242 q 504 1166 529 1186 q 449 1135 479 1146 q 393 1124 419 1124 q 342 1136 364 1124 q 304 1169 319 1149 q 281 1214 289 1189 q 274 1264 274 1239 q 283 1323 274 1293 q 312 1378 293 1353 q 356 1418 331 1403 q 415 1433 382 1433 m 1156 63 q 1133 12 1156 31 q 1081 -17 1111 -7 q 1018 -29 1050 -26 q 965 -32 986 -32 q 910 -30 942 -32 q 844 -23 878 -28 q 781 -11 811 -18 q 731 7 751 -4 q 700 36 707 19 q 693 81 693 53 q 699 145 693 114 q 704 207 704 176 q 607 310 704 310 q 567 306 589 310 q 524 295 544 301 q 484 281 503 289 q 451 263 465 272 q 416 225 428 246 q 400 181 404 204 q 397 135 396 158 q 397 89 397 111 q 364 -35 397 -1 q 257 -69 331 -69 q 174 -62 222 -69 q 83 -40 126 -56 q 10 -1 40 -25 q -19 57 -19 22 q 40 312 0 185 q 135 555 81 439 q 252 770 189 671 q 382 940 315 869 q 449 1005 418 981 q 505 1042 479 1029 q 554 1060 531 1056 q 600 1065 578 1065 q 742 1010 675 1065 q 865 866 808 954 q 970 669 922 778 q 1054 453 1018 560 q 1114 253 1090 346 q 1149 103 1138 160 q 1154 69 1154 81 q 1156 63 1156 64 m 453 558 q 465 524 453 538 q 493 501 476 510 q 529 488 510 492 q 563 485 549 485 q 597 488 576 485 q 635 500 617 492 q 665 522 653 508 q 678 557 678 536 q 667 597 678 575 q 640 637 657 618 q 602 668 624 656 q 560 681 581 681 q 519 668 539 681 q 485 638 500 656 q 462 598 471 619 q 453 558 453 576 z "},"å":{"ha":1142,"x_min":-19,"x_max":1156,"o":"m 572 1129 q 478 1138 525 1129 q 394 1167 431 1146 q 334 1226 357 1189 q 311 1321 311 1264 q 331 1403 311 1365 q 384 1469 351 1442 q 457 1511 417 1496 q 539 1526 497 1526 q 638 1518 586 1526 q 733 1487 690 1510 q 804 1424 776 1464 q 832 1321 832 1383 q 808 1220 832 1258 q 745 1162 783 1182 q 661 1135 707 1142 q 572 1129 615 1129 m 576 1358 q 557 1358 568 1358 q 536 1356 546 1358 q 519 1347 526 1353 q 513 1328 513 1340 q 532 1295 513 1301 q 572 1289 551 1289 q 596 1290 582 1289 q 623 1294 610 1290 q 646 1303 636 1297 q 656 1321 656 1310 q 647 1342 656 1335 q 625 1353 638 1350 q 599 1358 613 1357 q 576 1358 586 1358 m 1156 63 q 1133 12 1156 31 q 1081 -17 1111 -7 q 1018 -29 1050 -26 q 965 -32 986 -32 q 910 -30 942 -32 q 844 -23 878 -28 q 781 -11 811 -18 q 731 7 751 -4 q 700 36 707 19 q 693 81 693 53 q 699 145 693 114 q 704 207 704 176 q 607 310 704 310 q 567 306 589 310 q 524 295 544 301 q 484 281 503 289 q 451 263 465 272 q 416 225 428 246 q 400 181 404 204 q 397 135 396 158 q 397 89 397 111 q 364 -35 397 -1 q 257 -69 331 -69 q 174 -62 222 -69 q 83 -40 126 -56 q 10 -1 40 -25 q -19 57 -19 22 q 40 312 0 185 q 135 555 81 439 q 252 770 189 671 q 382 940 315 869 q 449 1005 418 981 q 505 1042 479 1029 q 554 1060 531 1056 q 600 1065 578 1065 q 742 1010 675 1065 q 865 866 808 954 q 970 669 922 778 q 1054 453 1018 560 q 1114 253 1090 346 q 1149 103 1138 160 q 1154 69 1154 81 q 1156 63 1156 64 m 453 558 q 465 524 453 538 q 493 501 476 510 q 529 488 510 492 q 563 485 549 485 q 597 488 576 485 q 635 500 617 492 q 665 522 653 508 q 678 557 678 536 q 667 597 678 575 q 640 637 657 618 q 602 668 624 656 q 560 681 581 681 q 519 668 539 681 q 485 638 500 656 q 462 598 471 619 q 453 558 453 576 z "},"æ":{"ha":1575,"x_min":-19,"x_max":1574,"o":"m 1132 1101 q 1205 1099 1164 1101 q 1288 1089 1246 1096 q 1368 1072 1329 1082 q 1436 1046 1407 1061 q 1469 1022 1457 1035 q 1488 995 1482 1010 q 1496 963 1494 981 q 1497 922 1497 944 q 1467 796 1497 839 q 1390 733 1438 753 q 1280 712 1342 714 q 1153 710 1218 710 q 1120 709 1139 710 q 1085 703 1101 708 q 1057 686 1068 697 q 1046 656 1046 675 q 1066 624 1046 629 q 1107 618 1086 618 q 1188 624 1147 618 q 1268 629 1228 629 q 1360 600 1328 629 q 1392 510 1392 571 q 1385 453 1392 481 q 1362 403 1378 425 q 1322 369 1346 382 q 1265 357 1299 357 q 1201 363 1233 357 q 1138 368 1169 368 q 1113 367 1128 368 q 1085 361 1097 367 q 1097 322 1092 342 q 1107 285 1101 303 q 1147 279 1122 279 q 1267 290 1208 279 q 1388 301 1325 301 q 1463 276 1429 301 q 1522 215 1497 251 q 1560 135 1547 178 q 1574 56 1574 92 q 1547 9 1574 29 q 1478 -26 1519 -11 q 1385 -51 1436 -40 q 1285 -67 1333 -61 q 1196 -76 1236 -74 q 1136 -79 1156 -79 q 1058 -77 1100 -79 q 974 -69 1017 -75 q 889 -50 931 -62 q 813 -18 847 -37 q 767 -8 789 -14 q 729 8 746 -3 q 703 35 713 18 q 693 81 693 51 q 699 145 693 114 q 704 207 704 176 q 607 310 704 310 q 567 306 589 310 q 524 295 544 301 q 484 281 503 289 q 451 263 465 272 q 416 225 428 246 q 400 181 404 204 q 397 135 396 158 q 397 89 397 111 q 364 -35 397 -1 q 257 -69 331 -69 q 174 -62 222 -69 q 83 -40 126 -56 q 10 -1 40 -25 q -19 57 -19 22 q 40 312 0 185 q 135 555 81 439 q 252 770 189 671 q 382 940 315 869 q 449 1005 418 981 q 505 1042 479 1029 q 554 1060 531 1056 q 600 1065 578 1065 q 678 1049 644 1065 q 744 1006 711 1033 q 815 1052 764 1033 q 926 1082 867 1071 q 1042 1097 985 1093 q 1132 1101 1100 1101 m 453 558 q 465 524 453 538 q 493 501 476 510 q 529 488 510 492 q 563 485 549 485 q 597 488 576 485 q 635 500 617 492 q 665 522 653 508 q 678 557 678 536 q 667 597 678 575 q 640 637 657 618 q 602 668 624 656 q 560 681 581 681 q 519 668 539 681 q 485 638 500 656 q 462 598 471 619 q 453 558 453 576 z "},"ç":{"ha":974,"x_min":15,"x_max":965,"o":"m 683 1065 q 849 1006 794 1065 q 904 838 904 946 q 897 781 904 817 q 874 712 890 746 q 829 652 857 678 q 760 626 801 626 q 699 647 721 626 q 658 692 678 667 q 612 737 638 717 q 540 757 586 757 q 469 740 503 757 q 408 692 435 722 q 367 618 382 661 q 351 522 351 575 q 364 437 351 479 q 401 362 376 394 q 463 309 426 329 q 546 289 499 289 q 630 313 596 289 q 691 367 664 338 q 742 422 718 397 q 794 446 765 446 q 862 413 831 446 q 916 335 893 381 q 952 242 939 289 q 965 165 965 194 q 932 60 965 100 q 849 -2 899 19 q 740 -31 799 -24 q 632 -39 682 -39 q 672 -76 654 -53 q 690 -149 690 -99 q 663 -244 690 -206 q 592 -306 635 -282 q 499 -339 550 -329 q 400 -349 447 -349 q 342 -335 365 -349 q 306 -299 319 -321 q 288 -249 293 -276 q 283 -197 283 -222 q 294 -166 283 -176 q 322 -151 306 -156 q 359 -144 339 -146 q 396 -140 379 -143 q 424 -127 413 -136 q 435 -99 435 -118 q 428 -76 435 -86 q 413 -58 422 -67 q 395 -37 404 -49 q 382 -12 386 -26 q 224 47 293 8 q 109 149 156 86 q 39 301 63 213 q 15 507 15 389 q 62 770 15 664 q 195 942 108 876 q 406 1037 282 1008 q 683 1065 529 1065 z "},"è":{"ha":919,"x_min":42,"x_max":918,"o":"m 689 1153 q 618 1131 658 1131 q 539 1147 581 1131 q 460 1185 497 1163 q 392 1232 422 1208 q 346 1271 361 1256 q 305 1314 325 1292 q 276 1360 285 1336 q 276 1410 268 1385 q 318 1463 283 1436 q 404 1497 364 1497 q 479 1464 446 1497 q 526 1401 507 1436 q 575 1338 546 1365 q 606 1309 590 1322 q 638 1281 622 1296 q 665 1251 650 1268 q 690 1215 681 1233 q 702 1181 700 1197 q 689 1153 704 1164 m 476 1101 q 549 1099 508 1101 q 632 1089 590 1096 q 713 1072 674 1082 q 781 1046 751 1061 q 814 1022 801 1035 q 833 995 826 1010 q 840 963 839 981 q 842 922 842 944 q 812 796 842 839 q 734 733 782 753 q 624 712 686 714 q 497 710 563 710 q 465 709 483 710 q 429 703 446 708 q 401 686 413 697 q 390 656 390 675 q 410 624 390 629 q 451 618 431 618 q 532 624 492 618 q 613 629 572 629 q 704 600 672 629 q 736 510 736 571 q 729 453 736 481 q 706 403 722 425 q 667 369 690 382 q 610 357 643 357 q 546 363 578 357 q 482 368 514 368 q 463 367 475 368 q 440 364 451 367 q 422 356 429 361 q 414 339 414 350 q 437 290 414 301 q 492 279 460 279 q 611 290 553 279 q 732 301 669 301 q 808 276 774 301 q 867 215 842 251 q 905 135 892 178 q 918 56 918 92 q 891 9 918 29 q 822 -26 864 -11 q 729 -51 781 -40 q 629 -67 678 -61 q 540 -76 581 -74 q 481 -79 500 -79 q 394 -76 442 -79 q 299 -65 347 -74 q 207 -41 251 -57 q 128 1 163 -25 q 74 66 94 28 q 53 157 53 104 q 49 413 53 286 q 46 668 46 539 q 44 743 46 690 q 47 855 42 796 q 68 965 51 914 q 121 1035 85 1017 q 203 1065 157 1053 q 298 1086 250 1078 q 392 1098 346 1094 q 476 1101 439 1101 z "},"é":{"ha":919,"x_min":42,"x_max":918,"o":"m 286 1153 q 272 1181 271 1164 q 284 1215 274 1197 q 310 1251 294 1233 q 339 1281 326 1268 q 372 1309 356 1296 q 404 1338 389 1322 q 453 1401 433 1365 q 503 1464 472 1436 q 579 1497 539 1497 q 668 1463 621 1497 q 712 1410 704 1436 q 710 1360 719 1385 q 681 1314 701 1336 q 639 1271 661 1292 q 591 1232 622 1256 q 522 1185 560 1208 q 440 1147 483 1163 q 358 1131 397 1131 q 286 1153 317 1131 m 476 1101 q 549 1099 508 1101 q 632 1089 590 1096 q 713 1072 674 1082 q 781 1046 751 1061 q 814 1022 801 1035 q 833 995 826 1010 q 840 963 839 981 q 842 922 842 944 q 812 796 842 839 q 734 733 782 753 q 624 712 686 714 q 497 710 563 710 q 465 709 483 710 q 429 703 446 708 q 401 686 413 697 q 390 656 390 675 q 410 624 390 629 q 451 618 431 618 q 532 624 492 618 q 613 629 572 629 q 704 600 672 629 q 736 510 736 571 q 729 453 736 481 q 706 403 722 425 q 667 369 690 382 q 610 357 643 357 q 546 363 578 357 q 482 368 514 368 q 463 367 475 368 q 440 364 451 367 q 422 356 429 361 q 414 339 414 350 q 437 290 414 301 q 492 279 460 279 q 611 290 553 279 q 732 301 669 301 q 808 276 774 301 q 867 215 842 251 q 905 135 892 178 q 918 56 918 92 q 891 9 918 29 q 822 -26 864 -11 q 729 -51 781 -40 q 629 -67 678 -61 q 540 -76 581 -74 q 481 -79 500 -79 q 394 -76 442 -79 q 299 -65 347 -74 q 207 -41 251 -57 q 128 1 163 -25 q 74 66 94 28 q 53 157 53 104 q 49 413 53 286 q 46 668 46 539 q 44 743 46 690 q 47 855 42 796 q 68 965 51 914 q 121 1035 85 1017 q 203 1065 157 1053 q 298 1086 250 1078 q 392 1098 346 1094 q 476 1101 439 1101 z "},"ê":{"ha":919,"x_min":42,"x_max":918,"o":"m 494 1465 q 583 1435 529 1465 q 686 1362 636 1404 q 772 1274 736 1319 q 808 1197 808 1228 q 794 1163 808 1179 q 760 1133 781 1146 q 716 1113 739 1121 q 675 1106 693 1106 q 624 1131 649 1106 q 576 1185 599 1156 q 535 1240 554 1215 q 501 1265 517 1265 q 470 1240 489 1265 q 426 1185 451 1215 q 369 1131 401 1156 q 300 1106 338 1106 q 222 1129 256 1106 q 189 1194 189 1153 q 223 1274 189 1228 q 305 1363 257 1319 q 405 1435 353 1406 q 494 1465 457 1465 m 476 1101 q 549 1099 508 1101 q 632 1089 590 1096 q 713 1072 674 1082 q 781 1046 751 1061 q 814 1022 801 1035 q 833 995 826 1010 q 840 963 839 981 q 842 922 842 944 q 812 796 842 839 q 734 733 782 753 q 624 712 686 714 q 497 710 563 710 q 465 709 483 710 q 429 703 446 708 q 401 686 413 697 q 390 656 390 675 q 410 624 390 629 q 451 618 431 618 q 532 624 492 618 q 613 629 572 629 q 704 600 672 629 q 736 510 736 571 q 729 453 736 481 q 706 403 722 425 q 667 369 690 382 q 610 357 643 357 q 546 363 578 357 q 482 368 514 368 q 463 367 475 368 q 440 364 451 367 q 422 356 429 361 q 414 339 414 350 q 437 290 414 301 q 492 279 460 279 q 611 290 553 279 q 732 301 669 301 q 808 276 774 301 q 867 215 842 251 q 905 135 892 178 q 918 56 918 92 q 891 9 918 29 q 822 -26 864 -11 q 729 -51 781 -40 q 629 -67 678 -61 q 540 -76 581 -74 q 481 -79 500 -79 q 394 -76 442 -79 q 299 -65 347 -74 q 207 -41 251 -57 q 128 1 163 -25 q 74 66 94 28 q 53 157 53 104 q 49 413 53 286 q 46 668 46 539 q 44 743 46 690 q 47 855 42 796 q 68 965 51 914 q 121 1035 85 1017 q 203 1065 157 1053 q 298 1086 250 1078 q 392 1098 346 1094 q 476 1101 439 1101 z "},"ë":{"ha":919,"x_min":42,"x_max":918,"o":"m 610 1450 q 668 1436 642 1450 q 715 1399 694 1422 q 746 1349 735 1376 q 757 1293 757 1321 q 740 1231 757 1258 q 699 1183 724 1203 q 644 1151 674 1163 q 588 1140 614 1140 q 536 1153 558 1140 q 499 1185 514 1165 q 476 1231 483 1206 q 468 1281 468 1256 q 478 1340 468 1310 q 506 1394 488 1369 q 551 1435 525 1419 q 610 1450 576 1450 m 304 1433 q 363 1419 336 1433 q 409 1383 389 1406 q 440 1332 429 1360 q 451 1276 451 1304 q 435 1214 451 1242 q 393 1166 418 1186 q 338 1135 368 1146 q 282 1124 308 1124 q 231 1136 253 1124 q 193 1169 208 1149 q 170 1214 178 1189 q 163 1264 163 1239 q 172 1323 163 1293 q 201 1378 182 1353 q 245 1418 219 1403 q 304 1433 271 1433 m 476 1101 q 549 1099 508 1101 q 632 1089 590 1096 q 713 1072 674 1082 q 781 1046 751 1061 q 814 1022 801 1035 q 833 995 826 1010 q 840 963 839 981 q 842 922 842 944 q 812 796 842 839 q 734 733 782 753 q 624 712 686 714 q 497 710 563 710 q 465 709 483 710 q 429 703 446 708 q 401 686 413 697 q 390 656 390 675 q 410 624 390 629 q 451 618 431 618 q 532 624 492 618 q 613 629 572 629 q 704 600 672 629 q 736 510 736 571 q 729 453 736 481 q 706 403 722 425 q 667 369 690 382 q 610 357 643 357 q 546 363 578 357 q 482 368 514 368 q 463 367 475 368 q 440 364 451 367 q 422 356 429 361 q 414 339 414 350 q 437 290 414 301 q 492 279 460 279 q 611 290 553 279 q 732 301 669 301 q 808 276 774 301 q 867 215 842 251 q 905 135 892 178 q 918 56 918 92 q 891 9 918 29 q 822 -26 864 -11 q 729 -51 781 -40 q 629 -67 678 -61 q 540 -76 581 -74 q 481 -79 500 -79 q 394 -76 442 -79 q 299 -65 347 -74 q 207 -41 251 -57 q 128 1 163 -25 q 74 66 94 28 q 53 157 53 104 q 49 413 53 286 q 46 668 46 539 q 44 743 46 690 q 47 855 42 796 q 68 965 51 914 q 121 1035 85 1017 q 203 1065 157 1053 q 298 1086 250 1078 q 392 1098 346 1094 q 476 1101 439 1101 z "},"ì":{"ha":585,"x_min":49,"x_max":546,"o":"m 486 1153 q 415 1131 456 1131 q 336 1147 378 1131 q 257 1185 294 1163 q 189 1232 219 1208 q 143 1271 158 1256 q 102 1314 122 1292 q 74 1360 82 1336 q 73 1410 65 1385 q 115 1463 81 1436 q 201 1497 161 1497 q 276 1464 243 1497 q 324 1401 304 1436 q 372 1338 343 1365 q 403 1309 388 1322 q 435 1281 419 1296 q 463 1251 447 1268 q 488 1215 478 1233 q 499 1181 497 1197 q 486 1153 501 1164 m 64 1006 q 83 1044 67 1028 q 122 1072 99 1061 q 175 1089 146 1083 q 233 1094 204 1094 q 327 1078 285 1094 q 379 1026 369 1061 q 416 884 397 964 q 452 715 435 804 q 485 534 469 626 q 514 355 501 442 q 535 192 526 268 q 544 60 543 115 q 524 3 546 28 q 465 -40 501 -22 q 383 -66 429 -57 q 292 -75 338 -75 q 171 -54 225 -75 q 103 11 117 -33 q 81 126 90 53 q 64 290 71 199 q 53 482 57 381 q 49 681 49 583 q 52 863 49 778 q 64 1006 56 947 z "},"í":{"ha":585,"x_min":49,"x_max":546,"o":"m 88 1153 q 74 1181 72 1164 q 85 1215 75 1197 q 112 1251 96 1233 q 140 1281 128 1268 q 174 1309 157 1296 q 206 1338 190 1322 q 254 1401 235 1365 q 304 1464 274 1436 q 381 1497 340 1497 q 469 1463 422 1497 q 513 1410 506 1436 q 512 1360 521 1385 q 483 1314 503 1336 q 440 1271 463 1292 q 392 1232 424 1256 q 323 1185 361 1208 q 242 1147 285 1163 q 160 1131 199 1131 q 88 1153 118 1131 m 64 1006 q 83 1044 67 1028 q 122 1072 99 1061 q 175 1089 146 1083 q 233 1094 204 1094 q 327 1078 285 1094 q 379 1026 369 1061 q 416 884 397 964 q 452 715 435 804 q 485 534 469 626 q 514 355 501 442 q 535 192 526 268 q 544 60 543 115 q 524 3 546 28 q 465 -40 501 -22 q 383 -66 429 -57 q 292 -75 338 -75 q 171 -54 225 -75 q 103 11 117 -33 q 81 126 90 53 q 64 290 71 199 q 53 482 57 381 q 49 681 49 583 q 52 863 49 778 q 64 1006 56 947 z "},"î":{"ha":585,"x_min":-14,"x_max":606,"o":"m 292 1454 q 380 1424 326 1454 q 483 1351 433 1393 q 569 1263 533 1308 q 606 1186 606 1217 q 592 1151 606 1168 q 557 1122 578 1135 q 513 1102 536 1110 q 472 1094 490 1094 q 421 1119 446 1094 q 374 1174 396 1144 q 333 1229 351 1204 q 299 1254 314 1254 q 267 1229 286 1254 q 224 1174 249 1204 q 167 1119 199 1144 q 97 1094 135 1094 q 19 1118 53 1094 q -14 1183 -14 1142 q 20 1263 -14 1217 q 102 1351 54 1308 q 202 1424 150 1394 q 292 1454 254 1454 m 64 1006 q 83 1044 67 1028 q 122 1072 99 1061 q 175 1089 146 1083 q 233 1094 204 1094 q 327 1078 285 1094 q 379 1026 369 1061 q 416 884 397 964 q 452 715 435 804 q 485 534 469 626 q 514 355 501 442 q 535 192 526 268 q 544 60 543 115 q 524 3 546 28 q 465 -40 501 -22 q 383 -66 429 -57 q 292 -75 338 -75 q 171 -54 225 -75 q 103 11 117 -33 q 81 126 90 53 q 64 290 71 199 q 53 482 57 381 q 49 681 49 583 q 52 863 49 778 q 64 1006 56 947 z "},"ï":{"ha":585,"x_min":-36,"x_max":558,"o":"m 411 1450 q 469 1436 443 1450 q 516 1399 496 1422 q 547 1349 536 1376 q 558 1293 558 1321 q 542 1231 558 1258 q 500 1183 525 1203 q 445 1151 475 1163 q 389 1140 415 1140 q 338 1153 360 1140 q 300 1185 315 1165 q 277 1231 285 1206 q 269 1281 269 1256 q 279 1340 269 1310 q 308 1394 289 1369 q 352 1435 326 1419 q 411 1450 378 1450 m 106 1433 q 164 1419 138 1433 q 210 1383 190 1406 q 242 1332 231 1360 q 253 1276 253 1304 q 236 1214 253 1242 q 194 1166 219 1186 q 140 1135 169 1146 q 83 1124 110 1124 q 32 1136 54 1124 q -6 1169 10 1149 q -28 1214 -21 1189 q -36 1264 -36 1239 q -26 1323 -36 1293 q 2 1378 -17 1353 q 47 1418 21 1403 q 106 1433 72 1433 m 64 1006 q 83 1044 67 1028 q 122 1072 99 1061 q 175 1089 146 1083 q 233 1094 204 1094 q 327 1078 285 1094 q 379 1026 369 1061 q 416 884 397 964 q 452 715 435 804 q 485 534 469 626 q 514 355 501 442 q 535 192 526 268 q 544 60 543 115 q 524 3 546 28 q 465 -40 501 -22 q 383 -66 429 -57 q 292 -75 338 -75 q 171 -54 225 -75 q 103 11 117 -33 q 81 126 90 53 q 64 290 71 199 q 53 482 57 381 q 49 681 49 583 q 52 863 49 778 q 64 1006 56 947 z "},"ð":{"ha":861,"x_min":15,"x_max":832,"o":"m 474 656 q 461 690 474 672 q 431 722 449 707 q 392 745 413 736 q 357 754 372 754 q 341 746 346 754 q 332 728 336 738 q 321 711 328 719 q 299 703 314 703 q 255 710 274 703 q 236 736 236 717 q 248 763 236 753 q 260 789 260 774 q 257 796 260 793 q 197 828 226 819 q 145 847 168 836 q 108 881 122 858 q 93 958 93 904 q 139 1062 93 1029 q 250 1094 185 1094 q 286 1090 268 1094 q 322 1078 304 1085 q 358 1067 340 1072 q 394 1061 376 1061 q 414 1072 408 1061 q 424 1095 419 1082 q 438 1119 429 1108 q 468 1129 447 1129 q 510 1120 490 1129 q 529 1092 529 1111 q 516 1061 529 1074 q 503 1036 503 1049 q 506 1031 506 1032 q 508 1029 507 1031 q 658 939 596 989 q 758 825 719 889 q 814 683 796 761 q 832 508 832 604 q 810 313 832 408 q 738 142 788 217 q 608 22 688 68 q 414 -24 529 -24 q 255 1 328 -24 q 128 75 182 26 q 45 194 75 124 q 15 353 15 264 q 35 459 15 406 q 91 556 56 513 q 174 627 126 600 q 279 654 222 654 q 324 649 303 654 q 366 635 346 643 q 406 622 386 628 q 443 617 425 617 q 467 628 460 617 q 474 656 474 640 m 485 314 q 460 367 485 350 q 399 385 436 385 q 354 374 375 385 q 333 329 333 364 q 357 274 333 294 q 419 254 381 254 q 465 267 446 254 q 485 314 485 279 z "},"ñ":{"ha":1036,"x_min":22,"x_max":1006,"o":"m 413 1208 q 394 1190 399 1208 q 379 1149 389 1171 q 347 1108 369 1126 q 274 1089 324 1089 q 237 1099 256 1089 q 202 1126 218 1110 q 176 1160 186 1142 q 165 1197 165 1179 q 181 1303 165 1251 q 226 1393 197 1354 q 294 1456 254 1432 q 382 1479 333 1479 q 485 1460 447 1479 q 544 1419 522 1442 q 579 1377 565 1396 q 611 1358 593 1358 q 635 1375 624 1358 q 660 1412 646 1392 q 694 1449 674 1432 q 747 1465 715 1465 q 788 1456 767 1465 q 828 1432 810 1447 q 858 1397 846 1417 q 871 1358 871 1378 q 853 1264 871 1310 q 806 1183 836 1218 q 733 1126 775 1147 q 642 1106 692 1106 q 556 1122 592 1106 q 494 1157 519 1138 q 449 1192 468 1176 q 413 1208 429 1208 m 22 256 q 28 438 22 343 q 48 623 35 532 q 83 797 61 714 q 139 943 106 879 q 179 1003 158 981 q 222 1040 200 1026 q 267 1058 244 1053 q 311 1063 289 1063 q 376 1056 340 1063 q 433 1031 411 1050 q 471 968 453 1013 q 506 867 489 924 q 538 749 522 810 q 567 638 553 689 q 594 555 581 588 q 618 522 607 522 q 635 531 629 522 q 643 551 640 539 q 646 574 646 563 q 646 593 646 586 q 632 758 646 676 q 618 924 618 840 q 622 981 618 949 q 646 1031 626 1013 q 715 1063 672 1054 q 792 1072 758 1072 q 844 1068 817 1072 q 897 1053 872 1064 q 941 1026 922 1043 q 968 981 960 1008 q 999 802 992 896 q 1006 621 1006 708 q 1001 484 1006 565 q 985 318 996 403 q 955 156 974 233 q 908 29 936 78 q 796 -32 872 -32 q 674 -3 728 -32 q 580 67 621 25 q 509 160 539 110 q 458 252 479 210 q 421 323 436 294 q 393 351 406 351 q 369 336 374 351 q 364 307 364 321 q 369 251 364 279 q 380 196 374 224 q 391 140 386 168 q 396 85 396 113 q 391 40 396 61 q 368 4 386 19 q 327 -22 351 -11 q 276 -41 303 -33 q 222 -52 249 -49 q 172 -56 194 -56 q 131 -53 153 -56 q 90 -42 108 -50 q 57 -19 71 -33 q 39 18 43 -6 q 25 137 28 76 q 22 256 22 197 z "},"ò":{"ha":1156,"x_min":32,"x_max":1128,"o":"m 807 1153 q 736 1131 776 1131 q 657 1147 699 1131 q 578 1185 615 1163 q 510 1232 540 1208 q 464 1271 479 1256 q 423 1314 443 1292 q 394 1360 403 1336 q 394 1410 386 1385 q 436 1463 401 1436 q 522 1497 482 1497 q 597 1464 564 1497 q 644 1401 625 1436 q 693 1338 664 1365 q 724 1309 708 1322 q 756 1281 740 1296 q 783 1251 768 1268 q 808 1215 799 1233 q 820 1181 818 1197 q 807 1153 822 1164 m 1128 465 q 1089 258 1128 347 q 981 109 1050 169 q 815 18 911 49 q 604 -12 719 -12 q 384 27 488 -12 q 202 138 281 67 q 78 310 124 210 q 32 529 32 410 q 78 765 32 665 q 203 930 124 864 q 391 1028 283 996 q 622 1060 499 1060 q 786 1024 707 1060 q 930 930 865 989 q 1041 796 994 871 q 1107 642 1088 721 q 1128 465 1128 557 m 435 536 q 449 488 435 508 q 483 453 463 467 q 530 433 504 440 q 579 426 556 426 q 674 458 640 426 q 708 551 708 489 q 696 606 708 582 q 663 646 683 629 q 617 671 643 663 q 561 679 590 679 q 509 667 532 679 q 469 635 486 654 q 444 590 453 615 q 435 536 435 564 z "},"ó":{"ha":1156,"x_min":32,"x_max":1128,"o":"m 404 1153 q 390 1181 389 1164 q 402 1215 392 1197 q 428 1251 413 1233 q 457 1281 444 1268 q 490 1309 474 1296 q 522 1338 507 1322 q 571 1401 551 1365 q 621 1464 590 1436 q 697 1497 657 1497 q 786 1463 739 1497 q 830 1410 822 1436 q 828 1360 838 1385 q 799 1314 819 1336 q 757 1271 779 1292 q 709 1232 740 1256 q 640 1185 678 1208 q 558 1147 601 1163 q 476 1131 515 1131 q 404 1153 435 1131 m 1128 465 q 1089 258 1128 347 q 981 109 1050 169 q 815 18 911 49 q 604 -12 719 -12 q 384 27 488 -12 q 202 138 281 67 q 78 310 124 210 q 32 529 32 410 q 78 765 32 665 q 203 930 124 864 q 391 1028 283 996 q 622 1060 499 1060 q 786 1024 707 1060 q 930 930 865 989 q 1041 796 994 871 q 1107 642 1088 721 q 1128 465 1128 557 m 435 536 q 449 488 435 508 q 483 453 463 467 q 530 433 504 440 q 579 426 556 426 q 674 458 640 426 q 708 551 708 489 q 696 606 708 582 q 663 646 683 629 q 617 671 643 663 q 561 679 590 679 q 509 667 532 679 q 469 635 486 654 q 444 590 453 615 q 435 536 435 564 z "},"ô":{"ha":1156,"x_min":32,"x_max":1128,"o":"m 613 1465 q 701 1435 647 1465 q 804 1362 754 1404 q 890 1274 854 1319 q 926 1197 926 1228 q 913 1163 926 1179 q 878 1133 899 1146 q 834 1113 857 1121 q 793 1106 811 1106 q 742 1131 767 1106 q 694 1185 717 1156 q 653 1240 672 1215 q 619 1265 635 1265 q 588 1240 607 1265 q 544 1185 569 1215 q 488 1131 519 1156 q 418 1106 456 1106 q 340 1129 374 1106 q 307 1194 307 1153 q 341 1274 307 1228 q 423 1363 375 1319 q 523 1435 471 1406 q 613 1465 575 1465 m 1128 465 q 1089 258 1128 347 q 981 109 1050 169 q 815 18 911 49 q 604 -12 719 -12 q 384 27 488 -12 q 202 138 281 67 q 78 310 124 210 q 32 529 32 410 q 78 765 32 665 q 203 930 124 864 q 391 1028 283 996 q 622 1060 499 1060 q 786 1024 707 1060 q 930 930 865 989 q 1041 796 994 871 q 1107 642 1088 721 q 1128 465 1128 557 m 435 536 q 449 488 435 508 q 483 453 463 467 q 530 433 504 440 q 579 426 556 426 q 674 458 640 426 q 708 551 708 489 q 696 606 708 582 q 663 646 683 629 q 617 671 643 663 q 561 679 590 679 q 509 667 532 679 q 469 635 486 654 q 444 590 453 615 q 435 536 435 564 z "}}}
